G04 #@! TF.GenerationSoftware,KiCad,Pcbnew,5.0.2+dfsg1-1~bpo9+1*
G04 #@! TF.CreationDate,2021-02-20T06:45:02-05:00*
G04 #@! TF.ProjectId,vexas,76657861-732e-46b6-9963-61645f706362,rev?*
G04 #@! TF.SameCoordinates,Original*
G04 #@! TF.FileFunction,Legend,Bot*
G04 #@! TF.FilePolarity,Positive*
%FSLAX46Y46*%
G04 Gerber Fmt 4.6, Leading zero omitted, Abs format (unit mm)*
G04 Created by KiCad (PCBNEW 5.0.2+dfsg1-1~bpo9+1) date Sat 20 Feb 2021 06:45:02 AM EST*
%MOMM*%
%LPD*%
G01*
G04 APERTURE LIST*
%ADD10C,0.300000*%
%ADD11C,0.150000*%
G04 APERTURE END LIST*
D10*
X220085714Y-74078571D02*
X219585714Y-75578571D01*
X219085714Y-74078571D01*
X218014285Y-75507142D02*
X218157142Y-75578571D01*
X218442857Y-75578571D01*
X218585714Y-75507142D01*
X218657142Y-75364285D01*
X218657142Y-74792857D01*
X218585714Y-74650000D01*
X218442857Y-74578571D01*
X218157142Y-74578571D01*
X218014285Y-74650000D01*
X217942857Y-74792857D01*
X217942857Y-74935714D01*
X218657142Y-75078571D01*
X217442857Y-75578571D02*
X216657142Y-74578571D01*
X217442857Y-74578571D02*
X216657142Y-75578571D01*
X215442857Y-75578571D02*
X215442857Y-74792857D01*
X215514285Y-74650000D01*
X215657142Y-74578571D01*
X215942857Y-74578571D01*
X216085714Y-74650000D01*
X215442857Y-75507142D02*
X215585714Y-75578571D01*
X215942857Y-75578571D01*
X216085714Y-75507142D01*
X216157142Y-75364285D01*
X216157142Y-75221428D01*
X216085714Y-75078571D01*
X215942857Y-75007142D01*
X215585714Y-75007142D01*
X215442857Y-74935714D01*
X214800000Y-75507142D02*
X214657142Y-75578571D01*
X214371428Y-75578571D01*
X214228571Y-75507142D01*
X214157142Y-75364285D01*
X214157142Y-75292857D01*
X214228571Y-75150000D01*
X214371428Y-75078571D01*
X214585714Y-75078571D01*
X214728571Y-75007142D01*
X214800000Y-74864285D01*
X214800000Y-74792857D01*
X214728571Y-74650000D01*
X214585714Y-74578571D01*
X214371428Y-74578571D01*
X214228571Y-74650000D01*
X212371428Y-75578571D02*
X212371428Y-74078571D01*
X211800000Y-74078571D01*
X211657142Y-74150000D01*
X211585714Y-74221428D01*
X211514285Y-74364285D01*
X211514285Y-74578571D01*
X211585714Y-74721428D01*
X211657142Y-74792857D01*
X211800000Y-74864285D01*
X212371428Y-74864285D01*
X210014285Y-75435714D02*
X210085714Y-75507142D01*
X210300000Y-75578571D01*
X210442857Y-75578571D01*
X210657142Y-75507142D01*
X210800000Y-75364285D01*
X210871428Y-75221428D01*
X210942857Y-74935714D01*
X210942857Y-74721428D01*
X210871428Y-74435714D01*
X210800000Y-74292857D01*
X210657142Y-74150000D01*
X210442857Y-74078571D01*
X210300000Y-74078571D01*
X210085714Y-74150000D01*
X210014285Y-74221428D01*
X208871428Y-74792857D02*
X208657142Y-74864285D01*
X208585714Y-74935714D01*
X208514285Y-75078571D01*
X208514285Y-75292857D01*
X208585714Y-75435714D01*
X208657142Y-75507142D01*
X208800000Y-75578571D01*
X209371428Y-75578571D01*
X209371428Y-74078571D01*
X208871428Y-74078571D01*
X208728571Y-74150000D01*
X208657142Y-74221428D01*
X208585714Y-74364285D01*
X208585714Y-74507142D01*
X208657142Y-74650000D01*
X208728571Y-74721428D01*
X208871428Y-74792857D01*
X209371428Y-74792857D01*
X206871428Y-74578571D02*
X206514285Y-75578571D01*
X206157142Y-74578571D01*
X205657142Y-74221428D02*
X205585714Y-74150000D01*
X205442857Y-74078571D01*
X205085714Y-74078571D01*
X204942857Y-74150000D01*
X204871428Y-74221428D01*
X204800000Y-74364285D01*
X204800000Y-74507142D01*
X204871428Y-74721428D01*
X205728571Y-75578571D01*
X204800000Y-75578571D01*
X204157142Y-75435714D02*
X204085714Y-75507142D01*
X204157142Y-75578571D01*
X204228571Y-75507142D01*
X204157142Y-75435714D01*
X204157142Y-75578571D01*
X202728571Y-74078571D02*
X203442857Y-74078571D01*
X203514285Y-74792857D01*
X203442857Y-74721428D01*
X203300000Y-74650000D01*
X202942857Y-74650000D01*
X202800000Y-74721428D01*
X202728571Y-74792857D01*
X202657142Y-74935714D01*
X202657142Y-75292857D01*
X202728571Y-75435714D01*
X202800000Y-75507142D01*
X202942857Y-75578571D01*
X203300000Y-75578571D01*
X203442857Y-75507142D01*
X203514285Y-75435714D01*
X207276000Y-79248142D02*
X207204571Y-79105285D01*
X207204571Y-78891000D01*
X207276000Y-78676714D01*
X207418857Y-78533857D01*
X207561714Y-78462428D01*
X207847428Y-78391000D01*
X208061714Y-78391000D01*
X208347428Y-78462428D01*
X208490285Y-78533857D01*
X208633142Y-78676714D01*
X208704571Y-78891000D01*
X208704571Y-79033857D01*
X208633142Y-79248142D01*
X208561714Y-79319571D01*
X208061714Y-79319571D01*
X208061714Y-79033857D01*
X208704571Y-79962428D02*
X207204571Y-79962428D01*
X208704571Y-80819571D01*
X207204571Y-80819571D01*
X208704571Y-81533857D02*
X207204571Y-81533857D01*
X207204571Y-81891000D01*
X207276000Y-82105285D01*
X207418857Y-82248142D01*
X207561714Y-82319571D01*
X207847428Y-82391000D01*
X208061714Y-82391000D01*
X208347428Y-82319571D01*
X208490285Y-82248142D01*
X208633142Y-82105285D01*
X208704571Y-81891000D01*
X208704571Y-81533857D01*
X204326857Y-83125571D02*
X203398285Y-83125571D01*
X203898285Y-83697000D01*
X203684000Y-83697000D01*
X203541142Y-83768428D01*
X203469714Y-83839857D01*
X203398285Y-83982714D01*
X203398285Y-84339857D01*
X203469714Y-84482714D01*
X203541142Y-84554142D01*
X203684000Y-84625571D01*
X204112571Y-84625571D01*
X204255428Y-84554142D01*
X204326857Y-84482714D01*
X202755428Y-84482714D02*
X202684000Y-84554142D01*
X202755428Y-84625571D01*
X202826857Y-84554142D01*
X202755428Y-84482714D01*
X202755428Y-84625571D01*
X202184000Y-83125571D02*
X201255428Y-83125571D01*
X201755428Y-83697000D01*
X201541142Y-83697000D01*
X201398285Y-83768428D01*
X201326857Y-83839857D01*
X201255428Y-83982714D01*
X201255428Y-84339857D01*
X201326857Y-84482714D01*
X201398285Y-84554142D01*
X201541142Y-84625571D01*
X201969714Y-84625571D01*
X202112571Y-84554142D01*
X202184000Y-84482714D01*
X200755428Y-83625571D02*
X200398285Y-84625571D01*
X200041142Y-83625571D01*
X215368208Y-86585822D02*
X215368208Y-86686837D01*
X215469223Y-86888868D01*
X215570238Y-86989883D01*
X215772269Y-87090898D01*
X215974299Y-87090898D01*
X216125822Y-87040391D01*
X216378360Y-86888868D01*
X216529883Y-86737345D01*
X216681406Y-86484807D01*
X216731913Y-86333284D01*
X216731913Y-86131253D01*
X216630898Y-85929223D01*
X216529883Y-85828208D01*
X216327852Y-85727192D01*
X216226837Y-85727192D01*
X214307547Y-85727192D02*
X214812624Y-86232269D01*
X215873284Y-85171608D01*
X209492183Y-86615461D02*
X208431522Y-85554801D01*
X208178984Y-85807339D01*
X208077969Y-86009370D01*
X208077969Y-86211400D01*
X208128477Y-86362923D01*
X208280000Y-86615461D01*
X208431522Y-86766984D01*
X208684061Y-86918507D01*
X208835583Y-86969015D01*
X209037614Y-86969015D01*
X209239644Y-86868000D01*
X209492183Y-86615461D01*
X208178984Y-87322568D02*
X207673908Y-87827644D01*
X208583045Y-87524599D02*
X207168832Y-86817492D01*
X207875938Y-88231705D01*
D11*
G04 #@! TO.C,R36*
X237630702Y-74005836D02*
X235295836Y-76340702D01*
X234706731Y-73416731D02*
X233539298Y-74584164D01*
X234706731Y-73416731D02*
X235874164Y-72249298D01*
G04 #@! TO.C,R37*
X242075702Y-74005836D02*
X239740836Y-76340702D01*
X239151731Y-73416731D02*
X237984298Y-74584164D01*
X239151731Y-73416731D02*
X240319164Y-72249298D01*
G04 #@! TO.C,R38*
X246520702Y-74005836D02*
X244185836Y-76340702D01*
X243596731Y-73416731D02*
X242429298Y-74584164D01*
X243596731Y-73416731D02*
X244764164Y-72249298D01*
G04 #@! TO.C,R1*
X203376000Y-66376000D02*
X203376000Y-70276000D01*
X206326000Y-70276000D02*
X206326000Y-66376000D01*
G04 #@! TO.C,R2*
X215822000Y-66376000D02*
X215822000Y-70276000D01*
X218772000Y-70276000D02*
X218772000Y-66376000D01*
G04 #@! TO.C,BZ2*
X212752631Y-63883967D02*
X212800250Y-64026824D01*
X212847869Y-64074443D01*
X212943107Y-64122062D01*
X213085964Y-64122062D01*
X213181202Y-64074443D01*
X213228821Y-64026824D01*
X213276440Y-63931586D01*
X213276440Y-63550634D01*
X212276440Y-63550634D01*
X212276440Y-63883967D01*
X212324060Y-63979205D01*
X212371679Y-64026824D01*
X212466917Y-64074443D01*
X212562155Y-64074443D01*
X212657393Y-64026824D01*
X212705012Y-63979205D01*
X212752631Y-63883967D01*
X212752631Y-63550634D01*
X212276440Y-64455396D02*
X212276440Y-65122062D01*
X213276440Y-64455396D01*
X213276440Y-65122062D01*
X212371679Y-65455396D02*
X212324060Y-65503015D01*
X212276440Y-65598253D01*
X212276440Y-65836348D01*
X212324060Y-65931586D01*
X212371679Y-65979205D01*
X212466917Y-66026824D01*
X212562155Y-66026824D01*
X212705012Y-65979205D01*
X213276440Y-65407777D01*
X213276440Y-66026824D01*
X213177428Y-67437047D02*
X213177428Y-68198952D01*
X213177428Y-60833047D02*
X213177428Y-61594952D01*
X213558380Y-61214000D02*
X212796476Y-61214000D01*
G04 #@! TO.C,R36*
X236374450Y-74165312D02*
X236273435Y-73592893D01*
X236778511Y-73761251D02*
X236071404Y-73054145D01*
X235802030Y-73323519D01*
X235768358Y-73424534D01*
X235768358Y-73491877D01*
X235802030Y-73592893D01*
X235903045Y-73693908D01*
X236004061Y-73727580D01*
X236071404Y-73727580D01*
X236172419Y-73693908D01*
X236441793Y-73424534D01*
X235431641Y-73693908D02*
X234993908Y-74131641D01*
X235498984Y-74165312D01*
X235397969Y-74266328D01*
X235364297Y-74367343D01*
X235364297Y-74434687D01*
X235397969Y-74535702D01*
X235566328Y-74704061D01*
X235667343Y-74737732D01*
X235734687Y-74737732D01*
X235835702Y-74704061D01*
X236037732Y-74502030D01*
X236071404Y-74401015D01*
X236071404Y-74333671D01*
X234387816Y-74737732D02*
X234522503Y-74603045D01*
X234623519Y-74569374D01*
X234690862Y-74569374D01*
X234859221Y-74603045D01*
X235027580Y-74704061D01*
X235296954Y-74973435D01*
X235330625Y-75074450D01*
X235330625Y-75141793D01*
X235296954Y-75242809D01*
X235162267Y-75377496D01*
X235061251Y-75411167D01*
X234993908Y-75411167D01*
X234892893Y-75377496D01*
X234724534Y-75209137D01*
X234690862Y-75108122D01*
X234690862Y-75040778D01*
X234724534Y-74939763D01*
X234859221Y-74805076D01*
X234960236Y-74771404D01*
X235027580Y-74771404D01*
X235128595Y-74805076D01*
G04 #@! TO.C,R37*
X240774450Y-74165312D02*
X240673435Y-73592893D01*
X241178511Y-73761251D02*
X240471404Y-73054145D01*
X240202030Y-73323519D01*
X240168358Y-73424534D01*
X240168358Y-73491877D01*
X240202030Y-73592893D01*
X240303045Y-73693908D01*
X240404061Y-73727580D01*
X240471404Y-73727580D01*
X240572419Y-73693908D01*
X240841793Y-73424534D01*
X239831641Y-73693908D02*
X239393908Y-74131641D01*
X239898984Y-74165312D01*
X239797969Y-74266328D01*
X239764297Y-74367343D01*
X239764297Y-74434687D01*
X239797969Y-74535702D01*
X239966328Y-74704061D01*
X240067343Y-74737732D01*
X240134687Y-74737732D01*
X240235702Y-74704061D01*
X240437732Y-74502030D01*
X240471404Y-74401015D01*
X240471404Y-74333671D01*
X239158206Y-74367343D02*
X238686801Y-74838748D01*
X239696954Y-75242809D01*
G04 #@! TO.C,R38*
X245274450Y-74265312D02*
X245173435Y-73692893D01*
X245678511Y-73861251D02*
X244971404Y-73154145D01*
X244702030Y-73423519D01*
X244668358Y-73524534D01*
X244668358Y-73591877D01*
X244702030Y-73692893D01*
X244803045Y-73793908D01*
X244904061Y-73827580D01*
X244971404Y-73827580D01*
X245072419Y-73793908D01*
X245341793Y-73524534D01*
X244331641Y-73793908D02*
X243893908Y-74231641D01*
X244398984Y-74265312D01*
X244297969Y-74366328D01*
X244264297Y-74467343D01*
X244264297Y-74534687D01*
X244297969Y-74635702D01*
X244466328Y-74804061D01*
X244567343Y-74837732D01*
X244634687Y-74837732D01*
X244735702Y-74804061D01*
X244937732Y-74602030D01*
X244971404Y-74501015D01*
X244971404Y-74433671D01*
X243792893Y-74938748D02*
X243826564Y-74837732D01*
X243826564Y-74770389D01*
X243792893Y-74669374D01*
X243759221Y-74635702D01*
X243658206Y-74602030D01*
X243590862Y-74602030D01*
X243489847Y-74635702D01*
X243355160Y-74770389D01*
X243321488Y-74871404D01*
X243321488Y-74938748D01*
X243355160Y-75039763D01*
X243388832Y-75073435D01*
X243489847Y-75107106D01*
X243557190Y-75107106D01*
X243658206Y-75073435D01*
X243792893Y-74938748D01*
X243893908Y-74905076D01*
X243961251Y-74905076D01*
X244062267Y-74938748D01*
X244196954Y-75073435D01*
X244230625Y-75174450D01*
X244230625Y-75241793D01*
X244196954Y-75342809D01*
X244062267Y-75477496D01*
X243961251Y-75511167D01*
X243893908Y-75511167D01*
X243792893Y-75477496D01*
X243658206Y-75342809D01*
X243624534Y-75241793D01*
X243624534Y-75174450D01*
X243658206Y-75073435D01*
G04 #@! TO.C,R1*
X208003380Y-68159333D02*
X207527190Y-67826000D01*
X208003380Y-67587904D02*
X207003380Y-67587904D01*
X207003380Y-67968857D01*
X207051000Y-68064095D01*
X207098619Y-68111714D01*
X207193857Y-68159333D01*
X207336714Y-68159333D01*
X207431952Y-68111714D01*
X207479571Y-68064095D01*
X207527190Y-67968857D01*
X207527190Y-67587904D01*
X208003380Y-69111714D02*
X208003380Y-68540285D01*
X208003380Y-68826000D02*
X207003380Y-68826000D01*
X207146238Y-68730761D01*
X207241476Y-68635523D01*
X207289095Y-68540285D01*
X202603380Y-67492666D02*
X202127190Y-67159333D01*
X202603380Y-66921238D02*
X201603380Y-66921238D01*
X201603380Y-67302190D01*
X201651000Y-67397428D01*
X201698619Y-67445047D01*
X201793857Y-67492666D01*
X201936714Y-67492666D01*
X202031952Y-67445047D01*
X202079571Y-67397428D01*
X202127190Y-67302190D01*
X202127190Y-66921238D01*
X202603380Y-67921238D02*
X201936714Y-67921238D01*
X201603380Y-67921238D02*
X201651000Y-67873619D01*
X201698619Y-67921238D01*
X201651000Y-67968857D01*
X201603380Y-67921238D01*
X201698619Y-67921238D01*
X201698619Y-68349809D02*
X201651000Y-68397428D01*
X201603380Y-68492666D01*
X201603380Y-68730761D01*
X201651000Y-68826000D01*
X201698619Y-68873619D01*
X201793857Y-68921238D01*
X201889095Y-68921238D01*
X202031952Y-68873619D01*
X202603380Y-68302190D01*
X202603380Y-68921238D01*
X202555761Y-69778380D02*
X202603380Y-69683142D01*
X202603380Y-69492666D01*
X202555761Y-69397428D01*
X202508142Y-69349809D01*
X202412904Y-69302190D01*
X202127190Y-69302190D01*
X202031952Y-69349809D01*
X201984333Y-69397428D01*
X201936714Y-69492666D01*
X201936714Y-69683142D01*
X201984333Y-69778380D01*
G04 #@! TO.C,R2*
X220449380Y-68159333D02*
X219973190Y-67826000D01*
X220449380Y-67587904D02*
X219449380Y-67587904D01*
X219449380Y-67968857D01*
X219497000Y-68064095D01*
X219544619Y-68111714D01*
X219639857Y-68159333D01*
X219782714Y-68159333D01*
X219877952Y-68111714D01*
X219925571Y-68064095D01*
X219973190Y-67968857D01*
X219973190Y-67587904D01*
X219544619Y-68540285D02*
X219497000Y-68587904D01*
X219449380Y-68683142D01*
X219449380Y-68921238D01*
X219497000Y-69016476D01*
X219544619Y-69064095D01*
X219639857Y-69111714D01*
X219735095Y-69111714D01*
X219877952Y-69064095D01*
X220449380Y-68492666D01*
X220449380Y-69111714D01*
X215049380Y-67492666D02*
X214573190Y-67159333D01*
X215049380Y-66921238D02*
X214049380Y-66921238D01*
X214049380Y-67302190D01*
X214097000Y-67397428D01*
X214144619Y-67445047D01*
X214239857Y-67492666D01*
X214382714Y-67492666D01*
X214477952Y-67445047D01*
X214525571Y-67397428D01*
X214573190Y-67302190D01*
X214573190Y-66921238D01*
X215049380Y-67921238D02*
X214382714Y-67921238D01*
X214049380Y-67921238D02*
X214097000Y-67873619D01*
X214144619Y-67921238D01*
X214097000Y-67968857D01*
X214049380Y-67921238D01*
X214144619Y-67921238D01*
X214144619Y-68349809D02*
X214097000Y-68397428D01*
X214049380Y-68492666D01*
X214049380Y-68730761D01*
X214097000Y-68826000D01*
X214144619Y-68873619D01*
X214239857Y-68921238D01*
X214335095Y-68921238D01*
X214477952Y-68873619D01*
X215049380Y-68302190D01*
X215049380Y-68921238D01*
X215001761Y-69778380D02*
X215049380Y-69683142D01*
X215049380Y-69492666D01*
X215001761Y-69397428D01*
X214954142Y-69349809D01*
X214858904Y-69302190D01*
X214573190Y-69302190D01*
X214477952Y-69349809D01*
X214430333Y-69397428D01*
X214382714Y-69492666D01*
X214382714Y-69683142D01*
X214430333Y-69778380D01*
G04 #@! TD*
M02*
