M48
;DRILL file {KiCad 5.0.2+dfsg1-1~bpo9+1} date Sat 20 Feb 2021 06:45:19 AM EST
;FORMAT={-:-/ absolute / inch / decimal}
FMAT,2
INCH,TZ
T1C0.0157
T2C0.0300
T3C0.0394
T4C0.0394
T5C0.0400
T6C0.0512
%
G90
G05
T1
X7.65Y-2.485
X7.88Y-3.3
X8.06Y-2.575
X8.305Y-3.66
X8.555Y-2.57
X8.595Y-3.625
X8.62Y-4.16
X8.7Y-3.3
X9.14Y-2.73
T2
X7.225Y-2.15
X7.225Y-3.05
X7.325Y-2.15
X7.325Y-3.05
X7.425Y-2.15
X7.425Y-3.05
X7.525Y-2.15
X7.525Y-3.05
X7.625Y-2.15
X7.625Y-3.05
X7.725Y-2.15
X7.725Y-3.05
X7.825Y-2.15
X7.825Y-3.05
X7.925Y-2.15
X7.925Y-3.05
X8.025Y-2.15
X8.025Y-3.05
X8.125Y-2.15
X8.125Y-3.05
X8.225Y-2.15
X8.225Y-3.05
X8.325Y-2.15
X8.325Y-3.05
X8.425Y-2.15
X8.425Y-3.05
X8.525Y-2.15
X8.525Y-3.05
X8.625Y-2.15
X8.625Y-3.05
X8.725Y-2.15
X8.725Y-3.05
X8.825Y-2.15
X8.825Y-3.05
X8.925Y-2.15
X8.925Y-3.05
T3
X7.8Y-3.18
X7.8Y-3.42
X8.Y-3.18
X8.Y-3.42
X8.4Y-4.08
X8.4Y-4.32
X8.6Y-4.08
X8.6Y-4.32
X9.6Y-3.78
X9.6Y-4.02
X9.8Y-3.78
X9.8Y-4.02
X9.3Y-3.78
X9.3Y-4.02
X9.5Y-3.78
X9.5Y-4.02
X8.1Y-4.08
X8.1Y-4.32
X8.3Y-4.08
X8.3Y-4.32
X7.2Y-3.78
X7.2Y-4.02
X7.4Y-3.78
X7.4Y-4.02
X9.Y-3.78
X9.Y-4.02
X9.2Y-3.78
X9.2Y-4.02
X6.9Y-3.18
X6.9Y-3.42
X7.1Y-3.18
X7.1Y-3.42
X8.7Y-3.78
X8.7Y-4.02
X8.9Y-3.78
X8.9Y-4.02
X7.8Y-3.48
X7.8Y-3.72
X8.Y-3.48
X8.Y-3.72
X9.3Y-3.18
X9.3Y-3.42
X9.5Y-3.18
X9.5Y-3.42
X8.1Y-3.78
X8.1Y-4.02
X8.3Y-3.78
X8.3Y-4.02
X7.5Y-3.18
X7.5Y-3.42
X7.7Y-3.18
X7.7Y-3.42
X8.7Y-3.18
X8.7Y-3.42
X8.9Y-3.18
X8.9Y-3.42
X9.6Y-3.18
X9.6Y-3.42
X9.8Y-3.18
X9.8Y-3.42
X7.5Y-3.48
X7.5Y-3.72
X7.7Y-3.48
X7.7Y-3.72
X7.61Y-2.8
X7.79Y-2.8
X7.2Y-3.18
X7.2Y-3.42
X7.4Y-3.18
X7.4Y-3.42
X6.9Y-4.08
X6.9Y-4.32
X7.1Y-4.08
X7.1Y-4.32
X8.1Y-3.48
X8.1Y-3.72
X8.3Y-3.48
X8.3Y-3.72
X7.2Y-3.48
X7.2Y-3.72
X7.4Y-3.48
X7.4Y-3.72
X8.91Y-2.8
X9.09Y-2.8
X9.3Y-4.08
X9.3Y-4.32
X9.5Y-4.08
X9.5Y-4.32
X9.3Y-3.48
X9.3Y-3.72
X9.5Y-3.48
X9.5Y-3.72
X7.8Y-3.78
X7.8Y-4.02
X8.Y-3.78
X8.Y-4.02
X7.5Y-4.08
X7.5Y-4.32
X7.7Y-4.08
X7.7Y-4.32
X9.Y-3.18
X9.Y-3.42
X9.2Y-3.18
X9.2Y-3.42
X9.Y-3.48
X9.Y-3.72
X9.2Y-3.48
X9.2Y-3.72
X7.2Y-4.08
X7.2Y-4.32
X7.4Y-4.08
X7.4Y-4.32
X8.4Y-3.78
X8.4Y-4.02
X8.6Y-3.78
X8.6Y-4.02
X6.9Y-3.48
X6.9Y-3.72
X7.1Y-3.48
X7.1Y-3.72
X8.1Y-3.18
X8.1Y-3.42
X8.3Y-3.18
X8.3Y-3.42
X6.9Y-3.78
X6.9Y-4.02
X7.1Y-3.78
X7.1Y-4.02
X8.4Y-3.48
X8.4Y-3.72
X8.6Y-3.48
X8.6Y-3.72
X9.6Y-4.08
X9.6Y-4.32
X9.8Y-4.08
X9.8Y-4.32
X9.6Y-3.48
X9.6Y-3.72
X9.8Y-3.48
X9.8Y-3.72
X8.7Y-3.48
X8.7Y-3.72
X8.9Y-3.48
X8.9Y-3.72
X9.Y-4.08
X9.Y-4.32
X9.2Y-4.08
X9.2Y-4.32
X7.5Y-3.78
X7.5Y-4.02
X7.7Y-3.78
X7.7Y-4.02
X8.4Y-3.18
X8.4Y-3.42
X8.6Y-3.18
X8.6Y-3.42
T4
X8.31Y-2.41
X8.31Y-2.67
X9.3081Y-2.5219
X9.4919Y-2.3381
X9.4858Y-3.0642
X9.7642Y-2.7858
X9.3108Y-3.0642
X9.5892Y-2.7858
X9.1358Y-3.0642
X9.4142Y-2.7858
T5
X7.Y-2.845
X7.Y-2.945
X7.Y-3.045
X8.1Y-3.305
X8.2Y-3.305
X8.3Y-3.305
X8.4Y-3.305
T6
X7.56Y-2.9
X7.84Y-2.9
X8.86Y-2.9
X9.14Y-2.9
T0
M30
