G04 #@! TF.GenerationSoftware,KiCad,Pcbnew,5.0.2+dfsg1-1~bpo9+1*
G04 #@! TF.CreationDate,2021-02-20T06:45:01-05:00*
G04 #@! TF.ProjectId,vexas,76657861-732e-46b6-9963-61645f706362,rev?*
G04 #@! TF.SameCoordinates,Original*
G04 #@! TF.FileFunction,Paste,Bot*
G04 #@! TF.FilePolarity,Positive*
%FSLAX46Y46*%
G04 Gerber Fmt 4.6, Leading zero omitted, Abs format (unit mm)*
G04 Created by KiCad (PCBNEW 5.0.2+dfsg1-1~bpo9+1) date Sat 20 Feb 2021 06:45:01 AM EST*
%MOMM*%
%LPD*%
G01*
G04 APERTURE LIST*
%ADD10C,1.399540*%
%ADD11C,1.000000*%
%ADD12R,2.500000X2.400000*%
G04 APERTURE END LIST*
D10*
G04 #@! TO.C,R36*
X234029620Y-75850380D03*
D11*
G36*
X233710821Y-77158803D02*
X232721197Y-76169179D01*
X234348419Y-74541957D01*
X235338043Y-75531581D01*
X233710821Y-77158803D01*
X233710821Y-77158803D01*
G37*
D10*
X237140380Y-72739620D03*
D11*
G36*
X236821581Y-74048043D02*
X235831957Y-73058419D01*
X237459179Y-71431197D01*
X238448803Y-72420821D01*
X236821581Y-74048043D01*
X236821581Y-74048043D01*
G37*
G04 #@! TD*
D10*
G04 #@! TO.C,R37*
X238474620Y-75850380D03*
D11*
G36*
X238155821Y-77158803D02*
X237166197Y-76169179D01*
X238793419Y-74541957D01*
X239783043Y-75531581D01*
X238155821Y-77158803D01*
X238155821Y-77158803D01*
G37*
D10*
X241585380Y-72739620D03*
D11*
G36*
X241266581Y-74048043D02*
X240276957Y-73058419D01*
X241904179Y-71431197D01*
X242893803Y-72420821D01*
X241266581Y-74048043D01*
X241266581Y-74048043D01*
G37*
G04 #@! TD*
D10*
G04 #@! TO.C,R38*
X242919620Y-75850380D03*
D11*
G36*
X242600821Y-77158803D02*
X241611197Y-76169179D01*
X243238419Y-74541957D01*
X244228043Y-75531581D01*
X242600821Y-77158803D01*
X242600821Y-77158803D01*
G37*
D10*
X246030380Y-72739620D03*
D11*
G36*
X245711581Y-74048043D02*
X244721957Y-73058419D01*
X246349179Y-71431197D01*
X247338803Y-72420821D01*
X245711581Y-74048043D01*
X245711581Y-74048043D01*
G37*
G04 #@! TD*
D12*
G04 #@! TO.C,R1*
X204851000Y-71476000D03*
X204851000Y-65176000D03*
G04 #@! TD*
G04 #@! TO.C,R2*
X217297000Y-71476000D03*
X217297000Y-65176000D03*
G04 #@! TD*
M02*
