G04 #@! TF.GenerationSoftware,KiCad,Pcbnew,5.0.2+dfsg1-1~bpo9+1*
G04 #@! TF.CreationDate,2021-02-20T06:44:59-05:00*
G04 #@! TF.ProjectId,vexas,76657861-732e-46b6-9963-61645f706362,rev?*
G04 #@! TF.SameCoordinates,Original*
G04 #@! TF.FileFunction,Copper,L2,Bot*
G04 #@! TF.FilePolarity,Positive*
%FSLAX46Y46*%
G04 Gerber Fmt 4.6, Leading zero omitted, Abs format (unit mm)*
G04 Created by KiCad (PCBNEW 5.0.2+dfsg1-1~bpo9+1) date Sat 20 Feb 2021 06:44:59 AM EST*
%MOMM*%
%LPD*%
G01*
G04 APERTURE LIST*
G04 #@! TA.AperFunction,ComponentPad*
%ADD10C,2.499360*%
G04 #@! TD*
G04 #@! TA.AperFunction,Conductor*
%ADD11C,1.000000*%
G04 #@! TD*
G04 #@! TA.AperFunction,ComponentPad*
%ADD12R,2.499360X2.499360*%
G04 #@! TD*
G04 #@! TA.AperFunction,ComponentPad*
%ADD13R,2.032000X2.032000*%
G04 #@! TD*
G04 #@! TA.AperFunction,ComponentPad*
%ADD14O,2.032000X2.032000*%
G04 #@! TD*
G04 #@! TA.AperFunction,ComponentPad*
%ADD15C,2.032000*%
G04 #@! TD*
G04 #@! TA.AperFunction,ComponentPad*
%ADD16C,1.800000*%
G04 #@! TD*
G04 #@! TA.AperFunction,ComponentPad*
%ADD17C,2.000000*%
G04 #@! TD*
G04 #@! TA.AperFunction,ComponentPad*
%ADD18O,1.500000X1.500000*%
G04 #@! TD*
G04 #@! TA.AperFunction,ComponentPad*
%ADD19R,1.524000X1.524000*%
G04 #@! TD*
G04 #@! TA.AperFunction,ComponentPad*
%ADD20C,1.524000*%
G04 #@! TD*
G04 #@! TA.AperFunction,SMDPad,CuDef*
%ADD21C,1.399540*%
G04 #@! TD*
G04 #@! TA.AperFunction,ComponentPad*
%ADD22C,1.998980*%
G04 #@! TD*
G04 #@! TA.AperFunction,SMDPad,CuDef*
%ADD23R,2.500000X2.400000*%
G04 #@! TD*
G04 #@! TA.AperFunction,ComponentPad*
%ADD24R,1.727200X2.032000*%
G04 #@! TD*
G04 #@! TA.AperFunction,ComponentPad*
%ADD25O,1.727200X2.032000*%
G04 #@! TD*
G04 #@! TA.AperFunction,ViaPad*
%ADD26C,0.600000*%
G04 #@! TD*
G04 #@! TA.AperFunction,Conductor*
%ADD27C,0.250000*%
G04 #@! TD*
G04 #@! TA.AperFunction,Conductor*
%ADD28C,0.254000*%
G04 #@! TD*
G04 APERTURE END LIST*
D10*
G04 #@! TO.P,BZ1,2*
G04 #@! TO.N,/GND*
X236425133Y-64056867D03*
D11*
G04 #@! TD*
G04 #@! TO.N,/GND*
G04 #@! TO.C,BZ1*
G36*
X236425133Y-62289553D02*
X238192447Y-64056867D01*
X236425133Y-65824181D01*
X234657819Y-64056867D01*
X236425133Y-62289553D01*
X236425133Y-62289553D01*
G37*
D10*
G04 #@! TO.P,BZ1,1*
G04 #@! TO.N,Net-(BZ1-Pad1)*
X241094867Y-59387133D03*
G04 #@! TD*
D12*
G04 #@! TO.P,BZ2,2*
G04 #@! TO.N,/GND*
X211074000Y-67818001D03*
D10*
G04 #@! TO.P,BZ2,1*
G04 #@! TO.N,Net-(BZ1-Pad1)*
X211074000Y-61213999D03*
G04 #@! TD*
D13*
G04 #@! TO.P,P1,3*
G04 #@! TO.N,/GND*
X177800000Y-72263000D03*
D14*
G04 #@! TO.P,P1,2*
G04 #@! TO.N,/RX*
X177800000Y-74803000D03*
D15*
G04 #@! TO.P,P1,1*
G04 #@! TO.N,/TX*
X177800000Y-77343000D03*
G04 #@! TD*
D16*
G04 #@! TO.P,K37,2*
G04 #@! TO.N,/col6*
X226314000Y-71120000D03*
G04 #@! TO.P,K37,1*
G04 #@! TO.N,/row3*
X230886000Y-71120000D03*
D17*
G04 #@! TO.P,K37,3*
G04 #@! TO.N,/GND*
X225044000Y-73660000D03*
G04 #@! TO.P,K37,4*
X232156000Y-73660000D03*
G04 #@! TD*
D16*
G04 #@! TO.P,K34,2*
G04 #@! TO.N,/col3*
X193294000Y-71120000D03*
G04 #@! TO.P,K34,1*
G04 #@! TO.N,/row3*
X197866000Y-71120000D03*
D17*
G04 #@! TO.P,K34,3*
G04 #@! TO.N,/GND*
X192024000Y-73660000D03*
G04 #@! TO.P,K34,4*
X199136000Y-73660000D03*
G04 #@! TD*
D18*
G04 #@! TO.P,K11,*
G04 #@! TO.N,*
X180340000Y-94288000D03*
X175260000Y-88592000D03*
G04 #@! TO.P,K11,2*
G04 #@! TO.N,/col0*
X175260000Y-94288000D03*
G04 #@! TO.P,K11,1*
G04 #@! TO.N,/row1*
X180340000Y-88592000D03*
G04 #@! TD*
D19*
G04 #@! TO.P,U1,1*
G04 #@! TO.N,/GND*
X183515000Y-77470000D03*
D20*
G04 #@! TO.P,U1,4*
G04 #@! TO.N,Net-(U1-Pad4)*
X191135000Y-77470000D03*
G04 #@! TO.P,U1,5*
G04 #@! TO.N,/RX*
X193675000Y-77470000D03*
G04 #@! TO.P,U1,6*
G04 #@! TO.N,/TX*
X196215000Y-77470000D03*
G04 #@! TO.P,U1,7*
G04 #@! TO.N,Net-(U1-Pad7)*
X198755000Y-77470000D03*
G04 #@! TO.P,U1,8*
G04 #@! TO.N,Net-(U1-Pad8)*
X201295000Y-77470000D03*
G04 #@! TO.P,U1,9*
G04 #@! TO.N,/row0*
X203835000Y-77470000D03*
G04 #@! TO.P,U1,10*
G04 #@! TO.N,Net-(U1-Pad10)*
X206375000Y-77470000D03*
G04 #@! TO.P,U1,11*
G04 #@! TO.N,/row3*
X208915000Y-77470000D03*
G04 #@! TO.P,U1,12*
G04 #@! TO.N,/row2*
X211455000Y-77470000D03*
G04 #@! TO.P,U1,13*
G04 #@! TO.N,/col2*
X213995000Y-77470000D03*
G04 #@! TO.P,U1,14*
G04 #@! TO.N,/SCL*
X216535000Y-77470000D03*
G04 #@! TO.P,U1,15*
G04 #@! TO.N,/col1*
X219075000Y-77470000D03*
G04 #@! TO.P,U1,16*
G04 #@! TO.N,/SDA*
X221615000Y-77470000D03*
G04 #@! TO.P,U1,17*
G04 #@! TO.N,/col0*
X224155000Y-77470000D03*
G04 #@! TO.P,U1,18*
G04 #@! TO.N,Net-(U1-Pad18)*
X226695000Y-77470000D03*
G04 #@! TO.P,U1,19*
G04 #@! TO.N,/row1*
X226695000Y-54610000D03*
G04 #@! TO.P,U1,20*
G04 #@! TO.N,/col8*
X224155000Y-54610000D03*
G04 #@! TO.P,U1,21*
G04 #@! TO.N,/col7*
X221615000Y-54610000D03*
G04 #@! TO.P,U1,22*
G04 #@! TO.N,/col6*
X219075000Y-54610000D03*
G04 #@! TO.P,U1,23*
G04 #@! TO.N,/col5*
X216535000Y-54610000D03*
G04 #@! TO.P,U1,24*
G04 #@! TO.N,Net-(BZ1-Pad1)*
X213995000Y-54610000D03*
G04 #@! TO.P,U1,25*
G04 #@! TO.N,Net-(U1-Pad25)*
X211455000Y-54610000D03*
G04 #@! TO.P,U1,26*
G04 #@! TO.N,Net-(U1-Pad26)*
X208915000Y-54610000D03*
G04 #@! TO.P,U1,27*
G04 #@! TO.N,Net-(U1-Pad27)*
X206375000Y-54610000D03*
G04 #@! TO.P,U1,28*
G04 #@! TO.N,Net-(U1-Pad28)*
X203835000Y-54610000D03*
G04 #@! TO.P,U1,29*
G04 #@! TO.N,Net-(U1-Pad29)*
X201295000Y-54610000D03*
G04 #@! TO.P,U1,30*
G04 #@! TO.N,Net-(U1-Pad30)*
X198755000Y-54610000D03*
G04 #@! TO.P,U1,31*
G04 #@! TO.N,/col4*
X196215000Y-54610000D03*
G04 #@! TO.P,U1,32*
G04 #@! TO.N,/col3*
X193675000Y-54610000D03*
G04 #@! TO.P,U1,33*
G04 #@! TO.N,/col9*
X191135000Y-54610000D03*
G04 #@! TO.P,U1,34*
G04 #@! TO.N,/3.3v*
X188595000Y-54610000D03*
G04 #@! TO.P,U1,35*
G04 #@! TO.N,Net-(U1-Pad35)*
X186055000Y-54610000D03*
G04 #@! TO.P,U1,36*
G04 #@! TO.N,/GND*
X183515000Y-54610000D03*
G04 #@! TO.P,U1,2*
G04 #@! TO.N,Net-(U1-Pad2)*
X186055000Y-77470000D03*
G04 #@! TO.P,U1,3*
G04 #@! TO.N,/3.3v*
X188595000Y-77470000D03*
G04 #@! TD*
D18*
G04 #@! TO.P,K1,*
G04 #@! TO.N,*
X180340000Y-86668000D03*
X175260000Y-80972000D03*
G04 #@! TO.P,K1,2*
G04 #@! TO.N,/col0*
X175260000Y-86668000D03*
G04 #@! TO.P,K1,1*
G04 #@! TO.N,/row0*
X180340000Y-80972000D03*
G04 #@! TD*
G04 #@! TO.P,K2,*
G04 #@! TO.N,*
X187960000Y-86668000D03*
X182880000Y-80972000D03*
G04 #@! TO.P,K2,2*
G04 #@! TO.N,/col1*
X182880000Y-86668000D03*
G04 #@! TO.P,K2,1*
G04 #@! TO.N,/row0*
X187960000Y-80972000D03*
G04 #@! TD*
G04 #@! TO.P,K3,*
G04 #@! TO.N,*
X195580000Y-86668000D03*
X190500000Y-80972000D03*
G04 #@! TO.P,K3,2*
G04 #@! TO.N,/col2*
X190500000Y-86668000D03*
G04 #@! TO.P,K3,1*
G04 #@! TO.N,/row0*
X195580000Y-80972000D03*
G04 #@! TD*
G04 #@! TO.P,K4,*
G04 #@! TO.N,*
X203200000Y-86668000D03*
X198120000Y-80972000D03*
G04 #@! TO.P,K4,2*
G04 #@! TO.N,/col3*
X198120000Y-86668000D03*
G04 #@! TO.P,K4,1*
G04 #@! TO.N,/row0*
X203200000Y-80972000D03*
G04 #@! TD*
G04 #@! TO.P,K5,*
G04 #@! TO.N,*
X210820000Y-86668000D03*
X205740000Y-80972000D03*
G04 #@! TO.P,K5,2*
G04 #@! TO.N,/col4*
X205740000Y-86668000D03*
G04 #@! TO.P,K5,1*
G04 #@! TO.N,/row0*
X210820000Y-80972000D03*
G04 #@! TD*
G04 #@! TO.P,K6,*
G04 #@! TO.N,*
X218440000Y-86668000D03*
X213360000Y-80972000D03*
G04 #@! TO.P,K6,2*
G04 #@! TO.N,/col5*
X213360000Y-86668000D03*
G04 #@! TO.P,K6,1*
G04 #@! TO.N,/row0*
X218440000Y-80972000D03*
G04 #@! TD*
G04 #@! TO.P,K7,*
G04 #@! TO.N,*
X226060000Y-86668000D03*
X220980000Y-80972000D03*
G04 #@! TO.P,K7,2*
G04 #@! TO.N,/col6*
X220980000Y-86668000D03*
G04 #@! TO.P,K7,1*
G04 #@! TO.N,/row0*
X226060000Y-80972000D03*
G04 #@! TD*
G04 #@! TO.P,K8,*
G04 #@! TO.N,*
X233680000Y-86668000D03*
X228600000Y-80972000D03*
G04 #@! TO.P,K8,2*
G04 #@! TO.N,/col7*
X228600000Y-86668000D03*
G04 #@! TO.P,K8,1*
G04 #@! TO.N,/row0*
X233680000Y-80972000D03*
G04 #@! TD*
G04 #@! TO.P,K9,*
G04 #@! TO.N,*
X241300000Y-86668000D03*
X236220000Y-80972000D03*
G04 #@! TO.P,K9,2*
G04 #@! TO.N,/col8*
X236220000Y-86668000D03*
G04 #@! TO.P,K9,1*
G04 #@! TO.N,/row0*
X241300000Y-80972000D03*
G04 #@! TD*
G04 #@! TO.P,K10,*
G04 #@! TO.N,*
X248920000Y-86668000D03*
X243840000Y-80972000D03*
G04 #@! TO.P,K10,2*
G04 #@! TO.N,/col9*
X243840000Y-86668000D03*
G04 #@! TO.P,K10,1*
G04 #@! TO.N,/row0*
X248920000Y-80972000D03*
G04 #@! TD*
G04 #@! TO.P,K12,*
G04 #@! TO.N,*
X187960000Y-94288000D03*
X182880000Y-88592000D03*
G04 #@! TO.P,K12,2*
G04 #@! TO.N,/col1*
X182880000Y-94288000D03*
G04 #@! TO.P,K12,1*
G04 #@! TO.N,/row1*
X187960000Y-88592000D03*
G04 #@! TD*
G04 #@! TO.P,K13,*
G04 #@! TO.N,*
X195580000Y-94288000D03*
X190500000Y-88592000D03*
G04 #@! TO.P,K13,2*
G04 #@! TO.N,/col2*
X190500000Y-94288000D03*
G04 #@! TO.P,K13,1*
G04 #@! TO.N,/row1*
X195580000Y-88592000D03*
G04 #@! TD*
G04 #@! TO.P,K14,*
G04 #@! TO.N,*
X203200000Y-94288000D03*
X198120000Y-88592000D03*
G04 #@! TO.P,K14,2*
G04 #@! TO.N,/col3*
X198120000Y-94288000D03*
G04 #@! TO.P,K14,1*
G04 #@! TO.N,/row1*
X203200000Y-88592000D03*
G04 #@! TD*
G04 #@! TO.P,K15,*
G04 #@! TO.N,*
X210820000Y-94288000D03*
X205740000Y-88592000D03*
G04 #@! TO.P,K15,2*
G04 #@! TO.N,/col4*
X205740000Y-94288000D03*
G04 #@! TO.P,K15,1*
G04 #@! TO.N,/row1*
X210820000Y-88592000D03*
G04 #@! TD*
G04 #@! TO.P,K16,*
G04 #@! TO.N,*
X218440000Y-94288000D03*
X213360000Y-88592000D03*
G04 #@! TO.P,K16,2*
G04 #@! TO.N,/col5*
X213360000Y-94288000D03*
G04 #@! TO.P,K16,1*
G04 #@! TO.N,/row1*
X218440000Y-88592000D03*
G04 #@! TD*
G04 #@! TO.P,K17,*
G04 #@! TO.N,*
X226060000Y-94288000D03*
X220980000Y-88592000D03*
G04 #@! TO.P,K17,2*
G04 #@! TO.N,/col6*
X220980000Y-94288000D03*
G04 #@! TO.P,K17,1*
G04 #@! TO.N,/row1*
X226060000Y-88592000D03*
G04 #@! TD*
G04 #@! TO.P,K18,1*
G04 #@! TO.N,/row1*
X233680000Y-88592000D03*
G04 #@! TO.P,K18,2*
G04 #@! TO.N,/col7*
X228600000Y-94288000D03*
G04 #@! TO.P,K18,*
G04 #@! TO.N,*
X228600000Y-88592000D03*
X233680000Y-94288000D03*
G04 #@! TD*
G04 #@! TO.P,K19,1*
G04 #@! TO.N,/row1*
X241300000Y-88592000D03*
G04 #@! TO.P,K19,2*
G04 #@! TO.N,/col8*
X236220000Y-94288000D03*
G04 #@! TO.P,K19,*
G04 #@! TO.N,*
X236220000Y-88592000D03*
X241300000Y-94288000D03*
G04 #@! TD*
G04 #@! TO.P,K20,1*
G04 #@! TO.N,/row1*
X248920000Y-88592000D03*
G04 #@! TO.P,K20,2*
G04 #@! TO.N,/col9*
X243840000Y-94288000D03*
G04 #@! TO.P,K20,*
G04 #@! TO.N,*
X243840000Y-88592000D03*
X248920000Y-94288000D03*
G04 #@! TD*
G04 #@! TO.P,K21,*
G04 #@! TO.N,*
X180340000Y-101908000D03*
X175260000Y-96212000D03*
G04 #@! TO.P,K21,2*
G04 #@! TO.N,/col0*
X175260000Y-101908000D03*
G04 #@! TO.P,K21,1*
G04 #@! TO.N,/row2*
X180340000Y-96212000D03*
G04 #@! TD*
G04 #@! TO.P,K22,*
G04 #@! TO.N,*
X187960000Y-101908000D03*
X182880000Y-96212000D03*
G04 #@! TO.P,K22,2*
G04 #@! TO.N,/col1*
X182880000Y-101908000D03*
G04 #@! TO.P,K22,1*
G04 #@! TO.N,/row2*
X187960000Y-96212000D03*
G04 #@! TD*
G04 #@! TO.P,K23,*
G04 #@! TO.N,*
X195580000Y-101908000D03*
X190500000Y-96212000D03*
G04 #@! TO.P,K23,2*
G04 #@! TO.N,/col2*
X190500000Y-101908000D03*
G04 #@! TO.P,K23,1*
G04 #@! TO.N,/row2*
X195580000Y-96212000D03*
G04 #@! TD*
G04 #@! TO.P,K24,*
G04 #@! TO.N,*
X203200000Y-101908000D03*
X198120000Y-96212000D03*
G04 #@! TO.P,K24,2*
G04 #@! TO.N,/col3*
X198120000Y-101908000D03*
G04 #@! TO.P,K24,1*
G04 #@! TO.N,/row2*
X203200000Y-96212000D03*
G04 #@! TD*
G04 #@! TO.P,K25,*
G04 #@! TO.N,*
X210820000Y-101908000D03*
X205740000Y-96212000D03*
G04 #@! TO.P,K25,2*
G04 #@! TO.N,/col4*
X205740000Y-101908000D03*
G04 #@! TO.P,K25,1*
G04 #@! TO.N,/row2*
X210820000Y-96212000D03*
G04 #@! TD*
G04 #@! TO.P,K26,*
G04 #@! TO.N,*
X218440000Y-101908000D03*
X213360000Y-96212000D03*
G04 #@! TO.P,K26,2*
G04 #@! TO.N,/col5*
X213360000Y-101908000D03*
G04 #@! TO.P,K26,1*
G04 #@! TO.N,/row2*
X218440000Y-96212000D03*
G04 #@! TD*
G04 #@! TO.P,K27,*
G04 #@! TO.N,*
X226060000Y-101908000D03*
X220980000Y-96212000D03*
G04 #@! TO.P,K27,2*
G04 #@! TO.N,/col6*
X220980000Y-101908000D03*
G04 #@! TO.P,K27,1*
G04 #@! TO.N,/row2*
X226060000Y-96212000D03*
G04 #@! TD*
G04 #@! TO.P,K28,1*
G04 #@! TO.N,/row2*
X233680000Y-96212000D03*
G04 #@! TO.P,K28,2*
G04 #@! TO.N,/col7*
X228600000Y-101908000D03*
G04 #@! TO.P,K28,*
G04 #@! TO.N,*
X228600000Y-96212000D03*
X233680000Y-101908000D03*
G04 #@! TD*
G04 #@! TO.P,K29,1*
G04 #@! TO.N,/row2*
X241300000Y-96212000D03*
G04 #@! TO.P,K29,2*
G04 #@! TO.N,/col8*
X236220000Y-101908000D03*
G04 #@! TO.P,K29,*
G04 #@! TO.N,*
X236220000Y-96212000D03*
X241300000Y-101908000D03*
G04 #@! TD*
G04 #@! TO.P,K30,1*
G04 #@! TO.N,/row2*
X248920000Y-96212000D03*
G04 #@! TO.P,K30,2*
G04 #@! TO.N,/col9*
X243840000Y-101908000D03*
G04 #@! TO.P,K30,*
G04 #@! TO.N,*
X243840000Y-96212000D03*
X248920000Y-101908000D03*
G04 #@! TD*
G04 #@! TO.P,K31,*
G04 #@! TO.N,*
X180340000Y-109528000D03*
X175260000Y-103832000D03*
G04 #@! TO.P,K31,2*
G04 #@! TO.N,/col0*
X175260000Y-109528000D03*
G04 #@! TO.P,K31,1*
G04 #@! TO.N,/row3*
X180340000Y-103832000D03*
G04 #@! TD*
G04 #@! TO.P,K32,*
G04 #@! TO.N,*
X187960000Y-109528000D03*
X182880000Y-103832000D03*
G04 #@! TO.P,K32,2*
G04 #@! TO.N,/col1*
X182880000Y-109528000D03*
G04 #@! TO.P,K32,1*
G04 #@! TO.N,/row3*
X187960000Y-103832000D03*
G04 #@! TD*
G04 #@! TO.P,K33,*
G04 #@! TO.N,*
X195580000Y-109528000D03*
X190500000Y-103832000D03*
G04 #@! TO.P,K33,2*
G04 #@! TO.N,/col2*
X190500000Y-109528000D03*
G04 #@! TO.P,K33,1*
G04 #@! TO.N,/row3*
X195580000Y-103832000D03*
G04 #@! TD*
G04 #@! TO.P,K35,*
G04 #@! TO.N,*
X210820000Y-109528000D03*
X205740000Y-103832000D03*
G04 #@! TO.P,K35,2*
G04 #@! TO.N,/col4*
X205740000Y-109528000D03*
G04 #@! TO.P,K35,1*
G04 #@! TO.N,/row3*
X210820000Y-103832000D03*
G04 #@! TD*
G04 #@! TO.P,K36,*
G04 #@! TO.N,*
X218440000Y-109528000D03*
X213360000Y-103832000D03*
G04 #@! TO.P,K36,2*
G04 #@! TO.N,/col5*
X213360000Y-109528000D03*
G04 #@! TO.P,K36,1*
G04 #@! TO.N,/row3*
X218440000Y-103832000D03*
G04 #@! TD*
G04 #@! TO.P,K38,1*
G04 #@! TO.N,/row3*
X233680000Y-103832000D03*
G04 #@! TO.P,K38,2*
G04 #@! TO.N,/col7*
X228600000Y-109528000D03*
G04 #@! TO.P,K38,*
G04 #@! TO.N,*
X228600000Y-103832000D03*
X233680000Y-109528000D03*
G04 #@! TD*
G04 #@! TO.P,K39,1*
G04 #@! TO.N,/row3*
X241300000Y-103832000D03*
G04 #@! TO.P,K39,2*
G04 #@! TO.N,/col8*
X236220000Y-109528000D03*
G04 #@! TO.P,K39,*
G04 #@! TO.N,*
X236220000Y-103832000D03*
X241300000Y-109528000D03*
G04 #@! TD*
G04 #@! TO.P,K40,1*
G04 #@! TO.N,/row3*
X248920000Y-103832000D03*
G04 #@! TO.P,K40,2*
G04 #@! TO.N,/col9*
X243840000Y-109528000D03*
G04 #@! TO.P,K40,*
G04 #@! TO.N,*
X243840000Y-103832000D03*
X248920000Y-109528000D03*
G04 #@! TD*
D21*
G04 #@! TO.P,R36,1*
G04 #@! TO.N,/3.3v*
X234029620Y-75850380D03*
D11*
G04 #@! TD*
G04 #@! TO.N,/3.3v*
G04 #@! TO.C,R36*
G36*
X233710821Y-77158803D02*
X232721197Y-76169179D01*
X234348419Y-74541957D01*
X235338043Y-75531581D01*
X233710821Y-77158803D01*
X233710821Y-77158803D01*
G37*
D21*
G04 #@! TO.P,R36,2*
G04 #@! TO.N,/col9*
X237140380Y-72739620D03*
D11*
G04 #@! TD*
G04 #@! TO.N,/col9*
G04 #@! TO.C,R36*
G36*
X236821581Y-74048043D02*
X235831957Y-73058419D01*
X237459179Y-71431197D01*
X238448803Y-72420821D01*
X236821581Y-74048043D01*
X236821581Y-74048043D01*
G37*
D22*
G04 #@! TO.P,R36,1*
G04 #@! TO.N,/3.3v*
X232048575Y-77831425D03*
D11*
G04 #@! TD*
G04 #@! TO.N,/3.3v*
G04 #@! TO.C,R36*
G36*
X232048575Y-79244917D02*
X230635083Y-77831425D01*
X232048575Y-76417933D01*
X233462067Y-77831425D01*
X232048575Y-79244917D01*
X232048575Y-79244917D01*
G37*
D22*
G04 #@! TO.P,R36,2*
G04 #@! TO.N,/col9*
X239121425Y-70758575D03*
D11*
G04 #@! TD*
G04 #@! TO.N,/col9*
G04 #@! TO.C,R36*
G36*
X239121425Y-72172067D02*
X237707933Y-70758575D01*
X239121425Y-69345083D01*
X240534917Y-70758575D01*
X239121425Y-72172067D01*
X239121425Y-72172067D01*
G37*
D21*
G04 #@! TO.P,R37,1*
G04 #@! TO.N,/3.3v*
X238474620Y-75850380D03*
D11*
G04 #@! TD*
G04 #@! TO.N,/3.3v*
G04 #@! TO.C,R37*
G36*
X238155821Y-77158803D02*
X237166197Y-76169179D01*
X238793419Y-74541957D01*
X239783043Y-75531581D01*
X238155821Y-77158803D01*
X238155821Y-77158803D01*
G37*
D21*
G04 #@! TO.P,R37,2*
G04 #@! TO.N,/col3*
X241585380Y-72739620D03*
D11*
G04 #@! TD*
G04 #@! TO.N,/col3*
G04 #@! TO.C,R37*
G36*
X241266581Y-74048043D02*
X240276957Y-73058419D01*
X241904179Y-71431197D01*
X242893803Y-72420821D01*
X241266581Y-74048043D01*
X241266581Y-74048043D01*
G37*
D22*
G04 #@! TO.P,R37,1*
G04 #@! TO.N,/3.3v*
X236493575Y-77831425D03*
D11*
G04 #@! TD*
G04 #@! TO.N,/3.3v*
G04 #@! TO.C,R37*
G36*
X236493575Y-79244917D02*
X235080083Y-77831425D01*
X236493575Y-76417933D01*
X237907067Y-77831425D01*
X236493575Y-79244917D01*
X236493575Y-79244917D01*
G37*
D22*
G04 #@! TO.P,R37,2*
G04 #@! TO.N,/col3*
X243566425Y-70758575D03*
D11*
G04 #@! TD*
G04 #@! TO.N,/col3*
G04 #@! TO.C,R37*
G36*
X243566425Y-72172067D02*
X242152933Y-70758575D01*
X243566425Y-69345083D01*
X244979917Y-70758575D01*
X243566425Y-72172067D01*
X243566425Y-72172067D01*
G37*
D21*
G04 #@! TO.P,R38,1*
G04 #@! TO.N,/3.3v*
X242919620Y-75850380D03*
D11*
G04 #@! TD*
G04 #@! TO.N,/3.3v*
G04 #@! TO.C,R38*
G36*
X242600821Y-77158803D02*
X241611197Y-76169179D01*
X243238419Y-74541957D01*
X244228043Y-75531581D01*
X242600821Y-77158803D01*
X242600821Y-77158803D01*
G37*
D21*
G04 #@! TO.P,R38,2*
G04 #@! TO.N,/col4*
X246030380Y-72739620D03*
D11*
G04 #@! TD*
G04 #@! TO.N,/col4*
G04 #@! TO.C,R38*
G36*
X245711581Y-74048043D02*
X244721957Y-73058419D01*
X246349179Y-71431197D01*
X247338803Y-72420821D01*
X245711581Y-74048043D01*
X245711581Y-74048043D01*
G37*
D22*
G04 #@! TO.P,R38,1*
G04 #@! TO.N,/3.3v*
X240938575Y-77831425D03*
D11*
G04 #@! TD*
G04 #@! TO.N,/3.3v*
G04 #@! TO.C,R38*
G36*
X240938575Y-79244917D02*
X239525083Y-77831425D01*
X240938575Y-76417933D01*
X242352067Y-77831425D01*
X240938575Y-79244917D01*
X240938575Y-79244917D01*
G37*
D22*
G04 #@! TO.P,R38,2*
G04 #@! TO.N,/col4*
X248011425Y-70758575D03*
D11*
G04 #@! TD*
G04 #@! TO.N,/col4*
G04 #@! TO.C,R38*
G36*
X248011425Y-72172067D02*
X246597933Y-70758575D01*
X248011425Y-69345083D01*
X249424917Y-70758575D01*
X248011425Y-72172067D01*
X248011425Y-72172067D01*
G37*
D23*
G04 #@! TO.P,R1,1*
G04 #@! TO.N,/3.3v*
X204851000Y-71476000D03*
G04 #@! TO.P,R1,2*
G04 #@! TO.N,/SCL*
X204851000Y-65176000D03*
G04 #@! TD*
G04 #@! TO.P,R2,1*
G04 #@! TO.N,/3.3v*
X217297000Y-71476000D03*
G04 #@! TO.P,R2,2*
G04 #@! TO.N,/SDA*
X217297000Y-65176000D03*
G04 #@! TD*
D24*
G04 #@! TO.P,P2,2*
G04 #@! TO.N,/GND*
X208280000Y-83947000D03*
D25*
G04 #@! TO.P,P2,1*
G04 #@! TO.N,/3.3v*
X205740000Y-83947000D03*
G04 #@! TO.P,P2,3*
G04 #@! TO.N,/SDA*
X210820000Y-83947000D03*
G04 #@! TO.P,P2,4*
G04 #@! TO.N,/SCL*
X213360000Y-83947000D03*
G04 #@! TD*
D26*
G04 #@! TO.N,/col0*
X218948000Y-105664000D03*
G04 #@! TO.N,/col1*
X218313000Y-92075000D03*
G04 #@! TO.N,/col2*
X210947000Y-92964000D03*
G04 #@! TO.N,/col4*
X200152000Y-83820000D03*
G04 #@! TO.N,/col9*
X194310000Y-63119000D03*
G04 #@! TO.N,/SCL*
X204724000Y-65405000D03*
G04 #@! TO.N,/SDA*
X217297000Y-65278000D03*
X220980000Y-83820000D03*
G04 #@! TO.N,/3.3v*
X232156000Y-69342000D03*
G04 #@! TD*
D27*
G04 #@! TO.N,/col0*
X175260000Y-86868000D02*
X176911000Y-86868000D01*
X178689000Y-91059000D02*
X175260000Y-94488000D01*
X178689000Y-88646000D02*
X178689000Y-91059000D01*
X176911000Y-86868000D02*
X178689000Y-88646000D01*
X175260000Y-102108000D02*
X175387000Y-102108000D01*
X175387000Y-102108000D02*
X178943000Y-105664000D01*
X178943000Y-105664000D02*
X218948000Y-105664000D01*
G04 #@! TO.N,/row0*
X226060000Y-80772000D02*
X227203000Y-79629000D01*
X232537000Y-80772000D02*
X233680000Y-80772000D01*
X231394000Y-79629000D02*
X232537000Y-80772000D01*
X227203000Y-79629000D02*
X231394000Y-79629000D01*
X218440000Y-80772000D02*
X218440000Y-80518000D01*
X218440000Y-80518000D02*
X219329000Y-79629000D01*
X224917000Y-79629000D02*
X226060000Y-80772000D01*
X219329000Y-79629000D02*
X224917000Y-79629000D01*
X210820000Y-80772000D02*
X212090000Y-79502000D01*
X217170000Y-79502000D02*
X218440000Y-80772000D01*
X212090000Y-79502000D02*
X217170000Y-79502000D01*
X203835000Y-77470000D02*
X205232000Y-78867000D01*
X208788000Y-78867000D02*
X210693000Y-80772000D01*
X205232000Y-78867000D02*
X208788000Y-78867000D01*
X210693000Y-80772000D02*
X210820000Y-80772000D01*
X203200000Y-80772000D02*
X203200000Y-78105000D01*
X203200000Y-78105000D02*
X203835000Y-77470000D01*
X195580000Y-80772000D02*
X195580000Y-80780000D01*
X195580000Y-80780000D02*
X197053000Y-82253000D01*
X197053000Y-82253000D02*
X201719000Y-82253000D01*
X201719000Y-82253000D02*
X203200000Y-80772000D01*
X203200000Y-81280000D02*
X203200000Y-81026000D01*
X240284000Y-79756000D02*
X241300000Y-80772000D01*
X233680000Y-80772000D02*
X234696000Y-79756000D01*
X234696000Y-79756000D02*
X240284000Y-79756000D01*
G04 #@! TO.N,/col1*
X182880000Y-94488000D02*
X185039000Y-94488000D01*
X187452000Y-92075000D02*
X218313000Y-92075000D01*
X185039000Y-94488000D02*
X187452000Y-92075000D01*
X182880000Y-86487000D02*
X182880000Y-86868000D01*
G04 #@! TO.N,/col2*
X190500000Y-94488000D02*
X191135000Y-94488000D01*
X191135000Y-94488000D02*
X192659000Y-92964000D01*
X192659000Y-92964000D02*
X210947000Y-92964000D01*
X190500000Y-86868000D02*
X190500000Y-86360000D01*
G04 #@! TO.N,/col3*
X241585380Y-72739620D02*
X243566425Y-70758575D01*
X195961000Y-56896000D02*
X193675000Y-54610000D01*
X242062000Y-56896000D02*
X195961000Y-56896000D01*
X243566425Y-70758575D02*
X243566425Y-58400425D01*
X243566425Y-58400425D02*
X242062000Y-56896000D01*
G04 #@! TO.N,/col4*
X205740000Y-86868000D02*
X202819000Y-83947000D01*
X202819000Y-83947000D02*
X200279000Y-83947000D01*
X200279000Y-83947000D02*
X200152000Y-83820000D01*
X246030380Y-72739620D02*
X248011425Y-70758575D01*
X244348000Y-68834000D02*
X246272575Y-70758575D01*
X242189000Y-56134000D02*
X244348000Y-58293000D01*
X196215000Y-54610000D02*
X197739000Y-56134000D01*
X246272575Y-70758575D02*
X248011425Y-70758575D01*
X244348000Y-58293000D02*
X244348000Y-68834000D01*
X197739000Y-56134000D02*
X242189000Y-56134000D01*
G04 #@! TO.N,/col9*
X236620575Y-70758575D02*
X239121425Y-70758575D01*
X228981000Y-63119000D02*
X194310000Y-63119000D01*
X236620575Y-70758575D02*
X228981000Y-63119000D01*
X243840000Y-94488000D02*
X244475000Y-94488000D01*
X244475000Y-94488000D02*
X245491000Y-95504000D01*
X245491000Y-95504000D02*
X245491000Y-100457000D01*
X245491000Y-100457000D02*
X243840000Y-102108000D01*
X237140380Y-72739620D02*
X239121425Y-70758575D01*
G04 #@! TO.N,/row1*
X241300000Y-89154000D02*
X239268000Y-91186000D01*
X235966000Y-91186000D02*
X233680000Y-88900000D01*
X239268000Y-91186000D02*
X235966000Y-91186000D01*
X197612000Y-91440000D02*
X207772000Y-91440000D01*
X197612000Y-91440000D02*
X195580000Y-89408000D01*
X195580000Y-88900000D02*
X195580000Y-89408000D01*
X207772000Y-91440000D02*
X210820000Y-88392000D01*
X216154000Y-91186000D02*
X213614000Y-91186000D01*
X213614000Y-91186000D02*
X210820000Y-88392000D01*
X218440000Y-88900000D02*
X216154000Y-91186000D01*
X248920000Y-88900000D02*
X248666000Y-88900000D01*
X248666000Y-88900000D02*
X246380000Y-91186000D01*
X246380000Y-91186000D02*
X243586000Y-91186000D01*
X243586000Y-91186000D02*
X241300000Y-88900000D01*
X241300000Y-88900000D02*
X241300000Y-89154000D01*
X233680000Y-88900000D02*
X231394000Y-91186000D01*
X231394000Y-91186000D02*
X227330000Y-91186000D01*
X227330000Y-91186000D02*
X226060000Y-89916000D01*
X226060000Y-89916000D02*
X226060000Y-88900000D01*
X226060000Y-88900000D02*
X223774000Y-91186000D01*
X223774000Y-91186000D02*
X220218000Y-91186000D01*
X220218000Y-91186000D02*
X218440000Y-89408000D01*
X218440000Y-89408000D02*
X218440000Y-88900000D01*
X195580000Y-88900000D02*
X194056000Y-90424000D01*
X194056000Y-90424000D02*
X193548000Y-90424000D01*
X193548000Y-90424000D02*
X192786000Y-91186000D01*
X192786000Y-91186000D02*
X190246000Y-91186000D01*
X190246000Y-91186000D02*
X187960000Y-88900000D01*
X187960000Y-88900000D02*
X187706000Y-88900000D01*
X187706000Y-88900000D02*
X186182000Y-90424000D01*
X186182000Y-90424000D02*
X181864000Y-90424000D01*
X181864000Y-90424000D02*
X180340000Y-88900000D01*
G04 #@! TO.N,/row2*
X180340000Y-96520000D02*
X180340000Y-96774000D01*
X180340000Y-96774000D02*
X181864000Y-98298000D01*
X181864000Y-98298000D02*
X186182000Y-98298000D01*
X186182000Y-98298000D02*
X187960000Y-96520000D01*
X187960000Y-96520000D02*
X189992000Y-98552000D01*
X189992000Y-98552000D02*
X193548000Y-98552000D01*
X193548000Y-98552000D02*
X195580000Y-96520000D01*
X195580000Y-96520000D02*
X196088000Y-96520000D01*
X196088000Y-96520000D02*
X197612000Y-98044000D01*
X197612000Y-98044000D02*
X201676000Y-98044000D01*
X201676000Y-98044000D02*
X203200000Y-96520000D01*
X203200000Y-96520000D02*
X203708000Y-96520000D01*
X203708000Y-96520000D02*
X205232000Y-98044000D01*
X205232000Y-98044000D02*
X209296000Y-98044000D01*
X209296000Y-98044000D02*
X210820000Y-96520000D01*
X241300000Y-96520000D02*
X241300000Y-97282000D01*
X241300000Y-97282000D02*
X239776000Y-98806000D01*
X239776000Y-98806000D02*
X235966000Y-98806000D01*
X235966000Y-98806000D02*
X233680000Y-96520000D01*
X233680000Y-96520000D02*
X233680000Y-96774000D01*
X233680000Y-96774000D02*
X231648000Y-98806000D01*
X231648000Y-98806000D02*
X228346000Y-98806000D01*
X228346000Y-98806000D02*
X226060000Y-96520000D01*
X226060000Y-96520000D02*
X223774000Y-98806000D01*
X223774000Y-98806000D02*
X220472000Y-98806000D01*
X220472000Y-98806000D02*
X218440000Y-96774000D01*
X218440000Y-96774000D02*
X218440000Y-96520000D01*
X218440000Y-96520000D02*
X216408000Y-98552000D01*
X216408000Y-98552000D02*
X211836000Y-98552000D01*
X211836000Y-98552000D02*
X210820000Y-97536000D01*
X210820000Y-97536000D02*
X210820000Y-96520000D01*
G04 #@! TO.N,/row3*
X208915000Y-77470000D02*
X210185000Y-78740000D01*
X229235000Y-73025000D02*
X231140000Y-71120000D01*
X229235000Y-77470000D02*
X229235000Y-73025000D01*
X227965000Y-78740000D02*
X229235000Y-77470000D01*
X210185000Y-78740000D02*
X227965000Y-78740000D01*
X233680000Y-104140000D02*
X235458000Y-105918000D01*
X239522000Y-105918000D02*
X241300000Y-104140000D01*
X235458000Y-105918000D02*
X239522000Y-105918000D01*
X219329000Y-105029000D02*
X232791000Y-105029000D01*
X218440000Y-104140000D02*
X219329000Y-105029000D01*
X232791000Y-105029000D02*
X233680000Y-104140000D01*
X180340000Y-104140000D02*
X180340000Y-103505000D01*
X187071000Y-105029000D02*
X187960000Y-104140000D01*
X181864000Y-105029000D02*
X187071000Y-105029000D01*
X180340000Y-103505000D02*
X181864000Y-105029000D01*
X187960000Y-104140000D02*
X187960000Y-103505000D01*
X187960000Y-103505000D02*
X189484000Y-105029000D01*
X189484000Y-105029000D02*
X194691000Y-105029000D01*
X194691000Y-105029000D02*
X195580000Y-104140000D01*
X195580000Y-104140000D02*
X196469000Y-105029000D01*
X196469000Y-105029000D02*
X209931000Y-105029000D01*
X209931000Y-105029000D02*
X210820000Y-104140000D01*
X210820000Y-104140000D02*
X210820000Y-104394000D01*
X210820000Y-104394000D02*
X211455000Y-105029000D01*
X211455000Y-105029000D02*
X217551000Y-105029000D01*
X217551000Y-105029000D02*
X218440000Y-104140000D01*
X241300000Y-104140000D02*
X241808000Y-104140000D01*
X241808000Y-104140000D02*
X243332000Y-105664000D01*
X243332000Y-105664000D02*
X247396000Y-105664000D01*
X247396000Y-105664000D02*
X248920000Y-104140000D01*
G04 #@! TO.N,/SCL*
X204724000Y-65405000D02*
X204851000Y-65278000D01*
X204851000Y-65278000D02*
X204851000Y-65176000D01*
G04 #@! TO.N,/SDA*
X217297000Y-65278000D02*
X217297000Y-65176000D01*
X219400000Y-85400000D02*
X220980000Y-83820000D01*
X212654000Y-85400000D02*
X219400000Y-85400000D01*
X210820000Y-83947000D02*
X210820000Y-83566000D01*
X210820000Y-83566000D02*
X212654000Y-85400000D01*
G04 #@! TO.N,/3.3v*
X205359000Y-83947000D02*
X204343000Y-82931000D01*
X205740000Y-83947000D02*
X205359000Y-83947000D01*
X204343000Y-82931000D02*
X195453000Y-82931000D01*
X190373000Y-79248000D02*
X188595000Y-77470000D01*
X191770000Y-79248000D02*
X190373000Y-79248000D01*
X195453000Y-82931000D02*
X191770000Y-79248000D01*
X240938575Y-77831425D02*
X240938575Y-77743575D01*
X242919620Y-75850380D02*
X240938575Y-77831425D01*
X234029620Y-75850380D02*
X232048575Y-77831425D01*
X238474620Y-75850380D02*
X236493575Y-77831425D01*
X204851000Y-71476000D02*
X217297000Y-71476000D01*
X188987370Y-76000000D02*
X200800000Y-76000000D01*
X204851000Y-71949000D02*
X204851000Y-71476000D01*
X188595000Y-77470000D02*
X188595000Y-76392370D01*
X200800000Y-76000000D02*
X204851000Y-71949000D01*
X188595000Y-76392370D02*
X188987370Y-76000000D01*
X240161119Y-77053969D02*
X240938575Y-77831425D01*
X217347000Y-71476000D02*
X217297000Y-71476000D01*
X232156000Y-69342000D02*
X219481000Y-69342000D01*
X219481000Y-69342000D02*
X217347000Y-71476000D01*
X240938575Y-77831425D02*
X236493575Y-77831425D01*
X236493575Y-77831425D02*
X232048575Y-77831425D01*
G04 #@! TO.N,/RX*
X193675000Y-77470000D02*
X193675000Y-77724000D01*
G04 #@! TD*
D28*
G04 #@! TO.N,/GND*
G36*
X243538382Y-53992235D02*
X245292671Y-55161761D01*
X246463243Y-56332334D01*
X247601273Y-58039380D01*
X248847407Y-68008466D01*
X248919925Y-69337965D01*
X248469234Y-68887274D01*
X248259190Y-68746926D01*
X248011425Y-68697643D01*
X247763660Y-68746926D01*
X247553616Y-68887274D01*
X246514846Y-69926044D01*
X245108000Y-68519199D01*
X245108000Y-58367846D01*
X245122888Y-58292999D01*
X245108000Y-58218152D01*
X245108000Y-58218148D01*
X245063904Y-57996463D01*
X244895929Y-57745071D01*
X244832473Y-57702671D01*
X242779331Y-55649530D01*
X242736929Y-55586071D01*
X242485537Y-55418096D01*
X242263852Y-55374000D01*
X242263847Y-55374000D01*
X242189000Y-55359112D01*
X242114153Y-55374000D01*
X227890643Y-55374000D01*
X228092000Y-54887881D01*
X228092000Y-54332119D01*
X227879320Y-53818663D01*
X227486337Y-53425680D01*
X226972881Y-53213000D01*
X226417119Y-53213000D01*
X225903663Y-53425680D01*
X225510680Y-53818663D01*
X225425000Y-54025513D01*
X225339320Y-53818663D01*
X224946337Y-53425680D01*
X224432881Y-53213000D01*
X223877119Y-53213000D01*
X223363663Y-53425680D01*
X222970680Y-53818663D01*
X222885000Y-54025513D01*
X222799320Y-53818663D01*
X222406337Y-53425680D01*
X221892881Y-53213000D01*
X221337119Y-53213000D01*
X220823663Y-53425680D01*
X220430680Y-53818663D01*
X220345000Y-54025513D01*
X220259320Y-53818663D01*
X219866337Y-53425680D01*
X219352881Y-53213000D01*
X218797119Y-53213000D01*
X218283663Y-53425680D01*
X217890680Y-53818663D01*
X217805000Y-54025513D01*
X217719320Y-53818663D01*
X217326337Y-53425680D01*
X216812881Y-53213000D01*
X216257119Y-53213000D01*
X215743663Y-53425680D01*
X215350680Y-53818663D01*
X215265000Y-54025513D01*
X215179320Y-53818663D01*
X214786337Y-53425680D01*
X214272881Y-53213000D01*
X213717119Y-53213000D01*
X213203663Y-53425680D01*
X212810680Y-53818663D01*
X212725000Y-54025513D01*
X212639320Y-53818663D01*
X212246337Y-53425680D01*
X211732881Y-53213000D01*
X211177119Y-53213000D01*
X210663663Y-53425680D01*
X210270680Y-53818663D01*
X210185000Y-54025513D01*
X210099320Y-53818663D01*
X209706337Y-53425680D01*
X209192881Y-53213000D01*
X208637119Y-53213000D01*
X208123663Y-53425680D01*
X207730680Y-53818663D01*
X207645000Y-54025513D01*
X207559320Y-53818663D01*
X207166337Y-53425680D01*
X206652881Y-53213000D01*
X206097119Y-53213000D01*
X205583663Y-53425680D01*
X205190680Y-53818663D01*
X205105000Y-54025513D01*
X205019320Y-53818663D01*
X204626337Y-53425680D01*
X204112881Y-53213000D01*
X203557119Y-53213000D01*
X203043663Y-53425680D01*
X202650680Y-53818663D01*
X202565000Y-54025513D01*
X202479320Y-53818663D01*
X202086337Y-53425680D01*
X201572881Y-53213000D01*
X201017119Y-53213000D01*
X200503663Y-53425680D01*
X200110680Y-53818663D01*
X200025000Y-54025513D01*
X199939320Y-53818663D01*
X199546337Y-53425680D01*
X199032881Y-53213000D01*
X198477119Y-53213000D01*
X197963663Y-53425680D01*
X197570680Y-53818663D01*
X197485000Y-54025513D01*
X197399320Y-53818663D01*
X197006337Y-53425680D01*
X196492881Y-53213000D01*
X195937119Y-53213000D01*
X195423663Y-53425680D01*
X195030680Y-53818663D01*
X194945000Y-54025513D01*
X194859320Y-53818663D01*
X194466337Y-53425680D01*
X193952881Y-53213000D01*
X193397119Y-53213000D01*
X192883663Y-53425680D01*
X192490680Y-53818663D01*
X192405000Y-54025513D01*
X192319320Y-53818663D01*
X191926337Y-53425680D01*
X191412881Y-53213000D01*
X190857119Y-53213000D01*
X190343663Y-53425680D01*
X189950680Y-53818663D01*
X189865000Y-54025513D01*
X189779320Y-53818663D01*
X189386337Y-53425680D01*
X188872881Y-53213000D01*
X188317119Y-53213000D01*
X187803663Y-53425680D01*
X187410680Y-53818663D01*
X187325000Y-54025513D01*
X187239320Y-53818663D01*
X186846337Y-53425680D01*
X186332881Y-53213000D01*
X185777119Y-53213000D01*
X185263663Y-53425680D01*
X184870680Y-53818663D01*
X184791572Y-54009647D01*
X184737397Y-53878857D01*
X184495213Y-53809392D01*
X183694605Y-54610000D01*
X184495213Y-55410608D01*
X184737397Y-55341143D01*
X184787535Y-55200607D01*
X184870680Y-55401337D01*
X185263663Y-55794320D01*
X185777119Y-56007000D01*
X186332881Y-56007000D01*
X186846337Y-55794320D01*
X187239320Y-55401337D01*
X187325000Y-55194487D01*
X187410680Y-55401337D01*
X187803663Y-55794320D01*
X188317119Y-56007000D01*
X188872881Y-56007000D01*
X189386337Y-55794320D01*
X189779320Y-55401337D01*
X189865000Y-55194487D01*
X189950680Y-55401337D01*
X190343663Y-55794320D01*
X190857119Y-56007000D01*
X191412881Y-56007000D01*
X191926337Y-55794320D01*
X192319320Y-55401337D01*
X192405000Y-55194487D01*
X192490680Y-55401337D01*
X192883663Y-55794320D01*
X193397119Y-56007000D01*
X193952881Y-56007000D01*
X193984218Y-55994020D01*
X195370670Y-57380472D01*
X195413071Y-57443929D01*
X195664463Y-57611904D01*
X195886148Y-57656000D01*
X195886152Y-57656000D01*
X195960999Y-57670888D01*
X196035846Y-57656000D01*
X240349285Y-57656000D01*
X240027282Y-57789378D01*
X239497112Y-58319548D01*
X239210187Y-59012247D01*
X239210187Y-59762019D01*
X239497112Y-60454718D01*
X240027282Y-60984888D01*
X240719981Y-61271813D01*
X241469753Y-61271813D01*
X242162452Y-60984888D01*
X242692622Y-60454718D01*
X242806426Y-60179971D01*
X242806425Y-69189465D01*
X241695124Y-70300766D01*
X241554776Y-70510810D01*
X241505493Y-70758575D01*
X241536273Y-70913316D01*
X241446370Y-70973388D01*
X239819148Y-72600610D01*
X239678800Y-72810654D01*
X239629517Y-73058419D01*
X239678800Y-73306184D01*
X239819148Y-73516228D01*
X240808772Y-74505852D01*
X241018816Y-74646200D01*
X241266581Y-74695483D01*
X241514346Y-74646200D01*
X241724390Y-74505852D01*
X243351612Y-72878630D01*
X243411684Y-72788727D01*
X243566425Y-72819507D01*
X243814190Y-72770224D01*
X244024234Y-72629876D01*
X245437726Y-71216384D01*
X245524987Y-71085789D01*
X245651978Y-71212780D01*
X244264148Y-72600610D01*
X244123800Y-72810654D01*
X244074517Y-73058419D01*
X244123800Y-73306184D01*
X244264148Y-73516228D01*
X245253772Y-74505852D01*
X245463816Y-74646200D01*
X245711581Y-74695483D01*
X245959346Y-74646200D01*
X246169390Y-74505852D01*
X247796612Y-72878630D01*
X247856684Y-72788727D01*
X248011425Y-72819507D01*
X248259190Y-72770224D01*
X248469234Y-72629876D01*
X249066885Y-72032225D01*
X249484214Y-79683271D01*
X249460400Y-79667359D01*
X249056407Y-79587000D01*
X248783593Y-79587000D01*
X248379600Y-79667359D01*
X247921471Y-79973471D01*
X247615359Y-80431600D01*
X247507867Y-80972000D01*
X247615359Y-81512400D01*
X247921471Y-81970529D01*
X248379600Y-82276641D01*
X248783593Y-82357000D01*
X249056407Y-82357000D01*
X249460400Y-82276641D01*
X249619859Y-82170094D01*
X249806657Y-85594720D01*
X249460400Y-85363359D01*
X249056407Y-85283000D01*
X248783593Y-85283000D01*
X248379600Y-85363359D01*
X247921471Y-85669471D01*
X247615359Y-86127600D01*
X247507867Y-86668000D01*
X247615359Y-87208400D01*
X247897063Y-87630000D01*
X247615359Y-88051600D01*
X247507867Y-88592000D01*
X247572793Y-88918405D01*
X246065199Y-90426000D01*
X243900802Y-90426000D01*
X243389281Y-89914480D01*
X243703593Y-89977000D01*
X243976407Y-89977000D01*
X244380400Y-89896641D01*
X244838529Y-89590529D01*
X245144641Y-89132400D01*
X245252133Y-88592000D01*
X245144641Y-88051600D01*
X244862937Y-87630000D01*
X245144641Y-87208400D01*
X245252133Y-86668000D01*
X245144641Y-86127600D01*
X244838529Y-85669471D01*
X244380400Y-85363359D01*
X243976407Y-85283000D01*
X243703593Y-85283000D01*
X243299600Y-85363359D01*
X242841471Y-85669471D01*
X242570000Y-86075756D01*
X242298529Y-85669471D01*
X241840400Y-85363359D01*
X241436407Y-85283000D01*
X241163593Y-85283000D01*
X240759600Y-85363359D01*
X240301471Y-85669471D01*
X239995359Y-86127600D01*
X239887867Y-86668000D01*
X239995359Y-87208400D01*
X240277063Y-87630000D01*
X239995359Y-88051600D01*
X239887867Y-88592000D01*
X239995359Y-89132400D01*
X240096071Y-89283127D01*
X238953199Y-90426000D01*
X236280802Y-90426000D01*
X235769281Y-89914480D01*
X236083593Y-89977000D01*
X236356407Y-89977000D01*
X236760400Y-89896641D01*
X237218529Y-89590529D01*
X237524641Y-89132400D01*
X237632133Y-88592000D01*
X237524641Y-88051600D01*
X237242937Y-87630000D01*
X237524641Y-87208400D01*
X237632133Y-86668000D01*
X237524641Y-86127600D01*
X237218529Y-85669471D01*
X236760400Y-85363359D01*
X236356407Y-85283000D01*
X236083593Y-85283000D01*
X235679600Y-85363359D01*
X235221471Y-85669471D01*
X234950000Y-86075756D01*
X234678529Y-85669471D01*
X234220400Y-85363359D01*
X233816407Y-85283000D01*
X233543593Y-85283000D01*
X233139600Y-85363359D01*
X232681471Y-85669471D01*
X232375359Y-86127600D01*
X232267867Y-86668000D01*
X232375359Y-87208400D01*
X232657063Y-87630000D01*
X232375359Y-88051600D01*
X232267867Y-88592000D01*
X232374934Y-89130264D01*
X231079199Y-90426000D01*
X227644802Y-90426000D01*
X226909145Y-89690344D01*
X227058529Y-89590529D01*
X227330000Y-89184244D01*
X227601471Y-89590529D01*
X228059600Y-89896641D01*
X228463593Y-89977000D01*
X228736407Y-89977000D01*
X229140400Y-89896641D01*
X229598529Y-89590529D01*
X229904641Y-89132400D01*
X230012133Y-88592000D01*
X229904641Y-88051600D01*
X229622937Y-87630000D01*
X229904641Y-87208400D01*
X230012133Y-86668000D01*
X229904641Y-86127600D01*
X229598529Y-85669471D01*
X229140400Y-85363359D01*
X228736407Y-85283000D01*
X228463593Y-85283000D01*
X228059600Y-85363359D01*
X227601471Y-85669471D01*
X227330000Y-86075756D01*
X227058529Y-85669471D01*
X226600400Y-85363359D01*
X226196407Y-85283000D01*
X225923593Y-85283000D01*
X225519600Y-85363359D01*
X225061471Y-85669471D01*
X224755359Y-86127600D01*
X224647867Y-86668000D01*
X224755359Y-87208400D01*
X225037063Y-87630000D01*
X224755359Y-88051600D01*
X224647867Y-88592000D01*
X224754934Y-89130264D01*
X223459199Y-90426000D01*
X220532802Y-90426000D01*
X219542190Y-89435389D01*
X219710000Y-89184244D01*
X219981471Y-89590529D01*
X220439600Y-89896641D01*
X220843593Y-89977000D01*
X221116407Y-89977000D01*
X221520400Y-89896641D01*
X221978529Y-89590529D01*
X222284641Y-89132400D01*
X222392133Y-88592000D01*
X222284641Y-88051600D01*
X222002937Y-87630000D01*
X222284641Y-87208400D01*
X222392133Y-86668000D01*
X222284641Y-86127600D01*
X221978529Y-85669471D01*
X221520400Y-85363359D01*
X221116407Y-85283000D01*
X220843593Y-85283000D01*
X220529281Y-85345520D01*
X221119802Y-84755000D01*
X221165983Y-84755000D01*
X221509635Y-84612655D01*
X221772655Y-84349635D01*
X221915000Y-84005983D01*
X221915000Y-83634017D01*
X221772655Y-83290365D01*
X221509635Y-83027345D01*
X221165983Y-82885000D01*
X220794017Y-82885000D01*
X220450365Y-83027345D01*
X220187345Y-83290365D01*
X220045000Y-83634017D01*
X220045000Y-83680198D01*
X219562484Y-84162714D01*
X219605392Y-83947000D01*
X219516682Y-83501024D01*
X219264057Y-83122943D01*
X218885976Y-82870318D01*
X218552572Y-82804000D01*
X218327428Y-82804000D01*
X217994024Y-82870318D01*
X217615943Y-83122943D01*
X217363318Y-83501024D01*
X217274608Y-83947000D01*
X217363318Y-84392976D01*
X217528374Y-84640000D01*
X216811626Y-84640000D01*
X216976682Y-84392976D01*
X217065392Y-83947000D01*
X216976682Y-83501024D01*
X216724057Y-83122943D01*
X216345976Y-82870318D01*
X216012572Y-82804000D01*
X215787428Y-82804000D01*
X215454024Y-82870318D01*
X215075943Y-83122943D01*
X214828131Y-83493822D01*
X214771650Y-83209875D01*
X214440430Y-82714170D01*
X213944724Y-82382950D01*
X213655336Y-82325387D01*
X213900400Y-82276641D01*
X214358529Y-81970529D01*
X214664641Y-81512400D01*
X214772133Y-80972000D01*
X214664641Y-80431600D01*
X214551318Y-80262000D01*
X216855199Y-80262000D01*
X217117016Y-80523817D01*
X217027867Y-80972000D01*
X217135359Y-81512400D01*
X217441471Y-81970529D01*
X217899600Y-82276641D01*
X218303593Y-82357000D01*
X218576407Y-82357000D01*
X218980400Y-82276641D01*
X219438529Y-81970529D01*
X219710000Y-81564244D01*
X219981471Y-81970529D01*
X220439600Y-82276641D01*
X220843593Y-82357000D01*
X221116407Y-82357000D01*
X221520400Y-82276641D01*
X221978529Y-81970529D01*
X222284641Y-81512400D01*
X222392133Y-80972000D01*
X222284641Y-80431600D01*
X222256177Y-80389000D01*
X224602199Y-80389000D01*
X224737016Y-80523817D01*
X224647867Y-80972000D01*
X224755359Y-81512400D01*
X225061471Y-81970529D01*
X225519600Y-82276641D01*
X225923593Y-82357000D01*
X226196407Y-82357000D01*
X226600400Y-82276641D01*
X227058529Y-81970529D01*
X227330000Y-81564244D01*
X227601471Y-81970529D01*
X228059600Y-82276641D01*
X228463593Y-82357000D01*
X228736407Y-82357000D01*
X229140400Y-82276641D01*
X229598529Y-81970529D01*
X229904641Y-81512400D01*
X230012133Y-80972000D01*
X229904641Y-80431600D01*
X229876177Y-80389000D01*
X231079199Y-80389000D01*
X231946671Y-81256473D01*
X231989071Y-81319929D01*
X232240463Y-81487904D01*
X232377160Y-81515095D01*
X232681471Y-81970529D01*
X233139600Y-82276641D01*
X233543593Y-82357000D01*
X233816407Y-82357000D01*
X234220400Y-82276641D01*
X234678529Y-81970529D01*
X234950000Y-81564244D01*
X235221471Y-81970529D01*
X235679600Y-82276641D01*
X236083593Y-82357000D01*
X236356407Y-82357000D01*
X236760400Y-82276641D01*
X237218529Y-81970529D01*
X237524641Y-81512400D01*
X237632133Y-80972000D01*
X237541429Y-80516000D01*
X239969199Y-80516000D01*
X239977016Y-80523817D01*
X239887867Y-80972000D01*
X239995359Y-81512400D01*
X240301471Y-81970529D01*
X240759600Y-82276641D01*
X241163593Y-82357000D01*
X241436407Y-82357000D01*
X241840400Y-82276641D01*
X242298529Y-81970529D01*
X242570000Y-81564244D01*
X242841471Y-81970529D01*
X243299600Y-82276641D01*
X243703593Y-82357000D01*
X243976407Y-82357000D01*
X244380400Y-82276641D01*
X244838529Y-81970529D01*
X245144641Y-81512400D01*
X245252133Y-80972000D01*
X245144641Y-80431600D01*
X244838529Y-79973471D01*
X244380400Y-79667359D01*
X243976407Y-79587000D01*
X243703593Y-79587000D01*
X243299600Y-79667359D01*
X242841471Y-79973471D01*
X242570000Y-80379756D01*
X242298529Y-79973471D01*
X241840400Y-79667359D01*
X241499550Y-79599560D01*
X242809876Y-78289234D01*
X242950224Y-78079190D01*
X242999507Y-77831425D01*
X242968727Y-77676684D01*
X243058630Y-77616612D01*
X244685852Y-75989390D01*
X244826200Y-75779346D01*
X244875483Y-75531581D01*
X244826200Y-75283816D01*
X244685852Y-75073772D01*
X243696228Y-74084148D01*
X243486184Y-73943800D01*
X243238419Y-73894517D01*
X242990654Y-73943800D01*
X242780610Y-74084148D01*
X241153388Y-75711370D01*
X241093316Y-75801273D01*
X240938575Y-75770493D01*
X240690810Y-75819776D01*
X240480766Y-75960124D01*
X240161695Y-76279195D01*
X240161119Y-76279081D01*
X239899028Y-76331214D01*
X240240852Y-75989390D01*
X240381200Y-75779346D01*
X240430483Y-75531581D01*
X240381200Y-75283816D01*
X240240852Y-75073772D01*
X239251228Y-74084148D01*
X239041184Y-73943800D01*
X238793419Y-73894517D01*
X238545654Y-73943800D01*
X238335610Y-74084148D01*
X236708388Y-75711370D01*
X236648316Y-75801273D01*
X236493575Y-75770493D01*
X236245810Y-75819776D01*
X236035766Y-75960124D01*
X234924465Y-77071425D01*
X234713817Y-77071425D01*
X235795852Y-75989390D01*
X235936200Y-75779346D01*
X235985483Y-75531581D01*
X235936200Y-75283816D01*
X235795852Y-75073772D01*
X234806228Y-74084148D01*
X234596184Y-73943800D01*
X234348419Y-73894517D01*
X234100654Y-73943800D01*
X233890610Y-74084148D01*
X233655125Y-74319633D01*
X233801908Y-73924539D01*
X233777856Y-73274540D01*
X233575387Y-72785736D01*
X233308532Y-72687073D01*
X232335605Y-73660000D01*
X232349748Y-73674143D01*
X232170143Y-73853748D01*
X232156000Y-73839605D01*
X231183073Y-74812532D01*
X231281736Y-75079387D01*
X231891461Y-75305908D01*
X232541460Y-75281856D01*
X232799987Y-75174771D01*
X232263388Y-75711370D01*
X232203316Y-75801273D01*
X232048575Y-75770493D01*
X231800810Y-75819776D01*
X231590766Y-75960124D01*
X230177274Y-77373616D01*
X230036926Y-77583660D01*
X229987643Y-77831425D01*
X230036926Y-78079190D01*
X230177274Y-78289234D01*
X230757040Y-78869000D01*
X228910801Y-78869000D01*
X229719473Y-78060329D01*
X229782929Y-78017929D01*
X229950904Y-77766537D01*
X229995000Y-77544852D01*
X229995000Y-77544848D01*
X230009888Y-77470001D01*
X229995000Y-77395154D01*
X229995000Y-73339801D01*
X230679801Y-72655000D01*
X230971392Y-72655000D01*
X231003466Y-72687074D01*
X230736613Y-72785736D01*
X230510092Y-73395461D01*
X230534144Y-74045460D01*
X230736613Y-74534264D01*
X231003468Y-74632927D01*
X231976395Y-73660000D01*
X231962253Y-73645858D01*
X232141858Y-73466253D01*
X232156000Y-73480395D01*
X233128927Y-72507468D01*
X233030264Y-72240613D01*
X232420539Y-72014092D01*
X232152819Y-72023998D01*
X232187310Y-71989507D01*
X232421000Y-71425330D01*
X232421000Y-70814670D01*
X232198290Y-70277000D01*
X232341983Y-70277000D01*
X232685635Y-70134655D01*
X232948655Y-69871635D01*
X233091000Y-69527983D01*
X233091000Y-69156017D01*
X232948655Y-68812365D01*
X232685635Y-68549345D01*
X232341983Y-68407000D01*
X231970017Y-68407000D01*
X231626365Y-68549345D01*
X231593710Y-68582000D01*
X219555848Y-68582000D01*
X219481000Y-68567112D01*
X219406152Y-68582000D01*
X219406148Y-68582000D01*
X219232605Y-68616520D01*
X219184462Y-68626096D01*
X219128756Y-68663318D01*
X218933071Y-68794071D01*
X218890671Y-68857527D01*
X218119638Y-69628560D01*
X216047000Y-69628560D01*
X215799235Y-69677843D01*
X215589191Y-69818191D01*
X215448843Y-70028235D01*
X215399560Y-70276000D01*
X215399560Y-70716000D01*
X206748440Y-70716000D01*
X206748440Y-70276000D01*
X206699157Y-70028235D01*
X206558809Y-69818191D01*
X206348765Y-69677843D01*
X206101000Y-69628560D01*
X203601000Y-69628560D01*
X203353235Y-69677843D01*
X203143191Y-69818191D01*
X203002843Y-70028235D01*
X202953560Y-70276000D01*
X202953560Y-72676000D01*
X202969427Y-72755771D01*
X200485199Y-75240000D01*
X199622509Y-75240000D01*
X200010264Y-75079387D01*
X200108927Y-74812532D01*
X199136000Y-73839605D01*
X198163073Y-74812532D01*
X198261736Y-75079387D01*
X198694057Y-75240000D01*
X192510509Y-75240000D01*
X192898264Y-75079387D01*
X192996927Y-74812532D01*
X192024000Y-73839605D01*
X191051073Y-74812532D01*
X191149736Y-75079387D01*
X191582057Y-75240000D01*
X189062217Y-75240000D01*
X188987370Y-75225112D01*
X188912523Y-75240000D01*
X188912518Y-75240000D01*
X188690833Y-75284096D01*
X188439441Y-75452071D01*
X188397039Y-75515530D01*
X188110528Y-75802041D01*
X188047072Y-75844441D01*
X188004672Y-75907897D01*
X188004671Y-75907898D01*
X187879097Y-76095833D01*
X187844716Y-76268675D01*
X187803663Y-76285680D01*
X187410680Y-76678663D01*
X187325000Y-76885513D01*
X187239320Y-76678663D01*
X186846337Y-76285680D01*
X186332881Y-76073000D01*
X185777119Y-76073000D01*
X185263663Y-76285680D01*
X184912000Y-76637343D01*
X184912000Y-76581691D01*
X184815327Y-76348302D01*
X184636699Y-76169673D01*
X184403310Y-76073000D01*
X183800750Y-76073000D01*
X183642000Y-76231750D01*
X183642000Y-77343000D01*
X183662000Y-77343000D01*
X183662000Y-77597000D01*
X183642000Y-77597000D01*
X183642000Y-78708250D01*
X183800750Y-78867000D01*
X184403310Y-78867000D01*
X184636699Y-78770327D01*
X184815327Y-78591698D01*
X184912000Y-78358309D01*
X184912000Y-78302657D01*
X185263663Y-78654320D01*
X185777119Y-78867000D01*
X186332881Y-78867000D01*
X186846337Y-78654320D01*
X187239320Y-78261337D01*
X187325000Y-78054487D01*
X187410680Y-78261337D01*
X187803663Y-78654320D01*
X188317119Y-78867000D01*
X188872881Y-78867000D01*
X188904218Y-78854020D01*
X189782670Y-79732472D01*
X189807203Y-79769187D01*
X189501471Y-79973471D01*
X189230000Y-80379756D01*
X188958529Y-79973471D01*
X188500400Y-79667359D01*
X188096407Y-79587000D01*
X187823593Y-79587000D01*
X187419600Y-79667359D01*
X186961471Y-79973471D01*
X186655359Y-80431600D01*
X186547867Y-80972000D01*
X186655359Y-81512400D01*
X186961471Y-81970529D01*
X187419600Y-82276641D01*
X187823593Y-82357000D01*
X188096407Y-82357000D01*
X188500400Y-82276641D01*
X188958529Y-81970529D01*
X189230000Y-81564244D01*
X189501471Y-81970529D01*
X189959600Y-82276641D01*
X190363593Y-82357000D01*
X190636407Y-82357000D01*
X191040400Y-82276641D01*
X191498529Y-81970529D01*
X191804641Y-81512400D01*
X191912133Y-80972000D01*
X191804641Y-80431600D01*
X191655312Y-80208113D01*
X194862670Y-83415472D01*
X194905071Y-83478929D01*
X195156463Y-83646904D01*
X195378148Y-83691000D01*
X195378152Y-83691000D01*
X195453000Y-83705888D01*
X195527848Y-83691000D01*
X199217000Y-83691000D01*
X199217000Y-84005983D01*
X199359345Y-84349635D01*
X199622365Y-84612655D01*
X199966017Y-84755000D01*
X200337983Y-84755000D01*
X200453866Y-84707000D01*
X202504199Y-84707000D01*
X203080199Y-85283000D01*
X203063593Y-85283000D01*
X202659600Y-85363359D01*
X202201471Y-85669471D01*
X201895359Y-86127600D01*
X201787867Y-86668000D01*
X201895359Y-87208400D01*
X202177063Y-87630000D01*
X201895359Y-88051600D01*
X201787867Y-88592000D01*
X201895359Y-89132400D01*
X202201471Y-89590529D01*
X202659600Y-89896641D01*
X203063593Y-89977000D01*
X203336407Y-89977000D01*
X203740400Y-89896641D01*
X204198529Y-89590529D01*
X204470000Y-89184244D01*
X204741471Y-89590529D01*
X205199600Y-89896641D01*
X205603593Y-89977000D01*
X205876407Y-89977000D01*
X206280400Y-89896641D01*
X206738529Y-89590529D01*
X207044641Y-89132400D01*
X207152133Y-88592000D01*
X207044641Y-88051600D01*
X206762937Y-87630000D01*
X207044641Y-87208400D01*
X207152133Y-86668000D01*
X207044641Y-86127600D01*
X206738529Y-85669471D01*
X206413080Y-85452013D01*
X206819228Y-85180633D01*
X206878073Y-85322698D01*
X207056701Y-85501327D01*
X207290090Y-85598000D01*
X207994250Y-85598000D01*
X208153000Y-85439250D01*
X208153000Y-84074000D01*
X208133000Y-84074000D01*
X208133000Y-83820000D01*
X208153000Y-83820000D01*
X208153000Y-82454750D01*
X207994250Y-82296000D01*
X207290090Y-82296000D01*
X207056701Y-82392673D01*
X206878073Y-82571302D01*
X206819228Y-82713367D01*
X206324724Y-82382950D01*
X206035336Y-82325387D01*
X206280400Y-82276641D01*
X206738529Y-81970529D01*
X207044641Y-81512400D01*
X207152133Y-80972000D01*
X207044641Y-80431600D01*
X206738529Y-79973471D01*
X206280400Y-79667359D01*
X206077501Y-79627000D01*
X208473199Y-79627000D01*
X209475945Y-80629747D01*
X209407867Y-80972000D01*
X209515359Y-81512400D01*
X209821471Y-81970529D01*
X210279600Y-82276641D01*
X210524664Y-82325387D01*
X210235275Y-82382950D01*
X209740772Y-82713367D01*
X209681927Y-82571302D01*
X209503299Y-82392673D01*
X209269910Y-82296000D01*
X208565750Y-82296000D01*
X208407000Y-82454750D01*
X208407000Y-83820000D01*
X208427000Y-83820000D01*
X208427000Y-84074000D01*
X208407000Y-84074000D01*
X208407000Y-85439250D01*
X208565750Y-85598000D01*
X209269910Y-85598000D01*
X209503299Y-85501327D01*
X209681927Y-85322698D01*
X209740772Y-85180633D01*
X210146920Y-85452013D01*
X209821471Y-85669471D01*
X209515359Y-86127600D01*
X209407867Y-86668000D01*
X209515359Y-87208400D01*
X209797063Y-87630000D01*
X209515359Y-88051600D01*
X209407867Y-88592000D01*
X209430652Y-88706547D01*
X207457199Y-90680000D01*
X197926802Y-90680000D01*
X196682190Y-89435389D01*
X196850000Y-89184244D01*
X197121471Y-89590529D01*
X197579600Y-89896641D01*
X197983593Y-89977000D01*
X198256407Y-89977000D01*
X198660400Y-89896641D01*
X199118529Y-89590529D01*
X199424641Y-89132400D01*
X199532133Y-88592000D01*
X199424641Y-88051600D01*
X199142937Y-87630000D01*
X199424641Y-87208400D01*
X199532133Y-86668000D01*
X199424641Y-86127600D01*
X199118529Y-85669471D01*
X198660400Y-85363359D01*
X198256407Y-85283000D01*
X197983593Y-85283000D01*
X197579600Y-85363359D01*
X197121471Y-85669471D01*
X196850000Y-86075756D01*
X196578529Y-85669471D01*
X196120400Y-85363359D01*
X195716407Y-85283000D01*
X195443593Y-85283000D01*
X195039600Y-85363359D01*
X194581471Y-85669471D01*
X194275359Y-86127600D01*
X194167867Y-86668000D01*
X194275359Y-87208400D01*
X194557063Y-87630000D01*
X194275359Y-88051600D01*
X194167867Y-88592000D01*
X194274934Y-89130264D01*
X193741199Y-89664000D01*
X193622848Y-89664000D01*
X193548000Y-89649112D01*
X193473152Y-89664000D01*
X193473148Y-89664000D01*
X193299605Y-89698520D01*
X193251462Y-89708096D01*
X193064418Y-89833076D01*
X193000071Y-89876071D01*
X192957672Y-89939526D01*
X192471199Y-90426000D01*
X190560802Y-90426000D01*
X190049281Y-89914480D01*
X190363593Y-89977000D01*
X190636407Y-89977000D01*
X191040400Y-89896641D01*
X191498529Y-89590529D01*
X191804641Y-89132400D01*
X191912133Y-88592000D01*
X191804641Y-88051600D01*
X191522937Y-87630000D01*
X191804641Y-87208400D01*
X191912133Y-86668000D01*
X191804641Y-86127600D01*
X191498529Y-85669471D01*
X191040400Y-85363359D01*
X190636407Y-85283000D01*
X190363593Y-85283000D01*
X189959600Y-85363359D01*
X189501471Y-85669471D01*
X189230000Y-86075756D01*
X188958529Y-85669471D01*
X188500400Y-85363359D01*
X188096407Y-85283000D01*
X187823593Y-85283000D01*
X187419600Y-85363359D01*
X186961471Y-85669471D01*
X186655359Y-86127600D01*
X186547867Y-86668000D01*
X186655359Y-87208400D01*
X186937063Y-87630000D01*
X186655359Y-88051600D01*
X186547867Y-88592000D01*
X186612793Y-88918405D01*
X185867199Y-89664000D01*
X183768572Y-89664000D01*
X183878529Y-89590529D01*
X184184641Y-89132400D01*
X184292133Y-88592000D01*
X184184641Y-88051600D01*
X183902937Y-87630000D01*
X184184641Y-87208400D01*
X184292133Y-86668000D01*
X184184641Y-86127600D01*
X183878529Y-85669471D01*
X183420400Y-85363359D01*
X183016407Y-85283000D01*
X182743593Y-85283000D01*
X182339600Y-85363359D01*
X181881471Y-85669471D01*
X181610000Y-86075756D01*
X181338529Y-85669471D01*
X180880400Y-85363359D01*
X180476407Y-85283000D01*
X180203593Y-85283000D01*
X179799600Y-85363359D01*
X179341471Y-85669471D01*
X179035359Y-86127600D01*
X178927867Y-86668000D01*
X179035359Y-87208400D01*
X179317063Y-87630000D01*
X179089049Y-87971247D01*
X177501331Y-86383530D01*
X177458929Y-86320071D01*
X177207537Y-86152096D01*
X176985852Y-86108000D01*
X176985847Y-86108000D01*
X176911000Y-86093112D01*
X176836153Y-86108000D01*
X176551545Y-86108000D01*
X176258529Y-85669471D01*
X175800400Y-85363359D01*
X175396407Y-85283000D01*
X175123593Y-85283000D01*
X174719600Y-85363359D01*
X174373343Y-85594721D01*
X174560141Y-82170094D01*
X174719600Y-82276641D01*
X175123593Y-82357000D01*
X175396407Y-82357000D01*
X175800400Y-82276641D01*
X176258529Y-81970529D01*
X176564641Y-81512400D01*
X176672133Y-80972000D01*
X178927867Y-80972000D01*
X179035359Y-81512400D01*
X179341471Y-81970529D01*
X179799600Y-82276641D01*
X180203593Y-82357000D01*
X180476407Y-82357000D01*
X180880400Y-82276641D01*
X181338529Y-81970529D01*
X181610000Y-81564244D01*
X181881471Y-81970529D01*
X182339600Y-82276641D01*
X182743593Y-82357000D01*
X183016407Y-82357000D01*
X183420400Y-82276641D01*
X183878529Y-81970529D01*
X184184641Y-81512400D01*
X184292133Y-80972000D01*
X184184641Y-80431600D01*
X183878529Y-79973471D01*
X183420400Y-79667359D01*
X183016407Y-79587000D01*
X182743593Y-79587000D01*
X182339600Y-79667359D01*
X181881471Y-79973471D01*
X181610000Y-80379756D01*
X181338529Y-79973471D01*
X180880400Y-79667359D01*
X180476407Y-79587000D01*
X180203593Y-79587000D01*
X179799600Y-79667359D01*
X179341471Y-79973471D01*
X179035359Y-80431600D01*
X178927867Y-80972000D01*
X176672133Y-80972000D01*
X176564641Y-80431600D01*
X176258529Y-79973471D01*
X175800400Y-79667359D01*
X175396407Y-79587000D01*
X175123593Y-79587000D01*
X174719600Y-79667359D01*
X174695785Y-79683271D01*
X174961981Y-74803000D01*
X176116655Y-74803000D01*
X176244792Y-75447188D01*
X176609695Y-75993305D01*
X176732664Y-76075470D01*
X176400350Y-76407784D01*
X176149000Y-77014596D01*
X176149000Y-77671404D01*
X176400350Y-78278216D01*
X176864784Y-78742650D01*
X177471596Y-78994000D01*
X178128404Y-78994000D01*
X178735216Y-78742650D01*
X179199650Y-78278216D01*
X179416062Y-77755750D01*
X182118000Y-77755750D01*
X182118000Y-78358309D01*
X182214673Y-78591698D01*
X182393301Y-78770327D01*
X182626690Y-78867000D01*
X183229250Y-78867000D01*
X183388000Y-78708250D01*
X183388000Y-77597000D01*
X182276750Y-77597000D01*
X182118000Y-77755750D01*
X179416062Y-77755750D01*
X179451000Y-77671404D01*
X179451000Y-77014596D01*
X179271685Y-76581691D01*
X182118000Y-76581691D01*
X182118000Y-77184250D01*
X182276750Y-77343000D01*
X183388000Y-77343000D01*
X183388000Y-76231750D01*
X183229250Y-76073000D01*
X182626690Y-76073000D01*
X182393301Y-76169673D01*
X182214673Y-76348302D01*
X182118000Y-76581691D01*
X179271685Y-76581691D01*
X179199650Y-76407784D01*
X178867336Y-76075470D01*
X178990305Y-75993305D01*
X179355208Y-75447188D01*
X179483345Y-74803000D01*
X179355208Y-74158812D01*
X179137584Y-73833114D01*
X179175698Y-73817327D01*
X179354327Y-73638699D01*
X179451000Y-73405310D01*
X179451000Y-72548750D01*
X179292250Y-72390000D01*
X177927000Y-72390000D01*
X177927000Y-72410000D01*
X177673000Y-72410000D01*
X177673000Y-72390000D01*
X176307750Y-72390000D01*
X176149000Y-72548750D01*
X176149000Y-73405310D01*
X176245673Y-73638699D01*
X176424302Y-73817327D01*
X176462416Y-73833114D01*
X176244792Y-74158812D01*
X176116655Y-74803000D01*
X174961981Y-74803000D01*
X175162834Y-71120690D01*
X176149000Y-71120690D01*
X176149000Y-71977250D01*
X176307750Y-72136000D01*
X177673000Y-72136000D01*
X177673000Y-70770750D01*
X177927000Y-70770750D01*
X177927000Y-72136000D01*
X179292250Y-72136000D01*
X179451000Y-71977250D01*
X179451000Y-71120690D01*
X179354327Y-70887301D01*
X179175698Y-70708673D01*
X178942309Y-70612000D01*
X178085750Y-70612000D01*
X177927000Y-70770750D01*
X177673000Y-70770750D01*
X177514250Y-70612000D01*
X176657691Y-70612000D01*
X176424302Y-70708673D01*
X176245673Y-70887301D01*
X176149000Y-71120690D01*
X175162834Y-71120690D01*
X175332594Y-68008452D01*
X175557702Y-66207583D01*
X178572717Y-66207583D01*
X178690475Y-67377030D01*
X178979793Y-68516226D01*
X179434318Y-69600145D01*
X180044064Y-70604974D01*
X180795635Y-71508641D01*
X181672522Y-72291292D01*
X182655460Y-72935734D01*
X183722855Y-73427810D01*
X184851260Y-73756710D01*
X186015885Y-73915209D01*
X187191145Y-73899824D01*
X188351222Y-73710893D01*
X189470630Y-73352568D01*
X190524779Y-72832719D01*
X190815459Y-72631067D01*
X190871466Y-72687074D01*
X190604613Y-72785736D01*
X190378092Y-73395461D01*
X190402144Y-74045460D01*
X190604613Y-74534264D01*
X190871468Y-74632927D01*
X191844395Y-73660000D01*
X191830253Y-73645858D01*
X192009858Y-73466253D01*
X192024000Y-73480395D01*
X192038143Y-73466253D01*
X192217748Y-73645858D01*
X192203605Y-73660000D01*
X193176532Y-74632927D01*
X193443387Y-74534264D01*
X193669908Y-73924539D01*
X193645856Y-73274540D01*
X193443387Y-72785736D01*
X193176534Y-72687074D01*
X193208608Y-72655000D01*
X193599330Y-72655000D01*
X194163507Y-72421310D01*
X194595310Y-71989507D01*
X194829000Y-71425330D01*
X194829000Y-70814670D01*
X196331000Y-70814670D01*
X196331000Y-71425330D01*
X196564690Y-71989507D01*
X196996493Y-72421310D01*
X197560670Y-72655000D01*
X197951392Y-72655000D01*
X197983466Y-72687074D01*
X197716613Y-72785736D01*
X197490092Y-73395461D01*
X197514144Y-74045460D01*
X197716613Y-74534264D01*
X197983468Y-74632927D01*
X198956395Y-73660000D01*
X199315605Y-73660000D01*
X200288532Y-74632927D01*
X200555387Y-74534264D01*
X200781908Y-73924539D01*
X200757856Y-73274540D01*
X200555387Y-72785736D01*
X200288532Y-72687073D01*
X199315605Y-73660000D01*
X198956395Y-73660000D01*
X198942253Y-73645858D01*
X199121858Y-73466253D01*
X199136000Y-73480395D01*
X200108927Y-72507468D01*
X200010264Y-72240613D01*
X199400539Y-72014092D01*
X199132819Y-72023998D01*
X199167310Y-71989507D01*
X199401000Y-71425330D01*
X199401000Y-70814670D01*
X199167310Y-70250493D01*
X198735507Y-69818690D01*
X198171330Y-69585000D01*
X197560670Y-69585000D01*
X196996493Y-69818690D01*
X196564690Y-70250493D01*
X196331000Y-70814670D01*
X194829000Y-70814670D01*
X194595310Y-70250493D01*
X194163507Y-69818690D01*
X193599330Y-69585000D01*
X193559740Y-69585000D01*
X193657501Y-69413953D01*
X194083497Y-68318508D01*
X194132091Y-68103751D01*
X209189320Y-68103751D01*
X209189320Y-69193990D01*
X209285993Y-69427379D01*
X209464621Y-69606008D01*
X209698010Y-69702681D01*
X210788250Y-69702681D01*
X210947000Y-69543931D01*
X210947000Y-67945001D01*
X211201000Y-67945001D01*
X211201000Y-69543931D01*
X211359750Y-69702681D01*
X212449990Y-69702681D01*
X212683379Y-69606008D01*
X212862007Y-69427379D01*
X212958680Y-69193990D01*
X212958680Y-68103751D01*
X212799930Y-67945001D01*
X211201000Y-67945001D01*
X210947000Y-67945001D01*
X209348070Y-67945001D01*
X209189320Y-68103751D01*
X194132091Y-68103751D01*
X194342896Y-67172129D01*
X194430000Y-66000000D01*
X194419132Y-65584976D01*
X194270803Y-64419012D01*
X194167859Y-64054000D01*
X194495983Y-64054000D01*
X194839635Y-63911655D01*
X194872290Y-63879000D01*
X202972854Y-63879000D01*
X202953560Y-63976000D01*
X202953560Y-66376000D01*
X203002843Y-66623765D01*
X203143191Y-66833809D01*
X203353235Y-66974157D01*
X203601000Y-67023440D01*
X206101000Y-67023440D01*
X206348765Y-66974157D01*
X206558809Y-66833809D01*
X206699157Y-66623765D01*
X206735309Y-66442012D01*
X209189320Y-66442012D01*
X209189320Y-67532251D01*
X209348070Y-67691001D01*
X210947000Y-67691001D01*
X210947000Y-66092071D01*
X211201000Y-66092071D01*
X211201000Y-67691001D01*
X212799930Y-67691001D01*
X212958680Y-67532251D01*
X212958680Y-66442012D01*
X212862007Y-66208623D01*
X212683379Y-66029994D01*
X212449990Y-65933321D01*
X211359750Y-65933321D01*
X211201000Y-66092071D01*
X210947000Y-66092071D01*
X210788250Y-65933321D01*
X209698010Y-65933321D01*
X209464621Y-66029994D01*
X209285993Y-66208623D01*
X209189320Y-66442012D01*
X206735309Y-66442012D01*
X206748440Y-66376000D01*
X206748440Y-63976000D01*
X206729146Y-63879000D01*
X215418854Y-63879000D01*
X215399560Y-63976000D01*
X215399560Y-66376000D01*
X215448843Y-66623765D01*
X215589191Y-66833809D01*
X215799235Y-66974157D01*
X216047000Y-67023440D01*
X218547000Y-67023440D01*
X218794765Y-66974157D01*
X219004809Y-66833809D01*
X219145157Y-66623765D01*
X219194440Y-66376000D01*
X219194440Y-63976000D01*
X219175146Y-63879000D01*
X228666199Y-63879000D01*
X236030246Y-71243048D01*
X236072646Y-71306504D01*
X236324038Y-71474479D01*
X236471039Y-71503719D01*
X235374148Y-72600610D01*
X235233800Y-72810654D01*
X235184517Y-73058419D01*
X235233800Y-73306184D01*
X235374148Y-73516228D01*
X236363772Y-74505852D01*
X236573816Y-74646200D01*
X236821581Y-74695483D01*
X237069346Y-74646200D01*
X237279390Y-74505852D01*
X238906612Y-72878630D01*
X238966684Y-72788727D01*
X239121425Y-72819507D01*
X239369190Y-72770224D01*
X239579234Y-72629876D01*
X240992726Y-71216384D01*
X241133074Y-71006340D01*
X241182357Y-70758575D01*
X241133074Y-70510810D01*
X240992726Y-70300766D01*
X239579234Y-68887274D01*
X239369190Y-68746926D01*
X239121425Y-68697643D01*
X238873660Y-68746926D01*
X238663616Y-68887274D01*
X237552315Y-69998575D01*
X236935377Y-69998575D01*
X232303888Y-65367086D01*
X235294519Y-65367086D01*
X235294519Y-65591593D01*
X236065435Y-66362509D01*
X236298824Y-66459182D01*
X236551443Y-66459181D01*
X236784832Y-66362508D01*
X237555747Y-65591593D01*
X237555747Y-65367086D01*
X236425133Y-64236472D01*
X235294519Y-65367086D01*
X232303888Y-65367086D01*
X231119978Y-64183176D01*
X234022818Y-64183176D01*
X234119491Y-64416565D01*
X234890407Y-65187481D01*
X235114914Y-65187481D01*
X236245528Y-64056867D01*
X236604738Y-64056867D01*
X237735352Y-65187481D01*
X237959859Y-65187481D01*
X238730774Y-64416566D01*
X238827447Y-64183177D01*
X238827448Y-63930558D01*
X238730775Y-63697169D01*
X237959859Y-62926253D01*
X237735352Y-62926253D01*
X236604738Y-64056867D01*
X236245528Y-64056867D01*
X235114914Y-62926253D01*
X234890407Y-62926253D01*
X234119492Y-63697168D01*
X234022819Y-63930557D01*
X234022818Y-64183176D01*
X231119978Y-64183176D01*
X229571331Y-62634530D01*
X229528929Y-62571071D01*
X229455701Y-62522141D01*
X235294519Y-62522141D01*
X235294519Y-62746648D01*
X236425133Y-63877262D01*
X237555747Y-62746648D01*
X237555747Y-62522141D01*
X236784831Y-61751225D01*
X236551442Y-61654552D01*
X236298823Y-61654553D01*
X236065434Y-61751226D01*
X235294519Y-62522141D01*
X229455701Y-62522141D01*
X229277537Y-62403096D01*
X229055852Y-62359000D01*
X229055847Y-62359000D01*
X228981000Y-62344112D01*
X228906153Y-62359000D01*
X212594339Y-62359000D01*
X212671755Y-62281584D01*
X212958680Y-61588885D01*
X212958680Y-60839113D01*
X212671755Y-60146414D01*
X212141585Y-59616244D01*
X211448886Y-59329319D01*
X210699114Y-59329319D01*
X210006415Y-59616244D01*
X209476245Y-60146414D01*
X209189320Y-60839113D01*
X209189320Y-61588885D01*
X209476245Y-62281584D01*
X209553661Y-62359000D01*
X194872290Y-62359000D01*
X194839635Y-62326345D01*
X194495983Y-62184000D01*
X194124017Y-62184000D01*
X193780365Y-62326345D01*
X193599942Y-62506768D01*
X193469020Y-62216131D01*
X192833180Y-61227607D01*
X192058210Y-60343924D01*
X191161137Y-59584495D01*
X190161667Y-58966004D01*
X189081755Y-58502038D01*
X187945128Y-58202789D01*
X186776753Y-58074831D01*
X185602299Y-58120975D01*
X184447565Y-58340208D01*
X183337920Y-58727714D01*
X182297740Y-59274979D01*
X181349877Y-59969981D01*
X180515153Y-60797452D01*
X179811906Y-61739214D01*
X179255585Y-62774578D01*
X178858411Y-63880800D01*
X178629109Y-65033576D01*
X178572717Y-66207583D01*
X175557702Y-66207583D01*
X176578728Y-58039378D01*
X177716761Y-56332329D01*
X178458877Y-55590213D01*
X182714392Y-55590213D01*
X182783857Y-55832397D01*
X183307302Y-56019144D01*
X183862368Y-55991362D01*
X184246143Y-55832397D01*
X184315608Y-55590213D01*
X183515000Y-54789605D01*
X182714392Y-55590213D01*
X178458877Y-55590213D01*
X178887334Y-55161757D01*
X180026517Y-54402302D01*
X182105856Y-54402302D01*
X182133638Y-54957368D01*
X182292603Y-55341143D01*
X182534787Y-55410608D01*
X183335395Y-54610000D01*
X182534787Y-53809392D01*
X182292603Y-53878857D01*
X182105856Y-54402302D01*
X180026517Y-54402302D01*
X180654727Y-53983496D01*
X181715854Y-53629787D01*
X182714392Y-53629787D01*
X183515000Y-54430395D01*
X184315608Y-53629787D01*
X184246143Y-53387603D01*
X183722698Y-53200856D01*
X183167632Y-53228638D01*
X182783857Y-53387603D01*
X182714392Y-53629787D01*
X181715854Y-53629787D01*
X182443654Y-53387187D01*
X184872402Y-52780000D01*
X239295564Y-52780000D01*
X243538382Y-53992235D01*
X243538382Y-53992235D01*
G37*
X243538382Y-53992235D02*
X245292671Y-55161761D01*
X246463243Y-56332334D01*
X247601273Y-58039380D01*
X248847407Y-68008466D01*
X248919925Y-69337965D01*
X248469234Y-68887274D01*
X248259190Y-68746926D01*
X248011425Y-68697643D01*
X247763660Y-68746926D01*
X247553616Y-68887274D01*
X246514846Y-69926044D01*
X245108000Y-68519199D01*
X245108000Y-58367846D01*
X245122888Y-58292999D01*
X245108000Y-58218152D01*
X245108000Y-58218148D01*
X245063904Y-57996463D01*
X244895929Y-57745071D01*
X244832473Y-57702671D01*
X242779331Y-55649530D01*
X242736929Y-55586071D01*
X242485537Y-55418096D01*
X242263852Y-55374000D01*
X242263847Y-55374000D01*
X242189000Y-55359112D01*
X242114153Y-55374000D01*
X227890643Y-55374000D01*
X228092000Y-54887881D01*
X228092000Y-54332119D01*
X227879320Y-53818663D01*
X227486337Y-53425680D01*
X226972881Y-53213000D01*
X226417119Y-53213000D01*
X225903663Y-53425680D01*
X225510680Y-53818663D01*
X225425000Y-54025513D01*
X225339320Y-53818663D01*
X224946337Y-53425680D01*
X224432881Y-53213000D01*
X223877119Y-53213000D01*
X223363663Y-53425680D01*
X222970680Y-53818663D01*
X222885000Y-54025513D01*
X222799320Y-53818663D01*
X222406337Y-53425680D01*
X221892881Y-53213000D01*
X221337119Y-53213000D01*
X220823663Y-53425680D01*
X220430680Y-53818663D01*
X220345000Y-54025513D01*
X220259320Y-53818663D01*
X219866337Y-53425680D01*
X219352881Y-53213000D01*
X218797119Y-53213000D01*
X218283663Y-53425680D01*
X217890680Y-53818663D01*
X217805000Y-54025513D01*
X217719320Y-53818663D01*
X217326337Y-53425680D01*
X216812881Y-53213000D01*
X216257119Y-53213000D01*
X215743663Y-53425680D01*
X215350680Y-53818663D01*
X215265000Y-54025513D01*
X215179320Y-53818663D01*
X214786337Y-53425680D01*
X214272881Y-53213000D01*
X213717119Y-53213000D01*
X213203663Y-53425680D01*
X212810680Y-53818663D01*
X212725000Y-54025513D01*
X212639320Y-53818663D01*
X212246337Y-53425680D01*
X211732881Y-53213000D01*
X211177119Y-53213000D01*
X210663663Y-53425680D01*
X210270680Y-53818663D01*
X210185000Y-54025513D01*
X210099320Y-53818663D01*
X209706337Y-53425680D01*
X209192881Y-53213000D01*
X208637119Y-53213000D01*
X208123663Y-53425680D01*
X207730680Y-53818663D01*
X207645000Y-54025513D01*
X207559320Y-53818663D01*
X207166337Y-53425680D01*
X206652881Y-53213000D01*
X206097119Y-53213000D01*
X205583663Y-53425680D01*
X205190680Y-53818663D01*
X205105000Y-54025513D01*
X205019320Y-53818663D01*
X204626337Y-53425680D01*
X204112881Y-53213000D01*
X203557119Y-53213000D01*
X203043663Y-53425680D01*
X202650680Y-53818663D01*
X202565000Y-54025513D01*
X202479320Y-53818663D01*
X202086337Y-53425680D01*
X201572881Y-53213000D01*
X201017119Y-53213000D01*
X200503663Y-53425680D01*
X200110680Y-53818663D01*
X200025000Y-54025513D01*
X199939320Y-53818663D01*
X199546337Y-53425680D01*
X199032881Y-53213000D01*
X198477119Y-53213000D01*
X197963663Y-53425680D01*
X197570680Y-53818663D01*
X197485000Y-54025513D01*
X197399320Y-53818663D01*
X197006337Y-53425680D01*
X196492881Y-53213000D01*
X195937119Y-53213000D01*
X195423663Y-53425680D01*
X195030680Y-53818663D01*
X194945000Y-54025513D01*
X194859320Y-53818663D01*
X194466337Y-53425680D01*
X193952881Y-53213000D01*
X193397119Y-53213000D01*
X192883663Y-53425680D01*
X192490680Y-53818663D01*
X192405000Y-54025513D01*
X192319320Y-53818663D01*
X191926337Y-53425680D01*
X191412881Y-53213000D01*
X190857119Y-53213000D01*
X190343663Y-53425680D01*
X189950680Y-53818663D01*
X189865000Y-54025513D01*
X189779320Y-53818663D01*
X189386337Y-53425680D01*
X188872881Y-53213000D01*
X188317119Y-53213000D01*
X187803663Y-53425680D01*
X187410680Y-53818663D01*
X187325000Y-54025513D01*
X187239320Y-53818663D01*
X186846337Y-53425680D01*
X186332881Y-53213000D01*
X185777119Y-53213000D01*
X185263663Y-53425680D01*
X184870680Y-53818663D01*
X184791572Y-54009647D01*
X184737397Y-53878857D01*
X184495213Y-53809392D01*
X183694605Y-54610000D01*
X184495213Y-55410608D01*
X184737397Y-55341143D01*
X184787535Y-55200607D01*
X184870680Y-55401337D01*
X185263663Y-55794320D01*
X185777119Y-56007000D01*
X186332881Y-56007000D01*
X186846337Y-55794320D01*
X187239320Y-55401337D01*
X187325000Y-55194487D01*
X187410680Y-55401337D01*
X187803663Y-55794320D01*
X188317119Y-56007000D01*
X188872881Y-56007000D01*
X189386337Y-55794320D01*
X189779320Y-55401337D01*
X189865000Y-55194487D01*
X189950680Y-55401337D01*
X190343663Y-55794320D01*
X190857119Y-56007000D01*
X191412881Y-56007000D01*
X191926337Y-55794320D01*
X192319320Y-55401337D01*
X192405000Y-55194487D01*
X192490680Y-55401337D01*
X192883663Y-55794320D01*
X193397119Y-56007000D01*
X193952881Y-56007000D01*
X193984218Y-55994020D01*
X195370670Y-57380472D01*
X195413071Y-57443929D01*
X195664463Y-57611904D01*
X195886148Y-57656000D01*
X195886152Y-57656000D01*
X195960999Y-57670888D01*
X196035846Y-57656000D01*
X240349285Y-57656000D01*
X240027282Y-57789378D01*
X239497112Y-58319548D01*
X239210187Y-59012247D01*
X239210187Y-59762019D01*
X239497112Y-60454718D01*
X240027282Y-60984888D01*
X240719981Y-61271813D01*
X241469753Y-61271813D01*
X242162452Y-60984888D01*
X242692622Y-60454718D01*
X242806426Y-60179971D01*
X242806425Y-69189465D01*
X241695124Y-70300766D01*
X241554776Y-70510810D01*
X241505493Y-70758575D01*
X241536273Y-70913316D01*
X241446370Y-70973388D01*
X239819148Y-72600610D01*
X239678800Y-72810654D01*
X239629517Y-73058419D01*
X239678800Y-73306184D01*
X239819148Y-73516228D01*
X240808772Y-74505852D01*
X241018816Y-74646200D01*
X241266581Y-74695483D01*
X241514346Y-74646200D01*
X241724390Y-74505852D01*
X243351612Y-72878630D01*
X243411684Y-72788727D01*
X243566425Y-72819507D01*
X243814190Y-72770224D01*
X244024234Y-72629876D01*
X245437726Y-71216384D01*
X245524987Y-71085789D01*
X245651978Y-71212780D01*
X244264148Y-72600610D01*
X244123800Y-72810654D01*
X244074517Y-73058419D01*
X244123800Y-73306184D01*
X244264148Y-73516228D01*
X245253772Y-74505852D01*
X245463816Y-74646200D01*
X245711581Y-74695483D01*
X245959346Y-74646200D01*
X246169390Y-74505852D01*
X247796612Y-72878630D01*
X247856684Y-72788727D01*
X248011425Y-72819507D01*
X248259190Y-72770224D01*
X248469234Y-72629876D01*
X249066885Y-72032225D01*
X249484214Y-79683271D01*
X249460400Y-79667359D01*
X249056407Y-79587000D01*
X248783593Y-79587000D01*
X248379600Y-79667359D01*
X247921471Y-79973471D01*
X247615359Y-80431600D01*
X247507867Y-80972000D01*
X247615359Y-81512400D01*
X247921471Y-81970529D01*
X248379600Y-82276641D01*
X248783593Y-82357000D01*
X249056407Y-82357000D01*
X249460400Y-82276641D01*
X249619859Y-82170094D01*
X249806657Y-85594720D01*
X249460400Y-85363359D01*
X249056407Y-85283000D01*
X248783593Y-85283000D01*
X248379600Y-85363359D01*
X247921471Y-85669471D01*
X247615359Y-86127600D01*
X247507867Y-86668000D01*
X247615359Y-87208400D01*
X247897063Y-87630000D01*
X247615359Y-88051600D01*
X247507867Y-88592000D01*
X247572793Y-88918405D01*
X246065199Y-90426000D01*
X243900802Y-90426000D01*
X243389281Y-89914480D01*
X243703593Y-89977000D01*
X243976407Y-89977000D01*
X244380400Y-89896641D01*
X244838529Y-89590529D01*
X245144641Y-89132400D01*
X245252133Y-88592000D01*
X245144641Y-88051600D01*
X244862937Y-87630000D01*
X245144641Y-87208400D01*
X245252133Y-86668000D01*
X245144641Y-86127600D01*
X244838529Y-85669471D01*
X244380400Y-85363359D01*
X243976407Y-85283000D01*
X243703593Y-85283000D01*
X243299600Y-85363359D01*
X242841471Y-85669471D01*
X242570000Y-86075756D01*
X242298529Y-85669471D01*
X241840400Y-85363359D01*
X241436407Y-85283000D01*
X241163593Y-85283000D01*
X240759600Y-85363359D01*
X240301471Y-85669471D01*
X239995359Y-86127600D01*
X239887867Y-86668000D01*
X239995359Y-87208400D01*
X240277063Y-87630000D01*
X239995359Y-88051600D01*
X239887867Y-88592000D01*
X239995359Y-89132400D01*
X240096071Y-89283127D01*
X238953199Y-90426000D01*
X236280802Y-90426000D01*
X235769281Y-89914480D01*
X236083593Y-89977000D01*
X236356407Y-89977000D01*
X236760400Y-89896641D01*
X237218529Y-89590529D01*
X237524641Y-89132400D01*
X237632133Y-88592000D01*
X237524641Y-88051600D01*
X237242937Y-87630000D01*
X237524641Y-87208400D01*
X237632133Y-86668000D01*
X237524641Y-86127600D01*
X237218529Y-85669471D01*
X236760400Y-85363359D01*
X236356407Y-85283000D01*
X236083593Y-85283000D01*
X235679600Y-85363359D01*
X235221471Y-85669471D01*
X234950000Y-86075756D01*
X234678529Y-85669471D01*
X234220400Y-85363359D01*
X233816407Y-85283000D01*
X233543593Y-85283000D01*
X233139600Y-85363359D01*
X232681471Y-85669471D01*
X232375359Y-86127600D01*
X232267867Y-86668000D01*
X232375359Y-87208400D01*
X232657063Y-87630000D01*
X232375359Y-88051600D01*
X232267867Y-88592000D01*
X232374934Y-89130264D01*
X231079199Y-90426000D01*
X227644802Y-90426000D01*
X226909145Y-89690344D01*
X227058529Y-89590529D01*
X227330000Y-89184244D01*
X227601471Y-89590529D01*
X228059600Y-89896641D01*
X228463593Y-89977000D01*
X228736407Y-89977000D01*
X229140400Y-89896641D01*
X229598529Y-89590529D01*
X229904641Y-89132400D01*
X230012133Y-88592000D01*
X229904641Y-88051600D01*
X229622937Y-87630000D01*
X229904641Y-87208400D01*
X230012133Y-86668000D01*
X229904641Y-86127600D01*
X229598529Y-85669471D01*
X229140400Y-85363359D01*
X228736407Y-85283000D01*
X228463593Y-85283000D01*
X228059600Y-85363359D01*
X227601471Y-85669471D01*
X227330000Y-86075756D01*
X227058529Y-85669471D01*
X226600400Y-85363359D01*
X226196407Y-85283000D01*
X225923593Y-85283000D01*
X225519600Y-85363359D01*
X225061471Y-85669471D01*
X224755359Y-86127600D01*
X224647867Y-86668000D01*
X224755359Y-87208400D01*
X225037063Y-87630000D01*
X224755359Y-88051600D01*
X224647867Y-88592000D01*
X224754934Y-89130264D01*
X223459199Y-90426000D01*
X220532802Y-90426000D01*
X219542190Y-89435389D01*
X219710000Y-89184244D01*
X219981471Y-89590529D01*
X220439600Y-89896641D01*
X220843593Y-89977000D01*
X221116407Y-89977000D01*
X221520400Y-89896641D01*
X221978529Y-89590529D01*
X222284641Y-89132400D01*
X222392133Y-88592000D01*
X222284641Y-88051600D01*
X222002937Y-87630000D01*
X222284641Y-87208400D01*
X222392133Y-86668000D01*
X222284641Y-86127600D01*
X221978529Y-85669471D01*
X221520400Y-85363359D01*
X221116407Y-85283000D01*
X220843593Y-85283000D01*
X220529281Y-85345520D01*
X221119802Y-84755000D01*
X221165983Y-84755000D01*
X221509635Y-84612655D01*
X221772655Y-84349635D01*
X221915000Y-84005983D01*
X221915000Y-83634017D01*
X221772655Y-83290365D01*
X221509635Y-83027345D01*
X221165983Y-82885000D01*
X220794017Y-82885000D01*
X220450365Y-83027345D01*
X220187345Y-83290365D01*
X220045000Y-83634017D01*
X220045000Y-83680198D01*
X219562484Y-84162714D01*
X219605392Y-83947000D01*
X219516682Y-83501024D01*
X219264057Y-83122943D01*
X218885976Y-82870318D01*
X218552572Y-82804000D01*
X218327428Y-82804000D01*
X217994024Y-82870318D01*
X217615943Y-83122943D01*
X217363318Y-83501024D01*
X217274608Y-83947000D01*
X217363318Y-84392976D01*
X217528374Y-84640000D01*
X216811626Y-84640000D01*
X216976682Y-84392976D01*
X217065392Y-83947000D01*
X216976682Y-83501024D01*
X216724057Y-83122943D01*
X216345976Y-82870318D01*
X216012572Y-82804000D01*
X215787428Y-82804000D01*
X215454024Y-82870318D01*
X215075943Y-83122943D01*
X214828131Y-83493822D01*
X214771650Y-83209875D01*
X214440430Y-82714170D01*
X213944724Y-82382950D01*
X213655336Y-82325387D01*
X213900400Y-82276641D01*
X214358529Y-81970529D01*
X214664641Y-81512400D01*
X214772133Y-80972000D01*
X214664641Y-80431600D01*
X214551318Y-80262000D01*
X216855199Y-80262000D01*
X217117016Y-80523817D01*
X217027867Y-80972000D01*
X217135359Y-81512400D01*
X217441471Y-81970529D01*
X217899600Y-82276641D01*
X218303593Y-82357000D01*
X218576407Y-82357000D01*
X218980400Y-82276641D01*
X219438529Y-81970529D01*
X219710000Y-81564244D01*
X219981471Y-81970529D01*
X220439600Y-82276641D01*
X220843593Y-82357000D01*
X221116407Y-82357000D01*
X221520400Y-82276641D01*
X221978529Y-81970529D01*
X222284641Y-81512400D01*
X222392133Y-80972000D01*
X222284641Y-80431600D01*
X222256177Y-80389000D01*
X224602199Y-80389000D01*
X224737016Y-80523817D01*
X224647867Y-80972000D01*
X224755359Y-81512400D01*
X225061471Y-81970529D01*
X225519600Y-82276641D01*
X225923593Y-82357000D01*
X226196407Y-82357000D01*
X226600400Y-82276641D01*
X227058529Y-81970529D01*
X227330000Y-81564244D01*
X227601471Y-81970529D01*
X228059600Y-82276641D01*
X228463593Y-82357000D01*
X228736407Y-82357000D01*
X229140400Y-82276641D01*
X229598529Y-81970529D01*
X229904641Y-81512400D01*
X230012133Y-80972000D01*
X229904641Y-80431600D01*
X229876177Y-80389000D01*
X231079199Y-80389000D01*
X231946671Y-81256473D01*
X231989071Y-81319929D01*
X232240463Y-81487904D01*
X232377160Y-81515095D01*
X232681471Y-81970529D01*
X233139600Y-82276641D01*
X233543593Y-82357000D01*
X233816407Y-82357000D01*
X234220400Y-82276641D01*
X234678529Y-81970529D01*
X234950000Y-81564244D01*
X235221471Y-81970529D01*
X235679600Y-82276641D01*
X236083593Y-82357000D01*
X236356407Y-82357000D01*
X236760400Y-82276641D01*
X237218529Y-81970529D01*
X237524641Y-81512400D01*
X237632133Y-80972000D01*
X237541429Y-80516000D01*
X239969199Y-80516000D01*
X239977016Y-80523817D01*
X239887867Y-80972000D01*
X239995359Y-81512400D01*
X240301471Y-81970529D01*
X240759600Y-82276641D01*
X241163593Y-82357000D01*
X241436407Y-82357000D01*
X241840400Y-82276641D01*
X242298529Y-81970529D01*
X242570000Y-81564244D01*
X242841471Y-81970529D01*
X243299600Y-82276641D01*
X243703593Y-82357000D01*
X243976407Y-82357000D01*
X244380400Y-82276641D01*
X244838529Y-81970529D01*
X245144641Y-81512400D01*
X245252133Y-80972000D01*
X245144641Y-80431600D01*
X244838529Y-79973471D01*
X244380400Y-79667359D01*
X243976407Y-79587000D01*
X243703593Y-79587000D01*
X243299600Y-79667359D01*
X242841471Y-79973471D01*
X242570000Y-80379756D01*
X242298529Y-79973471D01*
X241840400Y-79667359D01*
X241499550Y-79599560D01*
X242809876Y-78289234D01*
X242950224Y-78079190D01*
X242999507Y-77831425D01*
X242968727Y-77676684D01*
X243058630Y-77616612D01*
X244685852Y-75989390D01*
X244826200Y-75779346D01*
X244875483Y-75531581D01*
X244826200Y-75283816D01*
X244685852Y-75073772D01*
X243696228Y-74084148D01*
X243486184Y-73943800D01*
X243238419Y-73894517D01*
X242990654Y-73943800D01*
X242780610Y-74084148D01*
X241153388Y-75711370D01*
X241093316Y-75801273D01*
X240938575Y-75770493D01*
X240690810Y-75819776D01*
X240480766Y-75960124D01*
X240161695Y-76279195D01*
X240161119Y-76279081D01*
X239899028Y-76331214D01*
X240240852Y-75989390D01*
X240381200Y-75779346D01*
X240430483Y-75531581D01*
X240381200Y-75283816D01*
X240240852Y-75073772D01*
X239251228Y-74084148D01*
X239041184Y-73943800D01*
X238793419Y-73894517D01*
X238545654Y-73943800D01*
X238335610Y-74084148D01*
X236708388Y-75711370D01*
X236648316Y-75801273D01*
X236493575Y-75770493D01*
X236245810Y-75819776D01*
X236035766Y-75960124D01*
X234924465Y-77071425D01*
X234713817Y-77071425D01*
X235795852Y-75989390D01*
X235936200Y-75779346D01*
X235985483Y-75531581D01*
X235936200Y-75283816D01*
X235795852Y-75073772D01*
X234806228Y-74084148D01*
X234596184Y-73943800D01*
X234348419Y-73894517D01*
X234100654Y-73943800D01*
X233890610Y-74084148D01*
X233655125Y-74319633D01*
X233801908Y-73924539D01*
X233777856Y-73274540D01*
X233575387Y-72785736D01*
X233308532Y-72687073D01*
X232335605Y-73660000D01*
X232349748Y-73674143D01*
X232170143Y-73853748D01*
X232156000Y-73839605D01*
X231183073Y-74812532D01*
X231281736Y-75079387D01*
X231891461Y-75305908D01*
X232541460Y-75281856D01*
X232799987Y-75174771D01*
X232263388Y-75711370D01*
X232203316Y-75801273D01*
X232048575Y-75770493D01*
X231800810Y-75819776D01*
X231590766Y-75960124D01*
X230177274Y-77373616D01*
X230036926Y-77583660D01*
X229987643Y-77831425D01*
X230036926Y-78079190D01*
X230177274Y-78289234D01*
X230757040Y-78869000D01*
X228910801Y-78869000D01*
X229719473Y-78060329D01*
X229782929Y-78017929D01*
X229950904Y-77766537D01*
X229995000Y-77544852D01*
X229995000Y-77544848D01*
X230009888Y-77470001D01*
X229995000Y-77395154D01*
X229995000Y-73339801D01*
X230679801Y-72655000D01*
X230971392Y-72655000D01*
X231003466Y-72687074D01*
X230736613Y-72785736D01*
X230510092Y-73395461D01*
X230534144Y-74045460D01*
X230736613Y-74534264D01*
X231003468Y-74632927D01*
X231976395Y-73660000D01*
X231962253Y-73645858D01*
X232141858Y-73466253D01*
X232156000Y-73480395D01*
X233128927Y-72507468D01*
X233030264Y-72240613D01*
X232420539Y-72014092D01*
X232152819Y-72023998D01*
X232187310Y-71989507D01*
X232421000Y-71425330D01*
X232421000Y-70814670D01*
X232198290Y-70277000D01*
X232341983Y-70277000D01*
X232685635Y-70134655D01*
X232948655Y-69871635D01*
X233091000Y-69527983D01*
X233091000Y-69156017D01*
X232948655Y-68812365D01*
X232685635Y-68549345D01*
X232341983Y-68407000D01*
X231970017Y-68407000D01*
X231626365Y-68549345D01*
X231593710Y-68582000D01*
X219555848Y-68582000D01*
X219481000Y-68567112D01*
X219406152Y-68582000D01*
X219406148Y-68582000D01*
X219232605Y-68616520D01*
X219184462Y-68626096D01*
X219128756Y-68663318D01*
X218933071Y-68794071D01*
X218890671Y-68857527D01*
X218119638Y-69628560D01*
X216047000Y-69628560D01*
X215799235Y-69677843D01*
X215589191Y-69818191D01*
X215448843Y-70028235D01*
X215399560Y-70276000D01*
X215399560Y-70716000D01*
X206748440Y-70716000D01*
X206748440Y-70276000D01*
X206699157Y-70028235D01*
X206558809Y-69818191D01*
X206348765Y-69677843D01*
X206101000Y-69628560D01*
X203601000Y-69628560D01*
X203353235Y-69677843D01*
X203143191Y-69818191D01*
X203002843Y-70028235D01*
X202953560Y-70276000D01*
X202953560Y-72676000D01*
X202969427Y-72755771D01*
X200485199Y-75240000D01*
X199622509Y-75240000D01*
X200010264Y-75079387D01*
X200108927Y-74812532D01*
X199136000Y-73839605D01*
X198163073Y-74812532D01*
X198261736Y-75079387D01*
X198694057Y-75240000D01*
X192510509Y-75240000D01*
X192898264Y-75079387D01*
X192996927Y-74812532D01*
X192024000Y-73839605D01*
X191051073Y-74812532D01*
X191149736Y-75079387D01*
X191582057Y-75240000D01*
X189062217Y-75240000D01*
X188987370Y-75225112D01*
X188912523Y-75240000D01*
X188912518Y-75240000D01*
X188690833Y-75284096D01*
X188439441Y-75452071D01*
X188397039Y-75515530D01*
X188110528Y-75802041D01*
X188047072Y-75844441D01*
X188004672Y-75907897D01*
X188004671Y-75907898D01*
X187879097Y-76095833D01*
X187844716Y-76268675D01*
X187803663Y-76285680D01*
X187410680Y-76678663D01*
X187325000Y-76885513D01*
X187239320Y-76678663D01*
X186846337Y-76285680D01*
X186332881Y-76073000D01*
X185777119Y-76073000D01*
X185263663Y-76285680D01*
X184912000Y-76637343D01*
X184912000Y-76581691D01*
X184815327Y-76348302D01*
X184636699Y-76169673D01*
X184403310Y-76073000D01*
X183800750Y-76073000D01*
X183642000Y-76231750D01*
X183642000Y-77343000D01*
X183662000Y-77343000D01*
X183662000Y-77597000D01*
X183642000Y-77597000D01*
X183642000Y-78708250D01*
X183800750Y-78867000D01*
X184403310Y-78867000D01*
X184636699Y-78770327D01*
X184815327Y-78591698D01*
X184912000Y-78358309D01*
X184912000Y-78302657D01*
X185263663Y-78654320D01*
X185777119Y-78867000D01*
X186332881Y-78867000D01*
X186846337Y-78654320D01*
X187239320Y-78261337D01*
X187325000Y-78054487D01*
X187410680Y-78261337D01*
X187803663Y-78654320D01*
X188317119Y-78867000D01*
X188872881Y-78867000D01*
X188904218Y-78854020D01*
X189782670Y-79732472D01*
X189807203Y-79769187D01*
X189501471Y-79973471D01*
X189230000Y-80379756D01*
X188958529Y-79973471D01*
X188500400Y-79667359D01*
X188096407Y-79587000D01*
X187823593Y-79587000D01*
X187419600Y-79667359D01*
X186961471Y-79973471D01*
X186655359Y-80431600D01*
X186547867Y-80972000D01*
X186655359Y-81512400D01*
X186961471Y-81970529D01*
X187419600Y-82276641D01*
X187823593Y-82357000D01*
X188096407Y-82357000D01*
X188500400Y-82276641D01*
X188958529Y-81970529D01*
X189230000Y-81564244D01*
X189501471Y-81970529D01*
X189959600Y-82276641D01*
X190363593Y-82357000D01*
X190636407Y-82357000D01*
X191040400Y-82276641D01*
X191498529Y-81970529D01*
X191804641Y-81512400D01*
X191912133Y-80972000D01*
X191804641Y-80431600D01*
X191655312Y-80208113D01*
X194862670Y-83415472D01*
X194905071Y-83478929D01*
X195156463Y-83646904D01*
X195378148Y-83691000D01*
X195378152Y-83691000D01*
X195453000Y-83705888D01*
X195527848Y-83691000D01*
X199217000Y-83691000D01*
X199217000Y-84005983D01*
X199359345Y-84349635D01*
X199622365Y-84612655D01*
X199966017Y-84755000D01*
X200337983Y-84755000D01*
X200453866Y-84707000D01*
X202504199Y-84707000D01*
X203080199Y-85283000D01*
X203063593Y-85283000D01*
X202659600Y-85363359D01*
X202201471Y-85669471D01*
X201895359Y-86127600D01*
X201787867Y-86668000D01*
X201895359Y-87208400D01*
X202177063Y-87630000D01*
X201895359Y-88051600D01*
X201787867Y-88592000D01*
X201895359Y-89132400D01*
X202201471Y-89590529D01*
X202659600Y-89896641D01*
X203063593Y-89977000D01*
X203336407Y-89977000D01*
X203740400Y-89896641D01*
X204198529Y-89590529D01*
X204470000Y-89184244D01*
X204741471Y-89590529D01*
X205199600Y-89896641D01*
X205603593Y-89977000D01*
X205876407Y-89977000D01*
X206280400Y-89896641D01*
X206738529Y-89590529D01*
X207044641Y-89132400D01*
X207152133Y-88592000D01*
X207044641Y-88051600D01*
X206762937Y-87630000D01*
X207044641Y-87208400D01*
X207152133Y-86668000D01*
X207044641Y-86127600D01*
X206738529Y-85669471D01*
X206413080Y-85452013D01*
X206819228Y-85180633D01*
X206878073Y-85322698D01*
X207056701Y-85501327D01*
X207290090Y-85598000D01*
X207994250Y-85598000D01*
X208153000Y-85439250D01*
X208153000Y-84074000D01*
X208133000Y-84074000D01*
X208133000Y-83820000D01*
X208153000Y-83820000D01*
X208153000Y-82454750D01*
X207994250Y-82296000D01*
X207290090Y-82296000D01*
X207056701Y-82392673D01*
X206878073Y-82571302D01*
X206819228Y-82713367D01*
X206324724Y-82382950D01*
X206035336Y-82325387D01*
X206280400Y-82276641D01*
X206738529Y-81970529D01*
X207044641Y-81512400D01*
X207152133Y-80972000D01*
X207044641Y-80431600D01*
X206738529Y-79973471D01*
X206280400Y-79667359D01*
X206077501Y-79627000D01*
X208473199Y-79627000D01*
X209475945Y-80629747D01*
X209407867Y-80972000D01*
X209515359Y-81512400D01*
X209821471Y-81970529D01*
X210279600Y-82276641D01*
X210524664Y-82325387D01*
X210235275Y-82382950D01*
X209740772Y-82713367D01*
X209681927Y-82571302D01*
X209503299Y-82392673D01*
X209269910Y-82296000D01*
X208565750Y-82296000D01*
X208407000Y-82454750D01*
X208407000Y-83820000D01*
X208427000Y-83820000D01*
X208427000Y-84074000D01*
X208407000Y-84074000D01*
X208407000Y-85439250D01*
X208565750Y-85598000D01*
X209269910Y-85598000D01*
X209503299Y-85501327D01*
X209681927Y-85322698D01*
X209740772Y-85180633D01*
X210146920Y-85452013D01*
X209821471Y-85669471D01*
X209515359Y-86127600D01*
X209407867Y-86668000D01*
X209515359Y-87208400D01*
X209797063Y-87630000D01*
X209515359Y-88051600D01*
X209407867Y-88592000D01*
X209430652Y-88706547D01*
X207457199Y-90680000D01*
X197926802Y-90680000D01*
X196682190Y-89435389D01*
X196850000Y-89184244D01*
X197121471Y-89590529D01*
X197579600Y-89896641D01*
X197983593Y-89977000D01*
X198256407Y-89977000D01*
X198660400Y-89896641D01*
X199118529Y-89590529D01*
X199424641Y-89132400D01*
X199532133Y-88592000D01*
X199424641Y-88051600D01*
X199142937Y-87630000D01*
X199424641Y-87208400D01*
X199532133Y-86668000D01*
X199424641Y-86127600D01*
X199118529Y-85669471D01*
X198660400Y-85363359D01*
X198256407Y-85283000D01*
X197983593Y-85283000D01*
X197579600Y-85363359D01*
X197121471Y-85669471D01*
X196850000Y-86075756D01*
X196578529Y-85669471D01*
X196120400Y-85363359D01*
X195716407Y-85283000D01*
X195443593Y-85283000D01*
X195039600Y-85363359D01*
X194581471Y-85669471D01*
X194275359Y-86127600D01*
X194167867Y-86668000D01*
X194275359Y-87208400D01*
X194557063Y-87630000D01*
X194275359Y-88051600D01*
X194167867Y-88592000D01*
X194274934Y-89130264D01*
X193741199Y-89664000D01*
X193622848Y-89664000D01*
X193548000Y-89649112D01*
X193473152Y-89664000D01*
X193473148Y-89664000D01*
X193299605Y-89698520D01*
X193251462Y-89708096D01*
X193064418Y-89833076D01*
X193000071Y-89876071D01*
X192957672Y-89939526D01*
X192471199Y-90426000D01*
X190560802Y-90426000D01*
X190049281Y-89914480D01*
X190363593Y-89977000D01*
X190636407Y-89977000D01*
X191040400Y-89896641D01*
X191498529Y-89590529D01*
X191804641Y-89132400D01*
X191912133Y-88592000D01*
X191804641Y-88051600D01*
X191522937Y-87630000D01*
X191804641Y-87208400D01*
X191912133Y-86668000D01*
X191804641Y-86127600D01*
X191498529Y-85669471D01*
X191040400Y-85363359D01*
X190636407Y-85283000D01*
X190363593Y-85283000D01*
X189959600Y-85363359D01*
X189501471Y-85669471D01*
X189230000Y-86075756D01*
X188958529Y-85669471D01*
X188500400Y-85363359D01*
X188096407Y-85283000D01*
X187823593Y-85283000D01*
X187419600Y-85363359D01*
X186961471Y-85669471D01*
X186655359Y-86127600D01*
X186547867Y-86668000D01*
X186655359Y-87208400D01*
X186937063Y-87630000D01*
X186655359Y-88051600D01*
X186547867Y-88592000D01*
X186612793Y-88918405D01*
X185867199Y-89664000D01*
X183768572Y-89664000D01*
X183878529Y-89590529D01*
X184184641Y-89132400D01*
X184292133Y-88592000D01*
X184184641Y-88051600D01*
X183902937Y-87630000D01*
X184184641Y-87208400D01*
X184292133Y-86668000D01*
X184184641Y-86127600D01*
X183878529Y-85669471D01*
X183420400Y-85363359D01*
X183016407Y-85283000D01*
X182743593Y-85283000D01*
X182339600Y-85363359D01*
X181881471Y-85669471D01*
X181610000Y-86075756D01*
X181338529Y-85669471D01*
X180880400Y-85363359D01*
X180476407Y-85283000D01*
X180203593Y-85283000D01*
X179799600Y-85363359D01*
X179341471Y-85669471D01*
X179035359Y-86127600D01*
X178927867Y-86668000D01*
X179035359Y-87208400D01*
X179317063Y-87630000D01*
X179089049Y-87971247D01*
X177501331Y-86383530D01*
X177458929Y-86320071D01*
X177207537Y-86152096D01*
X176985852Y-86108000D01*
X176985847Y-86108000D01*
X176911000Y-86093112D01*
X176836153Y-86108000D01*
X176551545Y-86108000D01*
X176258529Y-85669471D01*
X175800400Y-85363359D01*
X175396407Y-85283000D01*
X175123593Y-85283000D01*
X174719600Y-85363359D01*
X174373343Y-85594721D01*
X174560141Y-82170094D01*
X174719600Y-82276641D01*
X175123593Y-82357000D01*
X175396407Y-82357000D01*
X175800400Y-82276641D01*
X176258529Y-81970529D01*
X176564641Y-81512400D01*
X176672133Y-80972000D01*
X178927867Y-80972000D01*
X179035359Y-81512400D01*
X179341471Y-81970529D01*
X179799600Y-82276641D01*
X180203593Y-82357000D01*
X180476407Y-82357000D01*
X180880400Y-82276641D01*
X181338529Y-81970529D01*
X181610000Y-81564244D01*
X181881471Y-81970529D01*
X182339600Y-82276641D01*
X182743593Y-82357000D01*
X183016407Y-82357000D01*
X183420400Y-82276641D01*
X183878529Y-81970529D01*
X184184641Y-81512400D01*
X184292133Y-80972000D01*
X184184641Y-80431600D01*
X183878529Y-79973471D01*
X183420400Y-79667359D01*
X183016407Y-79587000D01*
X182743593Y-79587000D01*
X182339600Y-79667359D01*
X181881471Y-79973471D01*
X181610000Y-80379756D01*
X181338529Y-79973471D01*
X180880400Y-79667359D01*
X180476407Y-79587000D01*
X180203593Y-79587000D01*
X179799600Y-79667359D01*
X179341471Y-79973471D01*
X179035359Y-80431600D01*
X178927867Y-80972000D01*
X176672133Y-80972000D01*
X176564641Y-80431600D01*
X176258529Y-79973471D01*
X175800400Y-79667359D01*
X175396407Y-79587000D01*
X175123593Y-79587000D01*
X174719600Y-79667359D01*
X174695785Y-79683271D01*
X174961981Y-74803000D01*
X176116655Y-74803000D01*
X176244792Y-75447188D01*
X176609695Y-75993305D01*
X176732664Y-76075470D01*
X176400350Y-76407784D01*
X176149000Y-77014596D01*
X176149000Y-77671404D01*
X176400350Y-78278216D01*
X176864784Y-78742650D01*
X177471596Y-78994000D01*
X178128404Y-78994000D01*
X178735216Y-78742650D01*
X179199650Y-78278216D01*
X179416062Y-77755750D01*
X182118000Y-77755750D01*
X182118000Y-78358309D01*
X182214673Y-78591698D01*
X182393301Y-78770327D01*
X182626690Y-78867000D01*
X183229250Y-78867000D01*
X183388000Y-78708250D01*
X183388000Y-77597000D01*
X182276750Y-77597000D01*
X182118000Y-77755750D01*
X179416062Y-77755750D01*
X179451000Y-77671404D01*
X179451000Y-77014596D01*
X179271685Y-76581691D01*
X182118000Y-76581691D01*
X182118000Y-77184250D01*
X182276750Y-77343000D01*
X183388000Y-77343000D01*
X183388000Y-76231750D01*
X183229250Y-76073000D01*
X182626690Y-76073000D01*
X182393301Y-76169673D01*
X182214673Y-76348302D01*
X182118000Y-76581691D01*
X179271685Y-76581691D01*
X179199650Y-76407784D01*
X178867336Y-76075470D01*
X178990305Y-75993305D01*
X179355208Y-75447188D01*
X179483345Y-74803000D01*
X179355208Y-74158812D01*
X179137584Y-73833114D01*
X179175698Y-73817327D01*
X179354327Y-73638699D01*
X179451000Y-73405310D01*
X179451000Y-72548750D01*
X179292250Y-72390000D01*
X177927000Y-72390000D01*
X177927000Y-72410000D01*
X177673000Y-72410000D01*
X177673000Y-72390000D01*
X176307750Y-72390000D01*
X176149000Y-72548750D01*
X176149000Y-73405310D01*
X176245673Y-73638699D01*
X176424302Y-73817327D01*
X176462416Y-73833114D01*
X176244792Y-74158812D01*
X176116655Y-74803000D01*
X174961981Y-74803000D01*
X175162834Y-71120690D01*
X176149000Y-71120690D01*
X176149000Y-71977250D01*
X176307750Y-72136000D01*
X177673000Y-72136000D01*
X177673000Y-70770750D01*
X177927000Y-70770750D01*
X177927000Y-72136000D01*
X179292250Y-72136000D01*
X179451000Y-71977250D01*
X179451000Y-71120690D01*
X179354327Y-70887301D01*
X179175698Y-70708673D01*
X178942309Y-70612000D01*
X178085750Y-70612000D01*
X177927000Y-70770750D01*
X177673000Y-70770750D01*
X177514250Y-70612000D01*
X176657691Y-70612000D01*
X176424302Y-70708673D01*
X176245673Y-70887301D01*
X176149000Y-71120690D01*
X175162834Y-71120690D01*
X175332594Y-68008452D01*
X175557702Y-66207583D01*
X178572717Y-66207583D01*
X178690475Y-67377030D01*
X178979793Y-68516226D01*
X179434318Y-69600145D01*
X180044064Y-70604974D01*
X180795635Y-71508641D01*
X181672522Y-72291292D01*
X182655460Y-72935734D01*
X183722855Y-73427810D01*
X184851260Y-73756710D01*
X186015885Y-73915209D01*
X187191145Y-73899824D01*
X188351222Y-73710893D01*
X189470630Y-73352568D01*
X190524779Y-72832719D01*
X190815459Y-72631067D01*
X190871466Y-72687074D01*
X190604613Y-72785736D01*
X190378092Y-73395461D01*
X190402144Y-74045460D01*
X190604613Y-74534264D01*
X190871468Y-74632927D01*
X191844395Y-73660000D01*
X191830253Y-73645858D01*
X192009858Y-73466253D01*
X192024000Y-73480395D01*
X192038143Y-73466253D01*
X192217748Y-73645858D01*
X192203605Y-73660000D01*
X193176532Y-74632927D01*
X193443387Y-74534264D01*
X193669908Y-73924539D01*
X193645856Y-73274540D01*
X193443387Y-72785736D01*
X193176534Y-72687074D01*
X193208608Y-72655000D01*
X193599330Y-72655000D01*
X194163507Y-72421310D01*
X194595310Y-71989507D01*
X194829000Y-71425330D01*
X194829000Y-70814670D01*
X196331000Y-70814670D01*
X196331000Y-71425330D01*
X196564690Y-71989507D01*
X196996493Y-72421310D01*
X197560670Y-72655000D01*
X197951392Y-72655000D01*
X197983466Y-72687074D01*
X197716613Y-72785736D01*
X197490092Y-73395461D01*
X197514144Y-74045460D01*
X197716613Y-74534264D01*
X197983468Y-74632927D01*
X198956395Y-73660000D01*
X199315605Y-73660000D01*
X200288532Y-74632927D01*
X200555387Y-74534264D01*
X200781908Y-73924539D01*
X200757856Y-73274540D01*
X200555387Y-72785736D01*
X200288532Y-72687073D01*
X199315605Y-73660000D01*
X198956395Y-73660000D01*
X198942253Y-73645858D01*
X199121858Y-73466253D01*
X199136000Y-73480395D01*
X200108927Y-72507468D01*
X200010264Y-72240613D01*
X199400539Y-72014092D01*
X199132819Y-72023998D01*
X199167310Y-71989507D01*
X199401000Y-71425330D01*
X199401000Y-70814670D01*
X199167310Y-70250493D01*
X198735507Y-69818690D01*
X198171330Y-69585000D01*
X197560670Y-69585000D01*
X196996493Y-69818690D01*
X196564690Y-70250493D01*
X196331000Y-70814670D01*
X194829000Y-70814670D01*
X194595310Y-70250493D01*
X194163507Y-69818690D01*
X193599330Y-69585000D01*
X193559740Y-69585000D01*
X193657501Y-69413953D01*
X194083497Y-68318508D01*
X194132091Y-68103751D01*
X209189320Y-68103751D01*
X209189320Y-69193990D01*
X209285993Y-69427379D01*
X209464621Y-69606008D01*
X209698010Y-69702681D01*
X210788250Y-69702681D01*
X210947000Y-69543931D01*
X210947000Y-67945001D01*
X211201000Y-67945001D01*
X211201000Y-69543931D01*
X211359750Y-69702681D01*
X212449990Y-69702681D01*
X212683379Y-69606008D01*
X212862007Y-69427379D01*
X212958680Y-69193990D01*
X212958680Y-68103751D01*
X212799930Y-67945001D01*
X211201000Y-67945001D01*
X210947000Y-67945001D01*
X209348070Y-67945001D01*
X209189320Y-68103751D01*
X194132091Y-68103751D01*
X194342896Y-67172129D01*
X194430000Y-66000000D01*
X194419132Y-65584976D01*
X194270803Y-64419012D01*
X194167859Y-64054000D01*
X194495983Y-64054000D01*
X194839635Y-63911655D01*
X194872290Y-63879000D01*
X202972854Y-63879000D01*
X202953560Y-63976000D01*
X202953560Y-66376000D01*
X203002843Y-66623765D01*
X203143191Y-66833809D01*
X203353235Y-66974157D01*
X203601000Y-67023440D01*
X206101000Y-67023440D01*
X206348765Y-66974157D01*
X206558809Y-66833809D01*
X206699157Y-66623765D01*
X206735309Y-66442012D01*
X209189320Y-66442012D01*
X209189320Y-67532251D01*
X209348070Y-67691001D01*
X210947000Y-67691001D01*
X210947000Y-66092071D01*
X211201000Y-66092071D01*
X211201000Y-67691001D01*
X212799930Y-67691001D01*
X212958680Y-67532251D01*
X212958680Y-66442012D01*
X212862007Y-66208623D01*
X212683379Y-66029994D01*
X212449990Y-65933321D01*
X211359750Y-65933321D01*
X211201000Y-66092071D01*
X210947000Y-66092071D01*
X210788250Y-65933321D01*
X209698010Y-65933321D01*
X209464621Y-66029994D01*
X209285993Y-66208623D01*
X209189320Y-66442012D01*
X206735309Y-66442012D01*
X206748440Y-66376000D01*
X206748440Y-63976000D01*
X206729146Y-63879000D01*
X215418854Y-63879000D01*
X215399560Y-63976000D01*
X215399560Y-66376000D01*
X215448843Y-66623765D01*
X215589191Y-66833809D01*
X215799235Y-66974157D01*
X216047000Y-67023440D01*
X218547000Y-67023440D01*
X218794765Y-66974157D01*
X219004809Y-66833809D01*
X219145157Y-66623765D01*
X219194440Y-66376000D01*
X219194440Y-63976000D01*
X219175146Y-63879000D01*
X228666199Y-63879000D01*
X236030246Y-71243048D01*
X236072646Y-71306504D01*
X236324038Y-71474479D01*
X236471039Y-71503719D01*
X235374148Y-72600610D01*
X235233800Y-72810654D01*
X235184517Y-73058419D01*
X235233800Y-73306184D01*
X235374148Y-73516228D01*
X236363772Y-74505852D01*
X236573816Y-74646200D01*
X236821581Y-74695483D01*
X237069346Y-74646200D01*
X237279390Y-74505852D01*
X238906612Y-72878630D01*
X238966684Y-72788727D01*
X239121425Y-72819507D01*
X239369190Y-72770224D01*
X239579234Y-72629876D01*
X240992726Y-71216384D01*
X241133074Y-71006340D01*
X241182357Y-70758575D01*
X241133074Y-70510810D01*
X240992726Y-70300766D01*
X239579234Y-68887274D01*
X239369190Y-68746926D01*
X239121425Y-68697643D01*
X238873660Y-68746926D01*
X238663616Y-68887274D01*
X237552315Y-69998575D01*
X236935377Y-69998575D01*
X232303888Y-65367086D01*
X235294519Y-65367086D01*
X235294519Y-65591593D01*
X236065435Y-66362509D01*
X236298824Y-66459182D01*
X236551443Y-66459181D01*
X236784832Y-66362508D01*
X237555747Y-65591593D01*
X237555747Y-65367086D01*
X236425133Y-64236472D01*
X235294519Y-65367086D01*
X232303888Y-65367086D01*
X231119978Y-64183176D01*
X234022818Y-64183176D01*
X234119491Y-64416565D01*
X234890407Y-65187481D01*
X235114914Y-65187481D01*
X236245528Y-64056867D01*
X236604738Y-64056867D01*
X237735352Y-65187481D01*
X237959859Y-65187481D01*
X238730774Y-64416566D01*
X238827447Y-64183177D01*
X238827448Y-63930558D01*
X238730775Y-63697169D01*
X237959859Y-62926253D01*
X237735352Y-62926253D01*
X236604738Y-64056867D01*
X236245528Y-64056867D01*
X235114914Y-62926253D01*
X234890407Y-62926253D01*
X234119492Y-63697168D01*
X234022819Y-63930557D01*
X234022818Y-64183176D01*
X231119978Y-64183176D01*
X229571331Y-62634530D01*
X229528929Y-62571071D01*
X229455701Y-62522141D01*
X235294519Y-62522141D01*
X235294519Y-62746648D01*
X236425133Y-63877262D01*
X237555747Y-62746648D01*
X237555747Y-62522141D01*
X236784831Y-61751225D01*
X236551442Y-61654552D01*
X236298823Y-61654553D01*
X236065434Y-61751226D01*
X235294519Y-62522141D01*
X229455701Y-62522141D01*
X229277537Y-62403096D01*
X229055852Y-62359000D01*
X229055847Y-62359000D01*
X228981000Y-62344112D01*
X228906153Y-62359000D01*
X212594339Y-62359000D01*
X212671755Y-62281584D01*
X212958680Y-61588885D01*
X212958680Y-60839113D01*
X212671755Y-60146414D01*
X212141585Y-59616244D01*
X211448886Y-59329319D01*
X210699114Y-59329319D01*
X210006415Y-59616244D01*
X209476245Y-60146414D01*
X209189320Y-60839113D01*
X209189320Y-61588885D01*
X209476245Y-62281584D01*
X209553661Y-62359000D01*
X194872290Y-62359000D01*
X194839635Y-62326345D01*
X194495983Y-62184000D01*
X194124017Y-62184000D01*
X193780365Y-62326345D01*
X193599942Y-62506768D01*
X193469020Y-62216131D01*
X192833180Y-61227607D01*
X192058210Y-60343924D01*
X191161137Y-59584495D01*
X190161667Y-58966004D01*
X189081755Y-58502038D01*
X187945128Y-58202789D01*
X186776753Y-58074831D01*
X185602299Y-58120975D01*
X184447565Y-58340208D01*
X183337920Y-58727714D01*
X182297740Y-59274979D01*
X181349877Y-59969981D01*
X180515153Y-60797452D01*
X179811906Y-61739214D01*
X179255585Y-62774578D01*
X178858411Y-63880800D01*
X178629109Y-65033576D01*
X178572717Y-66207583D01*
X175557702Y-66207583D01*
X176578728Y-58039378D01*
X177716761Y-56332329D01*
X178458877Y-55590213D01*
X182714392Y-55590213D01*
X182783857Y-55832397D01*
X183307302Y-56019144D01*
X183862368Y-55991362D01*
X184246143Y-55832397D01*
X184315608Y-55590213D01*
X183515000Y-54789605D01*
X182714392Y-55590213D01*
X178458877Y-55590213D01*
X178887334Y-55161757D01*
X180026517Y-54402302D01*
X182105856Y-54402302D01*
X182133638Y-54957368D01*
X182292603Y-55341143D01*
X182534787Y-55410608D01*
X183335395Y-54610000D01*
X182534787Y-53809392D01*
X182292603Y-53878857D01*
X182105856Y-54402302D01*
X180026517Y-54402302D01*
X180654727Y-53983496D01*
X181715854Y-53629787D01*
X182714392Y-53629787D01*
X183515000Y-54430395D01*
X184315608Y-53629787D01*
X184246143Y-53387603D01*
X183722698Y-53200856D01*
X183167632Y-53228638D01*
X182783857Y-53387603D01*
X182714392Y-53629787D01*
X181715854Y-53629787D01*
X182443654Y-53387187D01*
X184872402Y-52780000D01*
X239295564Y-52780000D01*
X243538382Y-53992235D01*
G36*
X225012690Y-70250493D02*
X224779000Y-70814670D01*
X224779000Y-71425330D01*
X225012690Y-71989507D01*
X225046954Y-72023771D01*
X224658540Y-72038144D01*
X224169736Y-72240613D01*
X224071073Y-72507468D01*
X225044000Y-73480395D01*
X225058143Y-73466253D01*
X225237748Y-73645858D01*
X225223605Y-73660000D01*
X226196532Y-74632927D01*
X226463387Y-74534264D01*
X226689908Y-73924539D01*
X226665856Y-73274540D01*
X226463387Y-72785736D01*
X226196534Y-72687074D01*
X226228608Y-72655000D01*
X226619330Y-72655000D01*
X227183507Y-72421310D01*
X227615310Y-71989507D01*
X227849000Y-71425330D01*
X227849000Y-70814670D01*
X227615310Y-70250493D01*
X227466817Y-70102000D01*
X229733183Y-70102000D01*
X229584690Y-70250493D01*
X229351000Y-70814670D01*
X229351000Y-71425330D01*
X229470755Y-71714444D01*
X228750528Y-72434671D01*
X228687072Y-72477071D01*
X228644672Y-72540527D01*
X228644671Y-72540528D01*
X228519097Y-72728463D01*
X228460112Y-73025000D01*
X228475001Y-73099852D01*
X228475000Y-77155198D01*
X228092000Y-77538198D01*
X228092000Y-77192119D01*
X227879320Y-76678663D01*
X227486337Y-76285680D01*
X226972881Y-76073000D01*
X226417119Y-76073000D01*
X225903663Y-76285680D01*
X225510680Y-76678663D01*
X225425000Y-76885513D01*
X225339320Y-76678663D01*
X224946337Y-76285680D01*
X224432881Y-76073000D01*
X223877119Y-76073000D01*
X223363663Y-76285680D01*
X222970680Y-76678663D01*
X222885000Y-76885513D01*
X222799320Y-76678663D01*
X222406337Y-76285680D01*
X221892881Y-76073000D01*
X221337119Y-76073000D01*
X220823663Y-76285680D01*
X220430680Y-76678663D01*
X220345000Y-76885513D01*
X220259320Y-76678663D01*
X219866337Y-76285680D01*
X219352881Y-76073000D01*
X218797119Y-76073000D01*
X218283663Y-76285680D01*
X217890680Y-76678663D01*
X217805000Y-76885513D01*
X217719320Y-76678663D01*
X217326337Y-76285680D01*
X216812881Y-76073000D01*
X216257119Y-76073000D01*
X215743663Y-76285680D01*
X215350680Y-76678663D01*
X215265000Y-76885513D01*
X215179320Y-76678663D01*
X214786337Y-76285680D01*
X214272881Y-76073000D01*
X213717119Y-76073000D01*
X213203663Y-76285680D01*
X212810680Y-76678663D01*
X212725000Y-76885513D01*
X212639320Y-76678663D01*
X212246337Y-76285680D01*
X211732881Y-76073000D01*
X211177119Y-76073000D01*
X210663663Y-76285680D01*
X210270680Y-76678663D01*
X210185000Y-76885513D01*
X210099320Y-76678663D01*
X209706337Y-76285680D01*
X209192881Y-76073000D01*
X208637119Y-76073000D01*
X208123663Y-76285680D01*
X207730680Y-76678663D01*
X207645000Y-76885513D01*
X207559320Y-76678663D01*
X207166337Y-76285680D01*
X206652881Y-76073000D01*
X206097119Y-76073000D01*
X205583663Y-76285680D01*
X205190680Y-76678663D01*
X205105000Y-76885513D01*
X205019320Y-76678663D01*
X204626337Y-76285680D01*
X204112881Y-76073000D01*
X203557119Y-76073000D01*
X203043663Y-76285680D01*
X202650680Y-76678663D01*
X202565000Y-76885513D01*
X202479320Y-76678663D01*
X202086337Y-76285680D01*
X201734752Y-76140049D01*
X203062269Y-74812532D01*
X224071073Y-74812532D01*
X224169736Y-75079387D01*
X224779461Y-75305908D01*
X225429460Y-75281856D01*
X225918264Y-75079387D01*
X226016927Y-74812532D01*
X225044000Y-73839605D01*
X224071073Y-74812532D01*
X203062269Y-74812532D01*
X204479340Y-73395461D01*
X223398092Y-73395461D01*
X223422144Y-74045460D01*
X223624613Y-74534264D01*
X223891468Y-74632927D01*
X224864395Y-73660000D01*
X223891468Y-72687073D01*
X223624613Y-72785736D01*
X223398092Y-73395461D01*
X204479340Y-73395461D01*
X204551362Y-73323440D01*
X206101000Y-73323440D01*
X206348765Y-73274157D01*
X206558809Y-73133809D01*
X206699157Y-72923765D01*
X206748440Y-72676000D01*
X206748440Y-72236000D01*
X215399560Y-72236000D01*
X215399560Y-72676000D01*
X215448843Y-72923765D01*
X215589191Y-73133809D01*
X215799235Y-73274157D01*
X216047000Y-73323440D01*
X218547000Y-73323440D01*
X218794765Y-73274157D01*
X219004809Y-73133809D01*
X219145157Y-72923765D01*
X219194440Y-72676000D01*
X219194440Y-70703362D01*
X219795802Y-70102000D01*
X225161183Y-70102000D01*
X225012690Y-70250493D01*
X225012690Y-70250493D01*
G37*
X225012690Y-70250493D02*
X224779000Y-70814670D01*
X224779000Y-71425330D01*
X225012690Y-71989507D01*
X225046954Y-72023771D01*
X224658540Y-72038144D01*
X224169736Y-72240613D01*
X224071073Y-72507468D01*
X225044000Y-73480395D01*
X225058143Y-73466253D01*
X225237748Y-73645858D01*
X225223605Y-73660000D01*
X226196532Y-74632927D01*
X226463387Y-74534264D01*
X226689908Y-73924539D01*
X226665856Y-73274540D01*
X226463387Y-72785736D01*
X226196534Y-72687074D01*
X226228608Y-72655000D01*
X226619330Y-72655000D01*
X227183507Y-72421310D01*
X227615310Y-71989507D01*
X227849000Y-71425330D01*
X227849000Y-70814670D01*
X227615310Y-70250493D01*
X227466817Y-70102000D01*
X229733183Y-70102000D01*
X229584690Y-70250493D01*
X229351000Y-70814670D01*
X229351000Y-71425330D01*
X229470755Y-71714444D01*
X228750528Y-72434671D01*
X228687072Y-72477071D01*
X228644672Y-72540527D01*
X228644671Y-72540528D01*
X228519097Y-72728463D01*
X228460112Y-73025000D01*
X228475001Y-73099852D01*
X228475000Y-77155198D01*
X228092000Y-77538198D01*
X228092000Y-77192119D01*
X227879320Y-76678663D01*
X227486337Y-76285680D01*
X226972881Y-76073000D01*
X226417119Y-76073000D01*
X225903663Y-76285680D01*
X225510680Y-76678663D01*
X225425000Y-76885513D01*
X225339320Y-76678663D01*
X224946337Y-76285680D01*
X224432881Y-76073000D01*
X223877119Y-76073000D01*
X223363663Y-76285680D01*
X222970680Y-76678663D01*
X222885000Y-76885513D01*
X222799320Y-76678663D01*
X222406337Y-76285680D01*
X221892881Y-76073000D01*
X221337119Y-76073000D01*
X220823663Y-76285680D01*
X220430680Y-76678663D01*
X220345000Y-76885513D01*
X220259320Y-76678663D01*
X219866337Y-76285680D01*
X219352881Y-76073000D01*
X218797119Y-76073000D01*
X218283663Y-76285680D01*
X217890680Y-76678663D01*
X217805000Y-76885513D01*
X217719320Y-76678663D01*
X217326337Y-76285680D01*
X216812881Y-76073000D01*
X216257119Y-76073000D01*
X215743663Y-76285680D01*
X215350680Y-76678663D01*
X215265000Y-76885513D01*
X215179320Y-76678663D01*
X214786337Y-76285680D01*
X214272881Y-76073000D01*
X213717119Y-76073000D01*
X213203663Y-76285680D01*
X212810680Y-76678663D01*
X212725000Y-76885513D01*
X212639320Y-76678663D01*
X212246337Y-76285680D01*
X211732881Y-76073000D01*
X211177119Y-76073000D01*
X210663663Y-76285680D01*
X210270680Y-76678663D01*
X210185000Y-76885513D01*
X210099320Y-76678663D01*
X209706337Y-76285680D01*
X209192881Y-76073000D01*
X208637119Y-76073000D01*
X208123663Y-76285680D01*
X207730680Y-76678663D01*
X207645000Y-76885513D01*
X207559320Y-76678663D01*
X207166337Y-76285680D01*
X206652881Y-76073000D01*
X206097119Y-76073000D01*
X205583663Y-76285680D01*
X205190680Y-76678663D01*
X205105000Y-76885513D01*
X205019320Y-76678663D01*
X204626337Y-76285680D01*
X204112881Y-76073000D01*
X203557119Y-76073000D01*
X203043663Y-76285680D01*
X202650680Y-76678663D01*
X202565000Y-76885513D01*
X202479320Y-76678663D01*
X202086337Y-76285680D01*
X201734752Y-76140049D01*
X203062269Y-74812532D01*
X224071073Y-74812532D01*
X224169736Y-75079387D01*
X224779461Y-75305908D01*
X225429460Y-75281856D01*
X225918264Y-75079387D01*
X226016927Y-74812532D01*
X225044000Y-73839605D01*
X224071073Y-74812532D01*
X203062269Y-74812532D01*
X204479340Y-73395461D01*
X223398092Y-73395461D01*
X223422144Y-74045460D01*
X223624613Y-74534264D01*
X223891468Y-74632927D01*
X224864395Y-73660000D01*
X223891468Y-72687073D01*
X223624613Y-72785736D01*
X223398092Y-73395461D01*
X204479340Y-73395461D01*
X204551362Y-73323440D01*
X206101000Y-73323440D01*
X206348765Y-73274157D01*
X206558809Y-73133809D01*
X206699157Y-72923765D01*
X206748440Y-72676000D01*
X206748440Y-72236000D01*
X215399560Y-72236000D01*
X215399560Y-72676000D01*
X215448843Y-72923765D01*
X215589191Y-73133809D01*
X215799235Y-73274157D01*
X216047000Y-73323440D01*
X218547000Y-73323440D01*
X218794765Y-73274157D01*
X219004809Y-73133809D01*
X219145157Y-72923765D01*
X219194440Y-72676000D01*
X219194440Y-70703362D01*
X219795802Y-70102000D01*
X225161183Y-70102000D01*
X225012690Y-70250493D01*
G04 #@! TD*
M02*
