G04 #@! TF.GenerationSoftware,KiCad,Pcbnew,5.0.2+dfsg1-1~bpo9+1*
G04 #@! TF.CreationDate,2021-02-20T06:45:01-05:00*
G04 #@! TF.ProjectId,vexas,76657861-732e-46b6-9963-61645f706362,rev?*
G04 #@! TF.SameCoordinates,Original*
G04 #@! TF.FileFunction,Legend,Top*
G04 #@! TF.FilePolarity,Positive*
%FSLAX46Y46*%
G04 Gerber Fmt 4.6, Leading zero omitted, Abs format (unit mm)*
G04 Created by KiCad (PCBNEW 5.0.2+dfsg1-1~bpo9+1) date Sat 20 Feb 2021 06:45:01 AM EST*
%MOMM*%
%LPD*%
G01*
G04 APERTURE LIST*
%ADD10C,0.300000*%
%ADD11C,0.150000*%
G04 APERTURE END LIST*
D10*
X176160857Y-71640000D02*
X176018000Y-71568571D01*
X175803714Y-71568571D01*
X175589428Y-71640000D01*
X175446571Y-71782857D01*
X175375142Y-71925714D01*
X175303714Y-72211428D01*
X175303714Y-72425714D01*
X175375142Y-72711428D01*
X175446571Y-72854285D01*
X175589428Y-72997142D01*
X175803714Y-73068571D01*
X175946571Y-73068571D01*
X176160857Y-72997142D01*
X176232285Y-72925714D01*
X176232285Y-72425714D01*
X175946571Y-72425714D01*
X175339428Y-76902571D02*
X176196571Y-76902571D01*
X175768000Y-78402571D02*
X175768000Y-76902571D01*
X176232285Y-75608571D02*
X175732285Y-74894285D01*
X175375142Y-75608571D02*
X175375142Y-74108571D01*
X175946571Y-74108571D01*
X176089428Y-74180000D01*
X176160857Y-74251428D01*
X176232285Y-74394285D01*
X176232285Y-74608571D01*
X176160857Y-74751428D01*
X176089428Y-74822857D01*
X175946571Y-74894285D01*
X175375142Y-74894285D01*
D11*
G04 #@! TO.C,BZ1*
X244760000Y-61722000D02*
G75*
G03X244760000Y-61722000I-6000000J0D01*
G01*
G04 #@! TO.C,BZ2*
X217074000Y-64516000D02*
G75*
G03X217074000Y-64516000I-6000000J0D01*
G01*
G04 #@! TO.C,P1*
X179350000Y-78893000D02*
X176250000Y-78893000D01*
X179350000Y-77343000D02*
X179350000Y-78893000D01*
X176250000Y-78893000D02*
X176250000Y-77343000D01*
G04 #@! TO.C,K37*
X224790000Y-74930000D02*
X232410000Y-74930000D01*
X232410000Y-74930000D02*
X232410000Y-68580000D01*
X232410000Y-68580000D02*
X231140000Y-68580000D01*
X231140000Y-68580000D02*
X231140000Y-66040000D01*
X231140000Y-66040000D02*
X226060000Y-66040000D01*
X226060000Y-66040000D02*
X226060000Y-68580000D01*
X226060000Y-68580000D02*
X224790000Y-68580000D01*
X224790000Y-68580000D02*
X224790000Y-74930000D01*
G04 #@! TO.C,K34*
X191770000Y-74930000D02*
X199390000Y-74930000D01*
X199390000Y-74930000D02*
X199390000Y-68580000D01*
X199390000Y-68580000D02*
X198120000Y-68580000D01*
X198120000Y-68580000D02*
X198120000Y-66040000D01*
X198120000Y-66040000D02*
X193040000Y-66040000D01*
X193040000Y-66040000D02*
X193040000Y-68580000D01*
X193040000Y-68580000D02*
X191770000Y-68580000D01*
X191770000Y-68580000D02*
X191770000Y-74930000D01*
G04 #@! TO.C,K11*
X173990000Y-87630000D02*
X181610000Y-87630000D01*
X181610000Y-87630000D02*
X181610000Y-95250000D01*
X181610000Y-95250000D02*
X173990000Y-95250000D01*
X173990000Y-95250000D02*
X173990000Y-87630000D01*
G04 #@! TO.C,K1*
X173990000Y-80010000D02*
X181610000Y-80010000D01*
X181610000Y-80010000D02*
X181610000Y-87630000D01*
X181610000Y-87630000D02*
X173990000Y-87630000D01*
X173990000Y-87630000D02*
X173990000Y-80010000D01*
G04 #@! TO.C,K2*
X181610000Y-80010000D02*
X189230000Y-80010000D01*
X189230000Y-80010000D02*
X189230000Y-87630000D01*
X189230000Y-87630000D02*
X181610000Y-87630000D01*
X181610000Y-87630000D02*
X181610000Y-80010000D01*
G04 #@! TO.C,K3*
X189230000Y-80010000D02*
X196850000Y-80010000D01*
X196850000Y-80010000D02*
X196850000Y-87630000D01*
X196850000Y-87630000D02*
X189230000Y-87630000D01*
X189230000Y-87630000D02*
X189230000Y-80010000D01*
G04 #@! TO.C,K4*
X196850000Y-80010000D02*
X204470000Y-80010000D01*
X204470000Y-80010000D02*
X204470000Y-87630000D01*
X204470000Y-87630000D02*
X196850000Y-87630000D01*
X196850000Y-87630000D02*
X196850000Y-80010000D01*
G04 #@! TO.C,K5*
X204470000Y-80010000D02*
X212090000Y-80010000D01*
X212090000Y-80010000D02*
X212090000Y-87630000D01*
X212090000Y-87630000D02*
X204470000Y-87630000D01*
X204470000Y-87630000D02*
X204470000Y-80010000D01*
G04 #@! TO.C,K6*
X212090000Y-80010000D02*
X219710000Y-80010000D01*
X219710000Y-80010000D02*
X219710000Y-87630000D01*
X219710000Y-87630000D02*
X212090000Y-87630000D01*
X212090000Y-87630000D02*
X212090000Y-80010000D01*
G04 #@! TO.C,K7*
X219710000Y-80010000D02*
X227330000Y-80010000D01*
X227330000Y-80010000D02*
X227330000Y-87630000D01*
X227330000Y-87630000D02*
X219710000Y-87630000D01*
X219710000Y-87630000D02*
X219710000Y-80010000D01*
G04 #@! TO.C,K8*
X227330000Y-80010000D02*
X234950000Y-80010000D01*
X234950000Y-80010000D02*
X234950000Y-87630000D01*
X234950000Y-87630000D02*
X227330000Y-87630000D01*
X227330000Y-87630000D02*
X227330000Y-80010000D01*
G04 #@! TO.C,K9*
X234950000Y-80010000D02*
X242570000Y-80010000D01*
X242570000Y-80010000D02*
X242570000Y-87630000D01*
X242570000Y-87630000D02*
X234950000Y-87630000D01*
X234950000Y-87630000D02*
X234950000Y-80010000D01*
G04 #@! TO.C,K10*
X242570000Y-80010000D02*
X250190000Y-80010000D01*
X250190000Y-80010000D02*
X250190000Y-87630000D01*
X250190000Y-87630000D02*
X242570000Y-87630000D01*
X242570000Y-87630000D02*
X242570000Y-80010000D01*
G04 #@! TO.C,K12*
X181610000Y-87630000D02*
X189230000Y-87630000D01*
X189230000Y-87630000D02*
X189230000Y-95250000D01*
X189230000Y-95250000D02*
X181610000Y-95250000D01*
X181610000Y-95250000D02*
X181610000Y-87630000D01*
G04 #@! TO.C,K13*
X189230000Y-87630000D02*
X196850000Y-87630000D01*
X196850000Y-87630000D02*
X196850000Y-95250000D01*
X196850000Y-95250000D02*
X189230000Y-95250000D01*
X189230000Y-95250000D02*
X189230000Y-87630000D01*
G04 #@! TO.C,K14*
X196850000Y-87630000D02*
X204470000Y-87630000D01*
X204470000Y-87630000D02*
X204470000Y-95250000D01*
X204470000Y-95250000D02*
X196850000Y-95250000D01*
X196850000Y-95250000D02*
X196850000Y-87630000D01*
G04 #@! TO.C,K15*
X204470000Y-87630000D02*
X212090000Y-87630000D01*
X212090000Y-87630000D02*
X212090000Y-95250000D01*
X212090000Y-95250000D02*
X204470000Y-95250000D01*
X204470000Y-95250000D02*
X204470000Y-87630000D01*
G04 #@! TO.C,K16*
X212090000Y-87630000D02*
X219710000Y-87630000D01*
X219710000Y-87630000D02*
X219710000Y-95250000D01*
X219710000Y-95250000D02*
X212090000Y-95250000D01*
X212090000Y-95250000D02*
X212090000Y-87630000D01*
G04 #@! TO.C,K17*
X219710000Y-87630000D02*
X227330000Y-87630000D01*
X227330000Y-87630000D02*
X227330000Y-95250000D01*
X227330000Y-95250000D02*
X219710000Y-95250000D01*
X219710000Y-95250000D02*
X219710000Y-87630000D01*
G04 #@! TO.C,K18*
X227330000Y-95250000D02*
X227330000Y-87630000D01*
X234950000Y-95250000D02*
X227330000Y-95250000D01*
X234950000Y-87630000D02*
X234950000Y-95250000D01*
X227330000Y-87630000D02*
X234950000Y-87630000D01*
G04 #@! TO.C,K19*
X234950000Y-95250000D02*
X234950000Y-87630000D01*
X242570000Y-95250000D02*
X234950000Y-95250000D01*
X242570000Y-87630000D02*
X242570000Y-95250000D01*
X234950000Y-87630000D02*
X242570000Y-87630000D01*
G04 #@! TO.C,K20*
X242570000Y-95250000D02*
X242570000Y-87630000D01*
X250190000Y-95250000D02*
X242570000Y-95250000D01*
X250190000Y-87630000D02*
X250190000Y-95250000D01*
X242570000Y-87630000D02*
X250190000Y-87630000D01*
G04 #@! TO.C,K21*
X173990000Y-95250000D02*
X181610000Y-95250000D01*
X181610000Y-95250000D02*
X181610000Y-102870000D01*
X181610000Y-102870000D02*
X173990000Y-102870000D01*
X173990000Y-102870000D02*
X173990000Y-95250000D01*
G04 #@! TO.C,K22*
X181610000Y-95250000D02*
X189230000Y-95250000D01*
X189230000Y-95250000D02*
X189230000Y-102870000D01*
X189230000Y-102870000D02*
X181610000Y-102870000D01*
X181610000Y-102870000D02*
X181610000Y-95250000D01*
G04 #@! TO.C,K23*
X189230000Y-95250000D02*
X196850000Y-95250000D01*
X196850000Y-95250000D02*
X196850000Y-102870000D01*
X196850000Y-102870000D02*
X189230000Y-102870000D01*
X189230000Y-102870000D02*
X189230000Y-95250000D01*
G04 #@! TO.C,K24*
X196850000Y-95250000D02*
X204470000Y-95250000D01*
X204470000Y-95250000D02*
X204470000Y-102870000D01*
X204470000Y-102870000D02*
X196850000Y-102870000D01*
X196850000Y-102870000D02*
X196850000Y-95250000D01*
G04 #@! TO.C,K25*
X204470000Y-95250000D02*
X212090000Y-95250000D01*
X212090000Y-95250000D02*
X212090000Y-102870000D01*
X212090000Y-102870000D02*
X204470000Y-102870000D01*
X204470000Y-102870000D02*
X204470000Y-95250000D01*
G04 #@! TO.C,K26*
X212090000Y-95250000D02*
X219710000Y-95250000D01*
X219710000Y-95250000D02*
X219710000Y-102870000D01*
X219710000Y-102870000D02*
X212090000Y-102870000D01*
X212090000Y-102870000D02*
X212090000Y-95250000D01*
G04 #@! TO.C,K27*
X219710000Y-95250000D02*
X227330000Y-95250000D01*
X227330000Y-95250000D02*
X227330000Y-102870000D01*
X227330000Y-102870000D02*
X219710000Y-102870000D01*
X219710000Y-102870000D02*
X219710000Y-95250000D01*
G04 #@! TO.C,K28*
X227330000Y-102870000D02*
X227330000Y-95250000D01*
X234950000Y-102870000D02*
X227330000Y-102870000D01*
X234950000Y-95250000D02*
X234950000Y-102870000D01*
X227330000Y-95250000D02*
X234950000Y-95250000D01*
G04 #@! TO.C,K29*
X234950000Y-102870000D02*
X234950000Y-95250000D01*
X242570000Y-102870000D02*
X234950000Y-102870000D01*
X242570000Y-95250000D02*
X242570000Y-102870000D01*
X234950000Y-95250000D02*
X242570000Y-95250000D01*
G04 #@! TO.C,K30*
X242570000Y-102870000D02*
X242570000Y-95250000D01*
X250190000Y-102870000D02*
X242570000Y-102870000D01*
X250190000Y-95250000D02*
X250190000Y-102870000D01*
X242570000Y-95250000D02*
X250190000Y-95250000D01*
G04 #@! TO.C,K31*
X173990000Y-102870000D02*
X181610000Y-102870000D01*
X181610000Y-102870000D02*
X181610000Y-110490000D01*
X181610000Y-110490000D02*
X173990000Y-110490000D01*
X173990000Y-110490000D02*
X173990000Y-102870000D01*
G04 #@! TO.C,K32*
X181610000Y-102870000D02*
X189230000Y-102870000D01*
X189230000Y-102870000D02*
X189230000Y-110490000D01*
X189230000Y-110490000D02*
X181610000Y-110490000D01*
X181610000Y-110490000D02*
X181610000Y-102870000D01*
G04 #@! TO.C,K33*
X189230000Y-102870000D02*
X196850000Y-102870000D01*
X196850000Y-102870000D02*
X196850000Y-110490000D01*
X196850000Y-110490000D02*
X189230000Y-110490000D01*
X189230000Y-110490000D02*
X189230000Y-102870000D01*
G04 #@! TO.C,K35*
X204470000Y-102870000D02*
X212090000Y-102870000D01*
X212090000Y-102870000D02*
X212090000Y-110490000D01*
X212090000Y-110490000D02*
X204470000Y-110490000D01*
X204470000Y-110490000D02*
X204470000Y-102870000D01*
G04 #@! TO.C,K36*
X212090000Y-102870000D02*
X219710000Y-102870000D01*
X219710000Y-102870000D02*
X219710000Y-110490000D01*
X219710000Y-110490000D02*
X212090000Y-110490000D01*
X212090000Y-110490000D02*
X212090000Y-102870000D01*
G04 #@! TO.C,K38*
X227330000Y-110490000D02*
X227330000Y-102870000D01*
X234950000Y-110490000D02*
X227330000Y-110490000D01*
X234950000Y-102870000D02*
X234950000Y-110490000D01*
X227330000Y-102870000D02*
X234950000Y-102870000D01*
G04 #@! TO.C,K39*
X234950000Y-110490000D02*
X234950000Y-102870000D01*
X242570000Y-110490000D02*
X234950000Y-110490000D01*
X242570000Y-102870000D02*
X242570000Y-110490000D01*
X234950000Y-102870000D02*
X242570000Y-102870000D01*
G04 #@! TO.C,K40*
X242570000Y-110490000D02*
X242570000Y-102870000D01*
X250190000Y-110490000D02*
X242570000Y-110490000D01*
X250190000Y-102870000D02*
X250190000Y-110490000D01*
X242570000Y-102870000D02*
X250190000Y-102870000D01*
G04 #@! TO.C,P2*
X204190000Y-85247000D02*
X205740000Y-85247000D01*
X204190000Y-83947000D02*
X204190000Y-85247000D01*
G04 #@! TO.C,BZ1*
X239148030Y-63707911D02*
X239282717Y-63640568D01*
X239350061Y-63640568D01*
X239451076Y-63674240D01*
X239552091Y-63775255D01*
X239585763Y-63876270D01*
X239585763Y-63943614D01*
X239552091Y-64044629D01*
X239282717Y-64314003D01*
X238575611Y-63606896D01*
X238811313Y-63371194D01*
X238912328Y-63337522D01*
X238979672Y-63337522D01*
X239080687Y-63371194D01*
X239148030Y-63438537D01*
X239181702Y-63539553D01*
X239181702Y-63606896D01*
X239148030Y-63707911D01*
X238912328Y-63943614D01*
X239215374Y-62967133D02*
X239686778Y-62495728D01*
X239922481Y-63674240D01*
X240393885Y-63202835D01*
X241033649Y-62563072D02*
X240629588Y-62967133D01*
X240831618Y-62765102D02*
X240124511Y-62057995D01*
X240158183Y-62226354D01*
X240158183Y-62361041D01*
X240124511Y-62462056D01*
X237643107Y-65813589D02*
X238181855Y-65274841D01*
X242312841Y-61143855D02*
X242851589Y-60605107D01*
X242851589Y-61143855D02*
X242312841Y-60605107D01*
G04 #@! TO.C,P1*
X177061904Y-82895380D02*
X177061904Y-81895380D01*
X177442857Y-81895380D01*
X177538095Y-81943000D01*
X177585714Y-81990619D01*
X177633333Y-82085857D01*
X177633333Y-82228714D01*
X177585714Y-82323952D01*
X177538095Y-82371571D01*
X177442857Y-82419190D01*
X177061904Y-82419190D01*
X178585714Y-82895380D02*
X178014285Y-82895380D01*
X178300000Y-82895380D02*
X178300000Y-81895380D01*
X178204761Y-82038238D01*
X178109523Y-82133476D01*
X178014285Y-82181095D01*
G04 #@! TO.C,K37*
X227385714Y-69667380D02*
X227385714Y-68667380D01*
X227957142Y-69667380D02*
X227528571Y-69095952D01*
X227957142Y-68667380D02*
X227385714Y-69238809D01*
X228290476Y-68667380D02*
X228909523Y-68667380D01*
X228576190Y-69048333D01*
X228719047Y-69048333D01*
X228814285Y-69095952D01*
X228861904Y-69143571D01*
X228909523Y-69238809D01*
X228909523Y-69476904D01*
X228861904Y-69572142D01*
X228814285Y-69619761D01*
X228719047Y-69667380D01*
X228433333Y-69667380D01*
X228338095Y-69619761D01*
X228290476Y-69572142D01*
X229242857Y-68667380D02*
X229909523Y-68667380D01*
X229480952Y-69667380D01*
G04 #@! TO.C,K34*
X194365714Y-69667380D02*
X194365714Y-68667380D01*
X194937142Y-69667380D02*
X194508571Y-69095952D01*
X194937142Y-68667380D02*
X194365714Y-69238809D01*
X195270476Y-68667380D02*
X195889523Y-68667380D01*
X195556190Y-69048333D01*
X195699047Y-69048333D01*
X195794285Y-69095952D01*
X195841904Y-69143571D01*
X195889523Y-69238809D01*
X195889523Y-69476904D01*
X195841904Y-69572142D01*
X195794285Y-69619761D01*
X195699047Y-69667380D01*
X195413333Y-69667380D01*
X195318095Y-69619761D01*
X195270476Y-69572142D01*
X196746666Y-69000714D02*
X196746666Y-69667380D01*
X196508571Y-68619761D02*
X196270476Y-69334047D01*
X196889523Y-69334047D01*
G04 #@! TO.C,K11*
X175315714Y-91892380D02*
X175315714Y-90892380D01*
X175887142Y-91892380D02*
X175458571Y-91320952D01*
X175887142Y-90892380D02*
X175315714Y-91463809D01*
X176839523Y-91892380D02*
X176268095Y-91892380D01*
X176553809Y-91892380D02*
X176553809Y-90892380D01*
X176458571Y-91035238D01*
X176363333Y-91130476D01*
X176268095Y-91178095D01*
X177791904Y-91892380D02*
X177220476Y-91892380D01*
X177506190Y-91892380D02*
X177506190Y-90892380D01*
X177410952Y-91035238D01*
X177315714Y-91130476D01*
X177220476Y-91178095D01*
G04 #@! TO.C,K1*
X175791904Y-84272380D02*
X175791904Y-83272380D01*
X176363333Y-84272380D02*
X175934761Y-83700952D01*
X176363333Y-83272380D02*
X175791904Y-83843809D01*
X177315714Y-84272380D02*
X176744285Y-84272380D01*
X177030000Y-84272380D02*
X177030000Y-83272380D01*
X176934761Y-83415238D01*
X176839523Y-83510476D01*
X176744285Y-83558095D01*
G04 #@! TO.C,K2*
X183411904Y-84272380D02*
X183411904Y-83272380D01*
X183983333Y-84272380D02*
X183554761Y-83700952D01*
X183983333Y-83272380D02*
X183411904Y-83843809D01*
X184364285Y-83367619D02*
X184411904Y-83320000D01*
X184507142Y-83272380D01*
X184745238Y-83272380D01*
X184840476Y-83320000D01*
X184888095Y-83367619D01*
X184935714Y-83462857D01*
X184935714Y-83558095D01*
X184888095Y-83700952D01*
X184316666Y-84272380D01*
X184935714Y-84272380D01*
G04 #@! TO.C,K3*
X191031904Y-84272380D02*
X191031904Y-83272380D01*
X191603333Y-84272380D02*
X191174761Y-83700952D01*
X191603333Y-83272380D02*
X191031904Y-83843809D01*
X191936666Y-83272380D02*
X192555714Y-83272380D01*
X192222380Y-83653333D01*
X192365238Y-83653333D01*
X192460476Y-83700952D01*
X192508095Y-83748571D01*
X192555714Y-83843809D01*
X192555714Y-84081904D01*
X192508095Y-84177142D01*
X192460476Y-84224761D01*
X192365238Y-84272380D01*
X192079523Y-84272380D01*
X191984285Y-84224761D01*
X191936666Y-84177142D01*
G04 #@! TO.C,K4*
X198651904Y-84272380D02*
X198651904Y-83272380D01*
X199223333Y-84272380D02*
X198794761Y-83700952D01*
X199223333Y-83272380D02*
X198651904Y-83843809D01*
X200080476Y-83605714D02*
X200080476Y-84272380D01*
X199842380Y-83224761D02*
X199604285Y-83939047D01*
X200223333Y-83939047D01*
G04 #@! TO.C,K5*
X206271904Y-84272380D02*
X206271904Y-83272380D01*
X206843333Y-84272380D02*
X206414761Y-83700952D01*
X206843333Y-83272380D02*
X206271904Y-83843809D01*
X207748095Y-83272380D02*
X207271904Y-83272380D01*
X207224285Y-83748571D01*
X207271904Y-83700952D01*
X207367142Y-83653333D01*
X207605238Y-83653333D01*
X207700476Y-83700952D01*
X207748095Y-83748571D01*
X207795714Y-83843809D01*
X207795714Y-84081904D01*
X207748095Y-84177142D01*
X207700476Y-84224761D01*
X207605238Y-84272380D01*
X207367142Y-84272380D01*
X207271904Y-84224761D01*
X207224285Y-84177142D01*
G04 #@! TO.C,K6*
X213891904Y-84272380D02*
X213891904Y-83272380D01*
X214463333Y-84272380D02*
X214034761Y-83700952D01*
X214463333Y-83272380D02*
X213891904Y-83843809D01*
X215320476Y-83272380D02*
X215130000Y-83272380D01*
X215034761Y-83320000D01*
X214987142Y-83367619D01*
X214891904Y-83510476D01*
X214844285Y-83700952D01*
X214844285Y-84081904D01*
X214891904Y-84177142D01*
X214939523Y-84224761D01*
X215034761Y-84272380D01*
X215225238Y-84272380D01*
X215320476Y-84224761D01*
X215368095Y-84177142D01*
X215415714Y-84081904D01*
X215415714Y-83843809D01*
X215368095Y-83748571D01*
X215320476Y-83700952D01*
X215225238Y-83653333D01*
X215034761Y-83653333D01*
X214939523Y-83700952D01*
X214891904Y-83748571D01*
X214844285Y-83843809D01*
G04 #@! TO.C,K7*
X221511904Y-84272380D02*
X221511904Y-83272380D01*
X222083333Y-84272380D02*
X221654761Y-83700952D01*
X222083333Y-83272380D02*
X221511904Y-83843809D01*
X222416666Y-83272380D02*
X223083333Y-83272380D01*
X222654761Y-84272380D01*
G04 #@! TO.C,K8*
X229131904Y-84272380D02*
X229131904Y-83272380D01*
X229703333Y-84272380D02*
X229274761Y-83700952D01*
X229703333Y-83272380D02*
X229131904Y-83843809D01*
X230274761Y-83700952D02*
X230179523Y-83653333D01*
X230131904Y-83605714D01*
X230084285Y-83510476D01*
X230084285Y-83462857D01*
X230131904Y-83367619D01*
X230179523Y-83320000D01*
X230274761Y-83272380D01*
X230465238Y-83272380D01*
X230560476Y-83320000D01*
X230608095Y-83367619D01*
X230655714Y-83462857D01*
X230655714Y-83510476D01*
X230608095Y-83605714D01*
X230560476Y-83653333D01*
X230465238Y-83700952D01*
X230274761Y-83700952D01*
X230179523Y-83748571D01*
X230131904Y-83796190D01*
X230084285Y-83891428D01*
X230084285Y-84081904D01*
X230131904Y-84177142D01*
X230179523Y-84224761D01*
X230274761Y-84272380D01*
X230465238Y-84272380D01*
X230560476Y-84224761D01*
X230608095Y-84177142D01*
X230655714Y-84081904D01*
X230655714Y-83891428D01*
X230608095Y-83796190D01*
X230560476Y-83748571D01*
X230465238Y-83700952D01*
G04 #@! TO.C,K9*
X236751904Y-84272380D02*
X236751904Y-83272380D01*
X237323333Y-84272380D02*
X236894761Y-83700952D01*
X237323333Y-83272380D02*
X236751904Y-83843809D01*
X237799523Y-84272380D02*
X237990000Y-84272380D01*
X238085238Y-84224761D01*
X238132857Y-84177142D01*
X238228095Y-84034285D01*
X238275714Y-83843809D01*
X238275714Y-83462857D01*
X238228095Y-83367619D01*
X238180476Y-83320000D01*
X238085238Y-83272380D01*
X237894761Y-83272380D01*
X237799523Y-83320000D01*
X237751904Y-83367619D01*
X237704285Y-83462857D01*
X237704285Y-83700952D01*
X237751904Y-83796190D01*
X237799523Y-83843809D01*
X237894761Y-83891428D01*
X238085238Y-83891428D01*
X238180476Y-83843809D01*
X238228095Y-83796190D01*
X238275714Y-83700952D01*
G04 #@! TO.C,K10*
X243895714Y-84272380D02*
X243895714Y-83272380D01*
X244467142Y-84272380D02*
X244038571Y-83700952D01*
X244467142Y-83272380D02*
X243895714Y-83843809D01*
X245419523Y-84272380D02*
X244848095Y-84272380D01*
X245133809Y-84272380D02*
X245133809Y-83272380D01*
X245038571Y-83415238D01*
X244943333Y-83510476D01*
X244848095Y-83558095D01*
X246038571Y-83272380D02*
X246133809Y-83272380D01*
X246229047Y-83320000D01*
X246276666Y-83367619D01*
X246324285Y-83462857D01*
X246371904Y-83653333D01*
X246371904Y-83891428D01*
X246324285Y-84081904D01*
X246276666Y-84177142D01*
X246229047Y-84224761D01*
X246133809Y-84272380D01*
X246038571Y-84272380D01*
X245943333Y-84224761D01*
X245895714Y-84177142D01*
X245848095Y-84081904D01*
X245800476Y-83891428D01*
X245800476Y-83653333D01*
X245848095Y-83462857D01*
X245895714Y-83367619D01*
X245943333Y-83320000D01*
X246038571Y-83272380D01*
G04 #@! TO.C,K12*
X182935714Y-91892380D02*
X182935714Y-90892380D01*
X183507142Y-91892380D02*
X183078571Y-91320952D01*
X183507142Y-90892380D02*
X182935714Y-91463809D01*
X184459523Y-91892380D02*
X183888095Y-91892380D01*
X184173809Y-91892380D02*
X184173809Y-90892380D01*
X184078571Y-91035238D01*
X183983333Y-91130476D01*
X183888095Y-91178095D01*
X184840476Y-90987619D02*
X184888095Y-90940000D01*
X184983333Y-90892380D01*
X185221428Y-90892380D01*
X185316666Y-90940000D01*
X185364285Y-90987619D01*
X185411904Y-91082857D01*
X185411904Y-91178095D01*
X185364285Y-91320952D01*
X184792857Y-91892380D01*
X185411904Y-91892380D01*
G04 #@! TO.C,K13*
X190555714Y-91892380D02*
X190555714Y-90892380D01*
X191127142Y-91892380D02*
X190698571Y-91320952D01*
X191127142Y-90892380D02*
X190555714Y-91463809D01*
X192079523Y-91892380D02*
X191508095Y-91892380D01*
X191793809Y-91892380D02*
X191793809Y-90892380D01*
X191698571Y-91035238D01*
X191603333Y-91130476D01*
X191508095Y-91178095D01*
X192412857Y-90892380D02*
X193031904Y-90892380D01*
X192698571Y-91273333D01*
X192841428Y-91273333D01*
X192936666Y-91320952D01*
X192984285Y-91368571D01*
X193031904Y-91463809D01*
X193031904Y-91701904D01*
X192984285Y-91797142D01*
X192936666Y-91844761D01*
X192841428Y-91892380D01*
X192555714Y-91892380D01*
X192460476Y-91844761D01*
X192412857Y-91797142D01*
G04 #@! TO.C,K14*
X198175714Y-91892380D02*
X198175714Y-90892380D01*
X198747142Y-91892380D02*
X198318571Y-91320952D01*
X198747142Y-90892380D02*
X198175714Y-91463809D01*
X199699523Y-91892380D02*
X199128095Y-91892380D01*
X199413809Y-91892380D02*
X199413809Y-90892380D01*
X199318571Y-91035238D01*
X199223333Y-91130476D01*
X199128095Y-91178095D01*
X200556666Y-91225714D02*
X200556666Y-91892380D01*
X200318571Y-90844761D02*
X200080476Y-91559047D01*
X200699523Y-91559047D01*
G04 #@! TO.C,K15*
X205795714Y-91892380D02*
X205795714Y-90892380D01*
X206367142Y-91892380D02*
X205938571Y-91320952D01*
X206367142Y-90892380D02*
X205795714Y-91463809D01*
X207319523Y-91892380D02*
X206748095Y-91892380D01*
X207033809Y-91892380D02*
X207033809Y-90892380D01*
X206938571Y-91035238D01*
X206843333Y-91130476D01*
X206748095Y-91178095D01*
X208224285Y-90892380D02*
X207748095Y-90892380D01*
X207700476Y-91368571D01*
X207748095Y-91320952D01*
X207843333Y-91273333D01*
X208081428Y-91273333D01*
X208176666Y-91320952D01*
X208224285Y-91368571D01*
X208271904Y-91463809D01*
X208271904Y-91701904D01*
X208224285Y-91797142D01*
X208176666Y-91844761D01*
X208081428Y-91892380D01*
X207843333Y-91892380D01*
X207748095Y-91844761D01*
X207700476Y-91797142D01*
G04 #@! TO.C,K16*
X213415714Y-91892380D02*
X213415714Y-90892380D01*
X213987142Y-91892380D02*
X213558571Y-91320952D01*
X213987142Y-90892380D02*
X213415714Y-91463809D01*
X214939523Y-91892380D02*
X214368095Y-91892380D01*
X214653809Y-91892380D02*
X214653809Y-90892380D01*
X214558571Y-91035238D01*
X214463333Y-91130476D01*
X214368095Y-91178095D01*
X215796666Y-90892380D02*
X215606190Y-90892380D01*
X215510952Y-90940000D01*
X215463333Y-90987619D01*
X215368095Y-91130476D01*
X215320476Y-91320952D01*
X215320476Y-91701904D01*
X215368095Y-91797142D01*
X215415714Y-91844761D01*
X215510952Y-91892380D01*
X215701428Y-91892380D01*
X215796666Y-91844761D01*
X215844285Y-91797142D01*
X215891904Y-91701904D01*
X215891904Y-91463809D01*
X215844285Y-91368571D01*
X215796666Y-91320952D01*
X215701428Y-91273333D01*
X215510952Y-91273333D01*
X215415714Y-91320952D01*
X215368095Y-91368571D01*
X215320476Y-91463809D01*
G04 #@! TO.C,K17*
X221035714Y-91892380D02*
X221035714Y-90892380D01*
X221607142Y-91892380D02*
X221178571Y-91320952D01*
X221607142Y-90892380D02*
X221035714Y-91463809D01*
X222559523Y-91892380D02*
X221988095Y-91892380D01*
X222273809Y-91892380D02*
X222273809Y-90892380D01*
X222178571Y-91035238D01*
X222083333Y-91130476D01*
X221988095Y-91178095D01*
X222892857Y-90892380D02*
X223559523Y-90892380D01*
X223130952Y-91892380D01*
G04 #@! TO.C,K18*
X228655714Y-91892380D02*
X228655714Y-90892380D01*
X229227142Y-91892380D02*
X228798571Y-91320952D01*
X229227142Y-90892380D02*
X228655714Y-91463809D01*
X230179523Y-91892380D02*
X229608095Y-91892380D01*
X229893809Y-91892380D02*
X229893809Y-90892380D01*
X229798571Y-91035238D01*
X229703333Y-91130476D01*
X229608095Y-91178095D01*
X230750952Y-91320952D02*
X230655714Y-91273333D01*
X230608095Y-91225714D01*
X230560476Y-91130476D01*
X230560476Y-91082857D01*
X230608095Y-90987619D01*
X230655714Y-90940000D01*
X230750952Y-90892380D01*
X230941428Y-90892380D01*
X231036666Y-90940000D01*
X231084285Y-90987619D01*
X231131904Y-91082857D01*
X231131904Y-91130476D01*
X231084285Y-91225714D01*
X231036666Y-91273333D01*
X230941428Y-91320952D01*
X230750952Y-91320952D01*
X230655714Y-91368571D01*
X230608095Y-91416190D01*
X230560476Y-91511428D01*
X230560476Y-91701904D01*
X230608095Y-91797142D01*
X230655714Y-91844761D01*
X230750952Y-91892380D01*
X230941428Y-91892380D01*
X231036666Y-91844761D01*
X231084285Y-91797142D01*
X231131904Y-91701904D01*
X231131904Y-91511428D01*
X231084285Y-91416190D01*
X231036666Y-91368571D01*
X230941428Y-91320952D01*
G04 #@! TO.C,K19*
X236275714Y-91892380D02*
X236275714Y-90892380D01*
X236847142Y-91892380D02*
X236418571Y-91320952D01*
X236847142Y-90892380D02*
X236275714Y-91463809D01*
X237799523Y-91892380D02*
X237228095Y-91892380D01*
X237513809Y-91892380D02*
X237513809Y-90892380D01*
X237418571Y-91035238D01*
X237323333Y-91130476D01*
X237228095Y-91178095D01*
X238275714Y-91892380D02*
X238466190Y-91892380D01*
X238561428Y-91844761D01*
X238609047Y-91797142D01*
X238704285Y-91654285D01*
X238751904Y-91463809D01*
X238751904Y-91082857D01*
X238704285Y-90987619D01*
X238656666Y-90940000D01*
X238561428Y-90892380D01*
X238370952Y-90892380D01*
X238275714Y-90940000D01*
X238228095Y-90987619D01*
X238180476Y-91082857D01*
X238180476Y-91320952D01*
X238228095Y-91416190D01*
X238275714Y-91463809D01*
X238370952Y-91511428D01*
X238561428Y-91511428D01*
X238656666Y-91463809D01*
X238704285Y-91416190D01*
X238751904Y-91320952D01*
G04 #@! TO.C,K20*
X243895714Y-91892380D02*
X243895714Y-90892380D01*
X244467142Y-91892380D02*
X244038571Y-91320952D01*
X244467142Y-90892380D02*
X243895714Y-91463809D01*
X244848095Y-90987619D02*
X244895714Y-90940000D01*
X244990952Y-90892380D01*
X245229047Y-90892380D01*
X245324285Y-90940000D01*
X245371904Y-90987619D01*
X245419523Y-91082857D01*
X245419523Y-91178095D01*
X245371904Y-91320952D01*
X244800476Y-91892380D01*
X245419523Y-91892380D01*
X246038571Y-90892380D02*
X246133809Y-90892380D01*
X246229047Y-90940000D01*
X246276666Y-90987619D01*
X246324285Y-91082857D01*
X246371904Y-91273333D01*
X246371904Y-91511428D01*
X246324285Y-91701904D01*
X246276666Y-91797142D01*
X246229047Y-91844761D01*
X246133809Y-91892380D01*
X246038571Y-91892380D01*
X245943333Y-91844761D01*
X245895714Y-91797142D01*
X245848095Y-91701904D01*
X245800476Y-91511428D01*
X245800476Y-91273333D01*
X245848095Y-91082857D01*
X245895714Y-90987619D01*
X245943333Y-90940000D01*
X246038571Y-90892380D01*
G04 #@! TO.C,K21*
X175315714Y-99512380D02*
X175315714Y-98512380D01*
X175887142Y-99512380D02*
X175458571Y-98940952D01*
X175887142Y-98512380D02*
X175315714Y-99083809D01*
X176268095Y-98607619D02*
X176315714Y-98560000D01*
X176410952Y-98512380D01*
X176649047Y-98512380D01*
X176744285Y-98560000D01*
X176791904Y-98607619D01*
X176839523Y-98702857D01*
X176839523Y-98798095D01*
X176791904Y-98940952D01*
X176220476Y-99512380D01*
X176839523Y-99512380D01*
X177791904Y-99512380D02*
X177220476Y-99512380D01*
X177506190Y-99512380D02*
X177506190Y-98512380D01*
X177410952Y-98655238D01*
X177315714Y-98750476D01*
X177220476Y-98798095D01*
G04 #@! TO.C,K22*
X182935714Y-99512380D02*
X182935714Y-98512380D01*
X183507142Y-99512380D02*
X183078571Y-98940952D01*
X183507142Y-98512380D02*
X182935714Y-99083809D01*
X183888095Y-98607619D02*
X183935714Y-98560000D01*
X184030952Y-98512380D01*
X184269047Y-98512380D01*
X184364285Y-98560000D01*
X184411904Y-98607619D01*
X184459523Y-98702857D01*
X184459523Y-98798095D01*
X184411904Y-98940952D01*
X183840476Y-99512380D01*
X184459523Y-99512380D01*
X184840476Y-98607619D02*
X184888095Y-98560000D01*
X184983333Y-98512380D01*
X185221428Y-98512380D01*
X185316666Y-98560000D01*
X185364285Y-98607619D01*
X185411904Y-98702857D01*
X185411904Y-98798095D01*
X185364285Y-98940952D01*
X184792857Y-99512380D01*
X185411904Y-99512380D01*
G04 #@! TO.C,K23*
X190555714Y-99512380D02*
X190555714Y-98512380D01*
X191127142Y-99512380D02*
X190698571Y-98940952D01*
X191127142Y-98512380D02*
X190555714Y-99083809D01*
X191508095Y-98607619D02*
X191555714Y-98560000D01*
X191650952Y-98512380D01*
X191889047Y-98512380D01*
X191984285Y-98560000D01*
X192031904Y-98607619D01*
X192079523Y-98702857D01*
X192079523Y-98798095D01*
X192031904Y-98940952D01*
X191460476Y-99512380D01*
X192079523Y-99512380D01*
X192412857Y-98512380D02*
X193031904Y-98512380D01*
X192698571Y-98893333D01*
X192841428Y-98893333D01*
X192936666Y-98940952D01*
X192984285Y-98988571D01*
X193031904Y-99083809D01*
X193031904Y-99321904D01*
X192984285Y-99417142D01*
X192936666Y-99464761D01*
X192841428Y-99512380D01*
X192555714Y-99512380D01*
X192460476Y-99464761D01*
X192412857Y-99417142D01*
G04 #@! TO.C,K24*
X198175714Y-99512380D02*
X198175714Y-98512380D01*
X198747142Y-99512380D02*
X198318571Y-98940952D01*
X198747142Y-98512380D02*
X198175714Y-99083809D01*
X199128095Y-98607619D02*
X199175714Y-98560000D01*
X199270952Y-98512380D01*
X199509047Y-98512380D01*
X199604285Y-98560000D01*
X199651904Y-98607619D01*
X199699523Y-98702857D01*
X199699523Y-98798095D01*
X199651904Y-98940952D01*
X199080476Y-99512380D01*
X199699523Y-99512380D01*
X200556666Y-98845714D02*
X200556666Y-99512380D01*
X200318571Y-98464761D02*
X200080476Y-99179047D01*
X200699523Y-99179047D01*
G04 #@! TO.C,K25*
X205795714Y-99512380D02*
X205795714Y-98512380D01*
X206367142Y-99512380D02*
X205938571Y-98940952D01*
X206367142Y-98512380D02*
X205795714Y-99083809D01*
X206748095Y-98607619D02*
X206795714Y-98560000D01*
X206890952Y-98512380D01*
X207129047Y-98512380D01*
X207224285Y-98560000D01*
X207271904Y-98607619D01*
X207319523Y-98702857D01*
X207319523Y-98798095D01*
X207271904Y-98940952D01*
X206700476Y-99512380D01*
X207319523Y-99512380D01*
X208224285Y-98512380D02*
X207748095Y-98512380D01*
X207700476Y-98988571D01*
X207748095Y-98940952D01*
X207843333Y-98893333D01*
X208081428Y-98893333D01*
X208176666Y-98940952D01*
X208224285Y-98988571D01*
X208271904Y-99083809D01*
X208271904Y-99321904D01*
X208224285Y-99417142D01*
X208176666Y-99464761D01*
X208081428Y-99512380D01*
X207843333Y-99512380D01*
X207748095Y-99464761D01*
X207700476Y-99417142D01*
G04 #@! TO.C,K26*
X213415714Y-99512380D02*
X213415714Y-98512380D01*
X213987142Y-99512380D02*
X213558571Y-98940952D01*
X213987142Y-98512380D02*
X213415714Y-99083809D01*
X214368095Y-98607619D02*
X214415714Y-98560000D01*
X214510952Y-98512380D01*
X214749047Y-98512380D01*
X214844285Y-98560000D01*
X214891904Y-98607619D01*
X214939523Y-98702857D01*
X214939523Y-98798095D01*
X214891904Y-98940952D01*
X214320476Y-99512380D01*
X214939523Y-99512380D01*
X215796666Y-98512380D02*
X215606190Y-98512380D01*
X215510952Y-98560000D01*
X215463333Y-98607619D01*
X215368095Y-98750476D01*
X215320476Y-98940952D01*
X215320476Y-99321904D01*
X215368095Y-99417142D01*
X215415714Y-99464761D01*
X215510952Y-99512380D01*
X215701428Y-99512380D01*
X215796666Y-99464761D01*
X215844285Y-99417142D01*
X215891904Y-99321904D01*
X215891904Y-99083809D01*
X215844285Y-98988571D01*
X215796666Y-98940952D01*
X215701428Y-98893333D01*
X215510952Y-98893333D01*
X215415714Y-98940952D01*
X215368095Y-98988571D01*
X215320476Y-99083809D01*
G04 #@! TO.C,K27*
X221035714Y-99512380D02*
X221035714Y-98512380D01*
X221607142Y-99512380D02*
X221178571Y-98940952D01*
X221607142Y-98512380D02*
X221035714Y-99083809D01*
X221988095Y-98607619D02*
X222035714Y-98560000D01*
X222130952Y-98512380D01*
X222369047Y-98512380D01*
X222464285Y-98560000D01*
X222511904Y-98607619D01*
X222559523Y-98702857D01*
X222559523Y-98798095D01*
X222511904Y-98940952D01*
X221940476Y-99512380D01*
X222559523Y-99512380D01*
X222892857Y-98512380D02*
X223559523Y-98512380D01*
X223130952Y-99512380D01*
G04 #@! TO.C,K28*
X228655714Y-99512380D02*
X228655714Y-98512380D01*
X229227142Y-99512380D02*
X228798571Y-98940952D01*
X229227142Y-98512380D02*
X228655714Y-99083809D01*
X229608095Y-98607619D02*
X229655714Y-98560000D01*
X229750952Y-98512380D01*
X229989047Y-98512380D01*
X230084285Y-98560000D01*
X230131904Y-98607619D01*
X230179523Y-98702857D01*
X230179523Y-98798095D01*
X230131904Y-98940952D01*
X229560476Y-99512380D01*
X230179523Y-99512380D01*
X230750952Y-98940952D02*
X230655714Y-98893333D01*
X230608095Y-98845714D01*
X230560476Y-98750476D01*
X230560476Y-98702857D01*
X230608095Y-98607619D01*
X230655714Y-98560000D01*
X230750952Y-98512380D01*
X230941428Y-98512380D01*
X231036666Y-98560000D01*
X231084285Y-98607619D01*
X231131904Y-98702857D01*
X231131904Y-98750476D01*
X231084285Y-98845714D01*
X231036666Y-98893333D01*
X230941428Y-98940952D01*
X230750952Y-98940952D01*
X230655714Y-98988571D01*
X230608095Y-99036190D01*
X230560476Y-99131428D01*
X230560476Y-99321904D01*
X230608095Y-99417142D01*
X230655714Y-99464761D01*
X230750952Y-99512380D01*
X230941428Y-99512380D01*
X231036666Y-99464761D01*
X231084285Y-99417142D01*
X231131904Y-99321904D01*
X231131904Y-99131428D01*
X231084285Y-99036190D01*
X231036666Y-98988571D01*
X230941428Y-98940952D01*
G04 #@! TO.C,K29*
X236275714Y-99512380D02*
X236275714Y-98512380D01*
X236847142Y-99512380D02*
X236418571Y-98940952D01*
X236847142Y-98512380D02*
X236275714Y-99083809D01*
X237228095Y-98607619D02*
X237275714Y-98560000D01*
X237370952Y-98512380D01*
X237609047Y-98512380D01*
X237704285Y-98560000D01*
X237751904Y-98607619D01*
X237799523Y-98702857D01*
X237799523Y-98798095D01*
X237751904Y-98940952D01*
X237180476Y-99512380D01*
X237799523Y-99512380D01*
X238275714Y-99512380D02*
X238466190Y-99512380D01*
X238561428Y-99464761D01*
X238609047Y-99417142D01*
X238704285Y-99274285D01*
X238751904Y-99083809D01*
X238751904Y-98702857D01*
X238704285Y-98607619D01*
X238656666Y-98560000D01*
X238561428Y-98512380D01*
X238370952Y-98512380D01*
X238275714Y-98560000D01*
X238228095Y-98607619D01*
X238180476Y-98702857D01*
X238180476Y-98940952D01*
X238228095Y-99036190D01*
X238275714Y-99083809D01*
X238370952Y-99131428D01*
X238561428Y-99131428D01*
X238656666Y-99083809D01*
X238704285Y-99036190D01*
X238751904Y-98940952D01*
G04 #@! TO.C,K30*
X243895714Y-99512380D02*
X243895714Y-98512380D01*
X244467142Y-99512380D02*
X244038571Y-98940952D01*
X244467142Y-98512380D02*
X243895714Y-99083809D01*
X244800476Y-98512380D02*
X245419523Y-98512380D01*
X245086190Y-98893333D01*
X245229047Y-98893333D01*
X245324285Y-98940952D01*
X245371904Y-98988571D01*
X245419523Y-99083809D01*
X245419523Y-99321904D01*
X245371904Y-99417142D01*
X245324285Y-99464761D01*
X245229047Y-99512380D01*
X244943333Y-99512380D01*
X244848095Y-99464761D01*
X244800476Y-99417142D01*
X246038571Y-98512380D02*
X246133809Y-98512380D01*
X246229047Y-98560000D01*
X246276666Y-98607619D01*
X246324285Y-98702857D01*
X246371904Y-98893333D01*
X246371904Y-99131428D01*
X246324285Y-99321904D01*
X246276666Y-99417142D01*
X246229047Y-99464761D01*
X246133809Y-99512380D01*
X246038571Y-99512380D01*
X245943333Y-99464761D01*
X245895714Y-99417142D01*
X245848095Y-99321904D01*
X245800476Y-99131428D01*
X245800476Y-98893333D01*
X245848095Y-98702857D01*
X245895714Y-98607619D01*
X245943333Y-98560000D01*
X246038571Y-98512380D01*
G04 #@! TO.C,K31*
X175315714Y-107132380D02*
X175315714Y-106132380D01*
X175887142Y-107132380D02*
X175458571Y-106560952D01*
X175887142Y-106132380D02*
X175315714Y-106703809D01*
X176220476Y-106132380D02*
X176839523Y-106132380D01*
X176506190Y-106513333D01*
X176649047Y-106513333D01*
X176744285Y-106560952D01*
X176791904Y-106608571D01*
X176839523Y-106703809D01*
X176839523Y-106941904D01*
X176791904Y-107037142D01*
X176744285Y-107084761D01*
X176649047Y-107132380D01*
X176363333Y-107132380D01*
X176268095Y-107084761D01*
X176220476Y-107037142D01*
X177791904Y-107132380D02*
X177220476Y-107132380D01*
X177506190Y-107132380D02*
X177506190Y-106132380D01*
X177410952Y-106275238D01*
X177315714Y-106370476D01*
X177220476Y-106418095D01*
G04 #@! TO.C,K32*
X182935714Y-107132380D02*
X182935714Y-106132380D01*
X183507142Y-107132380D02*
X183078571Y-106560952D01*
X183507142Y-106132380D02*
X182935714Y-106703809D01*
X183840476Y-106132380D02*
X184459523Y-106132380D01*
X184126190Y-106513333D01*
X184269047Y-106513333D01*
X184364285Y-106560952D01*
X184411904Y-106608571D01*
X184459523Y-106703809D01*
X184459523Y-106941904D01*
X184411904Y-107037142D01*
X184364285Y-107084761D01*
X184269047Y-107132380D01*
X183983333Y-107132380D01*
X183888095Y-107084761D01*
X183840476Y-107037142D01*
X184840476Y-106227619D02*
X184888095Y-106180000D01*
X184983333Y-106132380D01*
X185221428Y-106132380D01*
X185316666Y-106180000D01*
X185364285Y-106227619D01*
X185411904Y-106322857D01*
X185411904Y-106418095D01*
X185364285Y-106560952D01*
X184792857Y-107132380D01*
X185411904Y-107132380D01*
G04 #@! TO.C,K33*
X190555714Y-107132380D02*
X190555714Y-106132380D01*
X191127142Y-107132380D02*
X190698571Y-106560952D01*
X191127142Y-106132380D02*
X190555714Y-106703809D01*
X191460476Y-106132380D02*
X192079523Y-106132380D01*
X191746190Y-106513333D01*
X191889047Y-106513333D01*
X191984285Y-106560952D01*
X192031904Y-106608571D01*
X192079523Y-106703809D01*
X192079523Y-106941904D01*
X192031904Y-107037142D01*
X191984285Y-107084761D01*
X191889047Y-107132380D01*
X191603333Y-107132380D01*
X191508095Y-107084761D01*
X191460476Y-107037142D01*
X192412857Y-106132380D02*
X193031904Y-106132380D01*
X192698571Y-106513333D01*
X192841428Y-106513333D01*
X192936666Y-106560952D01*
X192984285Y-106608571D01*
X193031904Y-106703809D01*
X193031904Y-106941904D01*
X192984285Y-107037142D01*
X192936666Y-107084761D01*
X192841428Y-107132380D01*
X192555714Y-107132380D01*
X192460476Y-107084761D01*
X192412857Y-107037142D01*
G04 #@! TO.C,K35*
X205795714Y-107132380D02*
X205795714Y-106132380D01*
X206367142Y-107132380D02*
X205938571Y-106560952D01*
X206367142Y-106132380D02*
X205795714Y-106703809D01*
X206700476Y-106132380D02*
X207319523Y-106132380D01*
X206986190Y-106513333D01*
X207129047Y-106513333D01*
X207224285Y-106560952D01*
X207271904Y-106608571D01*
X207319523Y-106703809D01*
X207319523Y-106941904D01*
X207271904Y-107037142D01*
X207224285Y-107084761D01*
X207129047Y-107132380D01*
X206843333Y-107132380D01*
X206748095Y-107084761D01*
X206700476Y-107037142D01*
X208224285Y-106132380D02*
X207748095Y-106132380D01*
X207700476Y-106608571D01*
X207748095Y-106560952D01*
X207843333Y-106513333D01*
X208081428Y-106513333D01*
X208176666Y-106560952D01*
X208224285Y-106608571D01*
X208271904Y-106703809D01*
X208271904Y-106941904D01*
X208224285Y-107037142D01*
X208176666Y-107084761D01*
X208081428Y-107132380D01*
X207843333Y-107132380D01*
X207748095Y-107084761D01*
X207700476Y-107037142D01*
G04 #@! TO.C,K36*
X213415714Y-107132380D02*
X213415714Y-106132380D01*
X213987142Y-107132380D02*
X213558571Y-106560952D01*
X213987142Y-106132380D02*
X213415714Y-106703809D01*
X214320476Y-106132380D02*
X214939523Y-106132380D01*
X214606190Y-106513333D01*
X214749047Y-106513333D01*
X214844285Y-106560952D01*
X214891904Y-106608571D01*
X214939523Y-106703809D01*
X214939523Y-106941904D01*
X214891904Y-107037142D01*
X214844285Y-107084761D01*
X214749047Y-107132380D01*
X214463333Y-107132380D01*
X214368095Y-107084761D01*
X214320476Y-107037142D01*
X215796666Y-106132380D02*
X215606190Y-106132380D01*
X215510952Y-106180000D01*
X215463333Y-106227619D01*
X215368095Y-106370476D01*
X215320476Y-106560952D01*
X215320476Y-106941904D01*
X215368095Y-107037142D01*
X215415714Y-107084761D01*
X215510952Y-107132380D01*
X215701428Y-107132380D01*
X215796666Y-107084761D01*
X215844285Y-107037142D01*
X215891904Y-106941904D01*
X215891904Y-106703809D01*
X215844285Y-106608571D01*
X215796666Y-106560952D01*
X215701428Y-106513333D01*
X215510952Y-106513333D01*
X215415714Y-106560952D01*
X215368095Y-106608571D01*
X215320476Y-106703809D01*
G04 #@! TO.C,K38*
X228655714Y-107132380D02*
X228655714Y-106132380D01*
X229227142Y-107132380D02*
X228798571Y-106560952D01*
X229227142Y-106132380D02*
X228655714Y-106703809D01*
X229560476Y-106132380D02*
X230179523Y-106132380D01*
X229846190Y-106513333D01*
X229989047Y-106513333D01*
X230084285Y-106560952D01*
X230131904Y-106608571D01*
X230179523Y-106703809D01*
X230179523Y-106941904D01*
X230131904Y-107037142D01*
X230084285Y-107084761D01*
X229989047Y-107132380D01*
X229703333Y-107132380D01*
X229608095Y-107084761D01*
X229560476Y-107037142D01*
X230750952Y-106560952D02*
X230655714Y-106513333D01*
X230608095Y-106465714D01*
X230560476Y-106370476D01*
X230560476Y-106322857D01*
X230608095Y-106227619D01*
X230655714Y-106180000D01*
X230750952Y-106132380D01*
X230941428Y-106132380D01*
X231036666Y-106180000D01*
X231084285Y-106227619D01*
X231131904Y-106322857D01*
X231131904Y-106370476D01*
X231084285Y-106465714D01*
X231036666Y-106513333D01*
X230941428Y-106560952D01*
X230750952Y-106560952D01*
X230655714Y-106608571D01*
X230608095Y-106656190D01*
X230560476Y-106751428D01*
X230560476Y-106941904D01*
X230608095Y-107037142D01*
X230655714Y-107084761D01*
X230750952Y-107132380D01*
X230941428Y-107132380D01*
X231036666Y-107084761D01*
X231084285Y-107037142D01*
X231131904Y-106941904D01*
X231131904Y-106751428D01*
X231084285Y-106656190D01*
X231036666Y-106608571D01*
X230941428Y-106560952D01*
G04 #@! TO.C,K39*
X236275714Y-107132380D02*
X236275714Y-106132380D01*
X236847142Y-107132380D02*
X236418571Y-106560952D01*
X236847142Y-106132380D02*
X236275714Y-106703809D01*
X237180476Y-106132380D02*
X237799523Y-106132380D01*
X237466190Y-106513333D01*
X237609047Y-106513333D01*
X237704285Y-106560952D01*
X237751904Y-106608571D01*
X237799523Y-106703809D01*
X237799523Y-106941904D01*
X237751904Y-107037142D01*
X237704285Y-107084761D01*
X237609047Y-107132380D01*
X237323333Y-107132380D01*
X237228095Y-107084761D01*
X237180476Y-107037142D01*
X238275714Y-107132380D02*
X238466190Y-107132380D01*
X238561428Y-107084761D01*
X238609047Y-107037142D01*
X238704285Y-106894285D01*
X238751904Y-106703809D01*
X238751904Y-106322857D01*
X238704285Y-106227619D01*
X238656666Y-106180000D01*
X238561428Y-106132380D01*
X238370952Y-106132380D01*
X238275714Y-106180000D01*
X238228095Y-106227619D01*
X238180476Y-106322857D01*
X238180476Y-106560952D01*
X238228095Y-106656190D01*
X238275714Y-106703809D01*
X238370952Y-106751428D01*
X238561428Y-106751428D01*
X238656666Y-106703809D01*
X238704285Y-106656190D01*
X238751904Y-106560952D01*
G04 #@! TO.C,K40*
X243895714Y-107132380D02*
X243895714Y-106132380D01*
X244467142Y-107132380D02*
X244038571Y-106560952D01*
X244467142Y-106132380D02*
X243895714Y-106703809D01*
X245324285Y-106465714D02*
X245324285Y-107132380D01*
X245086190Y-106084761D02*
X244848095Y-106799047D01*
X245467142Y-106799047D01*
X246038571Y-106132380D02*
X246133809Y-106132380D01*
X246229047Y-106180000D01*
X246276666Y-106227619D01*
X246324285Y-106322857D01*
X246371904Y-106513333D01*
X246371904Y-106751428D01*
X246324285Y-106941904D01*
X246276666Y-107037142D01*
X246229047Y-107084761D01*
X246133809Y-107132380D01*
X246038571Y-107132380D01*
X245943333Y-107084761D01*
X245895714Y-107037142D01*
X245848095Y-106941904D01*
X245800476Y-106751428D01*
X245800476Y-106513333D01*
X245848095Y-106322857D01*
X245895714Y-106227619D01*
X245943333Y-106180000D01*
X246038571Y-106132380D01*
G04 #@! TO.C,P2*
X206192380Y-87225095D02*
X205192380Y-87225095D01*
X205192380Y-86844142D01*
X205240000Y-86748904D01*
X205287619Y-86701285D01*
X205382857Y-86653666D01*
X205525714Y-86653666D01*
X205620952Y-86701285D01*
X205668571Y-86748904D01*
X205716190Y-86844142D01*
X205716190Y-87225095D01*
X205287619Y-86272714D02*
X205240000Y-86225095D01*
X205192380Y-86129857D01*
X205192380Y-85891761D01*
X205240000Y-85796523D01*
X205287619Y-85748904D01*
X205382857Y-85701285D01*
X205478095Y-85701285D01*
X205620952Y-85748904D01*
X206192380Y-86320333D01*
X206192380Y-85701285D01*
G04 #@! TD*
M02*
